<svg width="50" height="50" viewBox="0 0 50 50" fill="none" xmlns="http://www.w3.org/2000/svg">
<path d="M35.906 46.8749H7.84346C7.10433 46.8752 6.37359 46.7183 5.69982 46.4144C5.02605 46.1105 4.42467 45.6667 3.93566 45.1124C3.44665 44.5582 3.0812 43.9062 2.86361 43.1999C2.64602 42.4935 2.58127 41.7489 2.67366 41.0155L5.79866 16.0155C5.95878 14.7571 6.57204 13.6002 7.52363 12.7614C8.47522 11.9225 9.69991 11.4593 10.9685 11.4583H25.3841C25.6603 11.4583 25.9253 11.568 26.1207 11.7633C26.316 11.9587 26.4257 12.2237 26.4257 12.4999C26.4257 12.7762 26.316 13.0411 26.1207 13.2365C25.9253 13.4318 25.6603 13.5416 25.3841 13.5416H10.9685C10.2072 13.5412 9.47195 13.8186 8.90078 14.3219C8.32961 14.8252 7.96178 15.5197 7.86637 16.2749L4.74137 41.2749C4.68664 41.7149 4.72598 42.1614 4.8568 42.585C4.98761 43.0086 5.20692 43.3996 5.5002 43.7321C5.79348 44.0645 6.15403 44.3309 6.558 44.5136C6.96196 44.6962 7.40012 44.791 7.84346 44.7916H35.906C36.0394 44.7664 36.1764 44.7679 36.3093 44.7958C36.4421 44.8237 36.5681 44.8776 36.6801 44.9543C36.7921 45.0311 36.8878 45.1292 36.9618 45.243C37.0357 45.3568 37.0865 45.4841 37.1112 45.6176C37.1608 45.8907 37.1013 46.1723 36.9455 46.402C36.7897 46.6317 36.5499 46.791 36.2778 46.8457C36.155 46.8666 36.0305 46.8764 35.906 46.8749ZM38.3008 28.302C38.0467 28.3019 37.8015 28.209 37.6112 28.0408C37.4209 27.8725 37.2987 27.6405 37.2674 27.3885L35.883 16.2749C35.7876 15.5197 35.4198 14.8252 34.8486 14.3219C34.2775 13.8186 33.5422 13.5412 32.781 13.5416H29.3247C29.0484 13.5416 28.7835 13.4318 28.5881 13.2365C28.3928 13.0411 28.283 12.7762 28.283 12.4999C28.283 12.2237 28.3928 11.9587 28.5881 11.7633C28.7835 11.568 29.0484 11.4583 29.3247 11.4583H32.781C34.0497 11.4593 35.2745 11.9227 36.2261 12.7618C37.1777 13.6008 37.7909 14.758 37.9507 16.0166L39.3351 27.1312C39.3693 27.4052 39.2933 27.6816 39.1237 27.8996C38.9542 28.1176 38.705 28.2593 38.431 28.2937C38.3878 28.299 38.3443 28.3018 38.3008 28.302Z" fill="black"/>
<path d="M29.166 18.75C28.8897 18.75 28.6248 18.6403 28.4294 18.4449C28.2341 18.2496 28.1243 17.9846 28.1243 17.7083V11.4583C28.1243 9.80073 27.4659 8.21102 26.2938 7.03892C25.1217 5.86681 23.532 5.20833 21.8743 5.20833C20.2167 5.20833 18.627 5.86681 17.4549 7.03892C16.2828 8.21102 15.6243 9.80073 15.6243 11.4583V17.7083C15.6243 17.9846 15.5146 18.2496 15.3193 18.4449C15.1239 18.6403 14.8589 18.75 14.5827 18.75C14.3064 18.75 14.0415 18.6403 13.8461 18.4449C13.6508 18.2496 13.541 17.9846 13.541 17.7083V11.4583C13.541 9.2482 14.419 7.12858 15.9818 5.56578C17.5446 4.00297 19.6642 3.125 21.8743 3.125C24.0845 3.125 26.2041 4.00297 27.7669 5.56578C29.3297 7.12858 30.2077 9.2482 30.2077 11.4583V17.7083C30.2077 17.9846 30.0979 18.2496 29.9026 18.4449C29.7072 18.6403 29.4423 18.75 29.166 18.75Z" fill="black"/>
<path d="M36.4577 46.8751C34.3975 46.8751 32.3835 46.2642 30.6705 45.1196C28.9575 43.975 27.6224 42.3481 26.8339 40.4447C26.0455 38.5413 25.8392 36.4469 26.2412 34.4262C26.6431 32.4056 27.6352 30.5495 29.092 29.0927C30.5488 27.6359 32.4049 26.6438 34.4255 26.2419C36.4461 25.84 38.5406 26.0463 40.444 26.8347C42.3474 27.6231 43.9742 28.9582 45.1188 30.6712C46.2634 32.3842 46.8744 34.3982 46.8744 36.4584C46.8713 39.2202 45.7729 41.8679 43.82 43.8208C41.8672 45.7736 39.2194 46.8721 36.4577 46.8751ZM36.4577 28.1251C34.8095 28.1251 33.1983 28.6138 31.8279 29.5295C30.4575 30.4452 29.3894 31.7467 28.7587 33.2694C28.128 34.7921 27.9629 36.4677 28.2845 38.0842C28.606 39.7007 29.3997 41.1855 30.5651 42.351C31.7306 43.5164 33.2154 44.3101 34.8319 44.6316C36.4484 44.9532 38.124 44.7881 39.6467 44.1574C41.1694 43.5267 42.4709 42.4586 43.3866 41.0882C44.3023 39.7178 44.791 38.1066 44.791 36.4584C44.7885 34.249 43.9098 32.1309 42.3475 30.5686C40.7852 29.0063 38.6671 28.1276 36.4577 28.1251Z" fill="#D62151"/>
<path d="M36.4577 40.6251C36.1814 40.6251 35.9165 40.5153 35.7211 40.32C35.5258 40.1246 35.416 39.8597 35.416 39.5834V33.3334C35.416 33.0571 35.5258 32.7922 35.7211 32.5968C35.9165 32.4015 36.1814 32.2917 36.4577 32.2917C36.7339 32.2917 36.9989 32.4015 37.1943 32.5968C37.3896 32.7922 37.4993 33.0571 37.4993 33.3334V39.5834C37.4993 39.8597 37.3896 40.1246 37.1943 40.32C36.9989 40.5153 36.7339 40.6251 36.4577 40.6251Z" fill="#D62151"/>
<path d="M39.5827 37.5001H33.3327C33.0564 37.5001 32.7915 37.3903 32.5961 37.195C32.4008 36.9996 32.291 36.7347 32.291 36.4584C32.291 36.1821 32.4008 35.9172 32.5961 35.7218C32.7915 35.5265 33.0564 35.4167 33.3327 35.4167H39.5827C39.8589 35.4167 40.1239 35.5265 40.3193 35.7218C40.5146 35.9172 40.6243 36.1821 40.6243 36.4584C40.6243 36.7347 40.5146 36.9996 40.3193 37.195C40.1239 37.3903 39.8589 37.5001 39.5827 37.5001Z" fill="#D62151"/>
</svg>
