<svg width="91" height="91" viewBox="0 0 91 91" fill="none" xmlns="http://www.w3.org/2000/svg">
<circle cx="45.693" cy="45.0114" r="45.0114" fill="#F2F2F2"/>
<path d="M47.0763 28.0381V28.0382L47.0854 28.038C47.874 28.0237 48.6113 28.3081 49.1598 28.8453L49.1597 28.8453L49.1664 28.8517C49.7126 29.3671 50.0096 30.0847 50.0096 30.8547C50.0096 32.9753 51.7614 34.6731 53.9113 34.6731C54.5874 34.6731 55.2519 34.4783 55.8329 34.161C57.2159 33.4184 58.9343 33.8952 59.7117 35.2077C59.712 35.2082 59.7123 35.2087 59.7126 35.2093L60.8443 37.1537C61.0884 37.5854 61.2263 38.0669 61.2263 38.5547C61.2263 39.5546 60.6782 40.489 59.7869 40.9833C59.1854 41.3124 58.689 41.8111 58.3482 42.3842L58.3481 42.3841L58.3427 42.3936C57.3202 44.2017 57.9611 46.486 59.7799 47.5238C61.1395 48.3024 61.6028 49.9971 60.8462 51.3358L59.7146 53.2152L59.7146 53.2151L59.7107 53.2217C59.2016 54.0972 58.2509 54.6397 57.2263 54.6397C56.7071 54.6397 56.1981 54.5079 55.7858 54.2597L55.7741 54.2526L55.762 54.2462C55.1677 53.9315 54.5062 53.7381 53.8263 53.7381C52.7992 53.7381 51.8064 54.1384 51.079 54.8632C50.3278 55.5785 49.9263 56.5574 49.9263 57.5714C49.9263 59.0992 48.648 60.3714 47.0263 60.3714H44.7446C43.9788 60.3714 43.255 60.0597 42.7298 59.5345C42.1923 58.997 41.9113 58.2917 41.9113 57.5547C41.9113 55.437 40.1774 53.7381 38.0279 53.7381C37.3241 53.7381 36.6371 53.9267 36.0418 54.2905C35.3739 54.6553 34.5763 54.7549 33.8352 54.5708C33.0959 54.3705 32.457 53.8865 32.0749 53.2528L31.0132 51.3753L31.0063 51.3631L30.9987 51.3513C30.5715 50.6856 30.4463 49.895 30.6445 49.15L30.6449 49.1483C30.84 48.4044 31.3494 47.7637 32.0503 47.3763C32.6474 47.0497 33.1458 46.5688 33.492 45.9725L33.4921 45.9725L33.4969 45.9638C34.4997 44.1546 33.8583 41.8908 32.0621 40.8399L32.0621 40.8398L32.0567 40.8367C30.7108 40.0717 30.2499 38.3937 31.0113 37.0708L31.0122 37.0692L32.0763 35.2042C32.0764 35.2039 32.0766 35.2036 32.0768 35.2034C32.4588 34.5402 33.0973 34.0547 33.854 33.8548C34.6094 33.6557 35.4056 33.7677 36.0765 34.1546L36.084 34.1589L36.0917 34.163C36.6937 34.4828 37.3572 34.6547 38.0279 34.6547C39.0564 34.6547 40.0471 34.2551 40.7751 33.5463C41.506 32.8346 41.9113 31.855 41.9113 30.8547C41.9113 29.3085 43.1914 28.0381 44.8096 28.0381H47.0763ZM47.9322 39.5429C46.0003 38.751 43.7709 39.1733 42.2772 40.6301C40.8004 42.07 40.3332 44.2719 41.1494 46.1686C41.9481 48.0727 43.8306 49.3047 45.9263 49.3047H45.9413C47.3254 49.3223 48.6179 48.7877 49.5918 47.8297C50.5701 46.8871 51.1257 45.5926 51.1263 44.2402C51.1439 42.1798 49.8645 40.3158 47.9322 39.5429Z" stroke="black"/>
</svg>
