<svg width="91" height="91" viewBox="0 0 91 91" fill="none" xmlns="http://www.w3.org/2000/svg">
<circle cx="45.1383" cy="45.0114" r="45.0114" fill="#F2F2F2"/>
<g clip-path="url(#clip0_74_37)">
<g clip-path="url(#clip1_74_37)">
<path d="M54.7363 36.4835C54.5072 36.2566 54.3253 35.9867 54.2009 35.6893C54.0765 35.3919 54.0121 35.0728 54.0113 34.7504C54.0106 34.428 54.0735 34.1087 54.1965 33.8108C54.3195 33.5128 54.5002 33.2421 54.7282 33.0141C54.9561 32.7862 55.2269 32.6055 55.5248 32.4825C55.8228 32.3595 56.1421 32.2965 56.4645 32.2972C56.7869 32.298 57.1059 32.3625 57.4033 32.4869C57.7007 32.6113 57.9706 32.7932 58.1975 33.0222C58.6529 33.4819 58.9078 34.1033 58.9063 34.7504C58.9048 35.3975 58.647 36.0178 58.1894 36.4754C57.7318 36.933 57.1116 37.1908 56.4645 37.1923C55.8174 37.1938 55.196 36.939 54.7363 36.4835ZM30.6487 60.571C30.1896 60.1119 29.9316 59.4891 29.9316 58.8398C29.9316 58.1904 30.1896 57.5677 30.6487 57.1085C31.1079 56.6493 31.7306 56.3913 32.38 56.3913C33.0293 56.3913 33.6521 56.6493 34.1113 57.1085C34.5704 57.5677 34.8283 58.1904 34.8283 58.8398C34.8283 59.4891 34.5704 60.1119 34.1113 60.571C33.6521 61.0302 33.0293 61.288 32.38 61.288C31.7306 61.288 31.1079 61.0302 30.6487 60.571Z" fill="#FF5A67" stroke="#373748" stroke-width="0.833"/>
<path d="M44.3916 34.8997V58.6934M56.2879 46.7959H32.4941M35.9791 38.3834L52.8041 55.2084M52.8041 38.3834L35.9791 55.2084" stroke="#373748" stroke-linecap="round" stroke-linejoin="round"/>
<path d="M29.8071 46.796C29.8071 47.4451 29.5493 48.0676 29.0903 48.5266C28.6313 48.9856 28.0087 49.2435 27.3596 49.2435C26.7105 49.2435 26.088 48.9856 25.629 48.5266C25.17 48.0676 24.9121 47.4451 24.9121 46.796C24.9121 46.1469 25.17 45.5243 25.629 45.0653C26.088 44.6063 26.7105 44.3485 27.3596 44.3485C28.0087 44.3485 28.6313 44.6063 29.0903 45.0653C29.5493 45.5243 29.8071 46.1469 29.8071 46.796ZM63.8708 46.796C63.8782 47.122 63.8204 47.446 63.7008 47.7493C63.5811 48.0527 63.402 48.329 63.1741 48.5622C62.9462 48.7953 62.6739 48.9806 62.3734 49.1071C62.0728 49.2335 61.7501 49.2987 61.424 49.2987C61.0979 49.2987 60.7752 49.2335 60.4746 49.1071C60.1741 48.9806 59.9018 48.7953 59.6739 48.5622C59.4459 48.329 59.2669 48.0527 59.1473 47.7493C59.0276 47.446 58.9698 47.122 58.9771 46.796C58.9916 46.1566 59.2557 45.5483 59.713 45.1012C60.1703 44.6541 60.7845 44.4037 61.424 44.4037C62.0635 44.4037 62.6777 44.6541 63.135 45.1012C63.5923 45.5483 63.8564 46.1566 63.8708 46.796ZM44.3921 32.2109C44.0661 32.2182 43.742 32.1605 43.4386 32.0409C43.1353 31.9212 42.859 31.7421 42.6258 31.5141C42.3927 31.2862 42.2074 31.0139 42.081 30.7134C41.9545 30.4128 41.8893 30.0902 41.8893 29.7641C41.8893 29.438 41.9545 29.1152 42.081 28.8147C42.2074 28.5142 42.3927 28.2419 42.6258 28.0139C42.859 27.786 43.1353 27.607 43.4386 27.4873C43.742 27.3677 44.0661 27.3098 44.3921 27.3172C45.0315 27.3317 45.6398 27.5958 46.0869 28.0531C46.534 28.5104 46.7843 29.1246 46.7843 29.7641C46.7843 30.4037 46.534 31.0178 46.0869 31.4751C45.6398 31.9324 45.0315 32.1964 44.3921 32.2109ZM44.3921 66.276C43.743 66.276 43.1205 66.0181 42.6615 65.5591C42.2025 65.1001 41.9446 64.4776 41.9446 63.8284C41.9446 63.1793 42.2025 62.5568 42.6615 62.0978C43.1205 61.6388 43.743 61.3809 44.3921 61.3809C45.0412 61.3809 45.6637 61.6388 46.1227 62.0978C46.5817 62.5568 46.8396 63.1793 46.8396 63.8284C46.8396 64.4776 46.5817 65.1001 46.1227 65.5591C45.6637 66.0181 45.0412 66.276 44.3921 66.276ZM34.0796 36.4835C33.8524 36.7108 33.5825 36.8911 33.2856 37.0142C32.9886 37.1372 32.6703 37.2007 32.3488 37.2008C32.0274 37.2008 31.709 37.1376 31.412 37.0146C31.115 36.8917 30.8451 36.7114 30.6178 36.4841C30.3904 36.2568 30.21 35.987 30.0869 35.69C29.9639 35.393 29.9005 35.0747 29.9004 34.7533C29.9004 34.4318 29.9637 34.1134 30.0866 33.8164C30.2096 33.5194 30.3898 33.2495 30.6171 33.0222C31.0761 32.563 31.6987 32.305 32.3479 32.3049C32.9971 32.3047 33.6198 32.5626 34.079 33.0216C34.5381 33.4806 34.7962 34.1031 34.7963 34.7524C34.7964 35.4016 34.5386 36.0243 34.0796 36.4835ZM58.1659 60.571C57.9385 60.7983 57.6686 60.9784 57.3716 61.1014C57.0746 61.2244 56.7562 61.2876 56.4348 61.2876C56.1133 61.2875 55.795 61.2242 55.498 61.1011C55.2011 60.978 54.9312 60.7976 54.704 60.5702C54.4767 60.3429 54.2965 60.073 54.1735 59.776C54.0505 59.479 53.9873 59.1607 53.9873 58.8393C53.9874 58.5178 54.0507 58.1995 54.1738 57.9025C54.2969 57.6056 54.4773 57.3357 54.7046 57.1085C55.1638 56.6495 55.7865 56.3917 56.4357 56.3918C57.0849 56.3919 57.7075 56.6499 58.1665 57.1091C58.6255 57.5682 58.8833 58.191 58.8832 58.8402C58.8831 59.4894 58.625 60.112 58.1659 60.571Z" fill="#FF5A67" stroke="#373748" stroke-width="0.833"/>
</g>
</g>
<defs>
<clipPath id="clip0_74_37">
<rect width="57.6146" height="57.6146" fill="white" transform="translate(17.3301 9.2041)"/>
</clipPath>
<clipPath id="clip1_74_37">
<rect width="57.6146" height="57.6146" fill="white" transform="translate(18 9)"/>
</clipPath>
</defs>
</svg>
