<svg width="80" height="80" viewBox="0 0 80 80" fill="none" xmlns="http://www.w3.org/2000/svg">
<path fill-rule="evenodd" clip-rule="evenodd" d="M0 0H80V80H0V0Z" fill="white"/>
<path fill-rule="evenodd" clip-rule="evenodd" d="M77.0018 32.5498C77.3073 32.5498 77.6065 32.6278 77.8983 32.7847C78.186 32.9385 78.4227 33.1729 78.5793 33.4591C78.7416 33.7509 78.8234 34.056 78.8234 34.3735C78.8234 34.6872 78.7433 34.9894 78.5827 35.2786C78.4273 35.5635 78.1935 35.7978 77.9091 35.9539C77.6325 36.1112 77.3199 36.1941 77.0018 36.1946C76.6837 36.194 76.3711 36.1111 76.0945 35.9539C75.8096 35.7979 75.5753 35.5636 75.4193 35.2786C75.2617 35.0029 75.1785 34.691 75.1777 34.3735C75.1777 34.056 75.2595 33.7509 75.4226 33.4591C75.5799 33.1727 75.8173 32.9383 76.1057 32.7847C76.38 32.6326 76.6882 32.5518 77.0018 32.5498ZM77.0018 32.8515C76.7457 32.8515 76.4967 32.9175 76.2543 33.0487C76.0119 33.1798 75.8223 33.3678 75.6853 33.611C75.5484 33.8551 75.4803 34.1091 75.4803 34.3735C75.4803 34.6353 75.5475 34.8869 75.682 35.1276C75.8156 35.3683 76.0037 35.5563 76.2452 35.6908C76.4757 35.8221 76.7361 35.8916 77.0014 35.8925C77.2666 35.8915 77.5271 35.822 77.7576 35.6908C77.9948 35.5604 78.1897 35.365 78.3195 35.1276C78.4532 34.8869 78.5196 34.6353 78.5196 34.3735C78.5196 34.1087 78.4523 33.8547 78.3162 33.611C78.1801 33.3678 77.9904 33.1798 77.7472 33.0487C77.504 32.9175 77.2558 32.8515 77.0018 32.8515ZM76.2025 35.3803V33.4197H76.8752C77.1064 33.4197 77.2732 33.4371 77.3762 33.4733C77.4791 33.5094 77.5609 33.5729 77.6227 33.6629C77.6833 33.7538 77.7144 33.8493 77.7144 33.9505C77.7144 34.0941 77.6634 34.2187 77.5613 34.3245C77.4583 34.4311 77.323 34.4901 77.1537 34.5038C77.2234 34.5324 77.2795 34.5669 77.3205 34.6075C77.399 34.6851 77.4957 34.8146 77.6107 34.9968L77.8497 35.3803H77.4629L77.2886 35.0711C77.1516 34.8287 77.0421 34.6764 76.9578 34.6154C76.9001 34.5702 76.815 34.5478 76.7042 34.5478H76.5187V35.3803H76.2025ZM76.5187 34.2772H76.903C77.0861 34.2772 77.211 34.2489 77.2782 34.1946C77.3107 34.1686 77.3367 34.1354 77.3541 34.0977C77.3716 34.06 77.38 34.0187 77.3787 33.9771C77.3789 33.9215 77.3619 33.8671 77.3301 33.8215C77.2966 33.775 77.2501 33.7395 77.1965 33.7194C77.1388 33.6961 77.0333 33.6853 76.8777 33.6853H76.5187V34.2772ZM41.8618 32.4299H41.9224V36.62H37.6891V32.4299H41.8618ZM23.4377 41.2908L33.2287 41.898C33.6359 41.898 33.9687 42.2313 33.9687 42.638C33.9687 43.0447 33.6359 43.378 33.2287 43.378H19.2749V37.9236C19.7037 39.6078 21.1795 40.9853 23.4377 41.2908ZM19.2749 47.5918H33.5404C35.6197 47.5918 37.3658 46.0915 37.7505 44.1201C38.09 46.0848 39.8087 47.5918 41.8622 47.5918H50.9768C53.0129 47.5918 54.7208 46.1093 55.0794 44.1678V47.5918H69.6931C72.0521 47.5918 73.982 45.6619 73.982 43.302V42.6949C73.982 40.3358 72.0521 38.4059 69.6931 38.4059L68.8912 38.3706C64.3446 38.1706 59.8116 37.9415 55.2707 37.707C55.6243 39.4887 57.128 40.9721 59.4825 41.2908L69.381 41.898C69.5771 41.8985 69.7651 41.9767 69.9039 42.1153C70.0427 42.2539 70.121 42.4418 70.1218 42.638C70.121 42.8342 70.0427 43.0221 69.9039 43.1607C69.7651 43.2993 69.5771 43.3775 69.381 43.378H55.1491V37.7008L50.9162 37.4825V42.3383C50.9153 42.6658 50.7849 42.9795 50.5533 43.211C50.3218 43.4426 50.008 43.573 49.6806 43.5739H43.1584C42.8309 43.5731 42.5171 43.4427 42.2856 43.2112C42.054 42.9796 41.9236 42.6658 41.9228 42.3383V37.0185L37.6891 36.8002V41.6137C37.2052 39.7929 35.5243 38.4802 33.5404 38.4802L14.8959 37.2613V47.5922H19.2749V47.5918ZM37.0163 36.6221V32.4087H23.4377C21.4331 32.4087 19.7389 33.802 19.2749 35.6684V32.4294H11.1698L8.40772 36.62H19.15L37.0163 36.6221ZM13.108 37.1575L6.41308 47.5918H1.17578L8.2388 36.8765L13.108 37.1575ZM73.9816 36.6221V32.4087H59.482C57.1491 32.4087 55.2363 34.2967 55.1939 36.62L73.9816 36.6221ZM50.9158 36.62V32.4299H55.1487V36.62H50.9158Z" fill="black"/>
</svg>
