<svg width="50" height="50" viewBox="0 0 50 50" fill="none" xmlns="http://www.w3.org/2000/svg">
<path d="M17.1875 38.6719C16.875 38.6719 16.5625 38.5938 16.25 38.4375C15.3906 38.0469 14.8438 37.2656 14.8438 36.3281V14.8438C14.8438 13.5156 15.8594 12.5 17.1875 12.5H32.8125C34.1406 12.5 35.1562 13.5156 35.1562 14.8438V36.3281C35.1562 37.2656 34.6094 38.125 33.75 38.4375C32.8906 38.8281 31.9531 38.6719 31.25 38.0469L25.5469 32.8125C25.2344 32.5 24.7656 32.5 24.4531 32.8125L18.75 38.0469C18.3594 38.4375 17.7344 38.6719 17.1875 38.6719ZM25 31.0156C25.5469 31.0156 26.0938 31.25 26.5625 31.6406L32.2656 36.875C32.5781 37.1875 32.9688 37.0313 33.125 37.0313C33.2031 36.9531 33.5938 36.7969 33.5938 36.3281V14.8438C33.5938 14.375 33.2812 14.0625 32.8125 14.0625H17.1875C16.7188 14.0625 16.4062 14.375 16.4062 14.8438V36.3281C16.4062 36.7969 16.7969 37.0313 16.875 37.0313C16.9531 37.1094 17.3438 37.1875 17.7344 36.875L23.4375 31.6406C23.9062 31.25 24.4531 31.0156 25 31.0156Z" fill="black"/>
<path d="M18.75 21.875C18.2812 21.875 17.9688 21.5625 17.9688 21.0938V16.4062C17.9688 15.9375 18.2812 15.625 18.75 15.625H23.4375C23.9062 15.625 24.2188 15.9375 24.2188 16.4062C24.2188 16.875 23.9062 17.1875 23.4375 17.1875H19.5312V21.0938C19.5312 21.5625 19.2188 21.875 18.75 21.875Z" fill="#D62151"/>
</svg>
