<svg width="101" height="80" viewBox="0 0 101 80" fill="none" xmlns="http://www.w3.org/2000/svg">
<g clip-path="url(#clip0_84_2329)">
<path d="M20.158 2.81652C19.6502 1.52648 18.5464 -0.0279176 16.111 -8.94181e-05H3.16005L2.64201 3.37109H14.8152C15.5494 3.33134 16.5305 3.53409 16.9846 4.62932C17.3606 5.653 17.2557 7.26306 16.6929 8.85523C16.0956 10.5627 14.9073 12.3059 13.6167 12.3775H4.4545L5.49185 6.23938H2.15595L0.472656 15.7487H14.4596C16.9091 15.7904 18.7868 13.097 19.7372 10.5667C20.749 7.83155 20.9076 4.87183 20.158 2.81652ZM60.176 2.81652C59.672 1.52648 58.5682 -0.0279176 56.1289 -8.94181e-05H43.178L42.66 3.37109H54.8345C55.5712 3.33134 56.5523 3.53409 57.0038 4.62932C57.3824 5.653 57.2776 7.26306 56.7122 8.85523C56.1187 10.5627 54.9291 12.3059 53.636 12.3775H44.4738L45.5098 6.23938H42.1752L40.4919 15.7487H54.4789C56.9309 15.7904 58.8099 13.097 59.7565 10.5667C60.7708 7.83155 60.9294 4.87183 60.176 2.81652ZM36.4436 -8.94181e-05H36.4755C39.2154 0.184769 40.8846 2.32555 40.9434 5.7345C41.001 10.0002 38.4671 15.3014 35.1158 15.7487H25.4356C22.9337 15.7089 21.29 13.3614 21.2581 9.76163C21.1954 5.24552 23.7459 0.353726 28.123 -8.94181e-05H36.4436Z" fill="white"/>
<path d="M27.1509 12.9818H33.691C37.4912 12.4531 40.0072 3.06706 34.7271 2.71722H29.1259C23.705 3.16049 22.6651 12.8745 27.1509 12.9818Z" fill="white"/>
<path d="M81.4807 1.25823C81.2543 0.753348 80.7938 0.143116 79.8294 0H67.1048C63.4812 0.566502 60.9933 5.68887 61.0176 9.91279C61.0637 13.3078 62.5807 15.4864 65.0967 15.7488H74.8102C77.3351 15.7607 80.4766 12.1092 80.9294 6.84374L80.9946 6.14009H69.8562L69.3394 9.50928H76.3975C76.1967 10.4574 75.6403 12.0993 74.0657 12.3279H67.0076C65.5686 12.1728 64.7385 11.0041 64.7411 9.10776C64.7219 6.59527 66.2248 3.68326 68.4645 3.37118H81.5779L81.6418 2.91798C81.6954 2.63998 81.7087 2.34701 81.6808 2.06006C81.653 1.77312 81.5846 1.4993 81.4807 1.25823ZM85.3013 0C84.177 0.0139141 83.5554 1.38544 83.4556 2.66554L83.3904 3.3692H99.8703L100.454 0H85.3013ZM82.8723 6.03871L81.7723 12.628C81.6789 13.0375 81.5318 14.1089 81.9028 14.894C82.046 15.2637 82.3581 15.6911 82.9708 15.7488H97.7355L98.3495 12.3776H85.3013C85.199 12.2742 85.1555 12.2066 85.2361 11.9244L85.625 9.55897H98.8342L99.4175 6.03871H82.8723ZM41.203 23.3458C41.079 22.0538 40.4279 19.927 37.6088 20.0263H24.6579L24.1398 23.3458H36.6699C37.1419 23.3677 37.6395 23.5983 37.6407 24.2025C37.6241 24.9996 36.881 26.077 35.5046 26.065L23.6551 26.0154L21.9718 35.626H25.4675L26.5369 29.4382H36.0227C36.2555 29.4482 36.4103 29.5177 36.4755 29.639C36.5471 29.8079 36.5343 30.2055 36.4435 30.6964V30.7461L35.5699 35.626H39.2601L40.0698 31.1974C40.2373 30.3367 40.4305 29.315 39.9406 28.4801C40.7451 27.4088 41.4128 25.1984 41.203 23.3458ZM23.5246 19.925H5.29611L4.74609 23.3458H22.9106L23.5246 19.925ZM10.0889 35.622H13.4555L15.172 26.0114H11.8042L10.0889 35.622ZM44.7641 31.3464C44.4942 30.7799 44.4584 29.8775 44.6669 28.5775L46.0918 19.923H42.8211L41.331 28.2754H41.299C41.0163 30.3526 41.2286 32.233 41.9142 33.5588C42.619 34.972 43.7855 35.7234 45.2808 35.7731H56.6444L57.1957 32.3502H46.9961C45.827 32.3125 45.0979 31.9845 44.7641 31.3464Z" fill="white"/>
<path d="M56.0323 19.925L54.1533 30.8932H57.5211L59.3988 19.925H56.0323ZM62.6363 29.1818C62.5953 26.8999 63.9448 23.6003 67.0389 23.3438H77.8537L78.4037 20.0243H66.0028C61.627 20.3464 59.0765 25.2381 59.1392 29.7841C59.1712 33.354 60.8161 35.7035 63.3167 35.7731H75.7816L76.3649 32.3502H65.0333C63.5444 32.3005 62.6452 31.1178 62.6363 29.1818ZM95.9198 19.925H91.4199L86.7576 25.3574C86.2216 26.0273 86.0643 26.0253 85.3007 26.0114H82.1592C82.1733 25.9796 83.1633 20.0243 83.1633 20.0243H79.7634L77.076 35.622H80.5718C80.5718 35.622 81.6245 29.5018 81.6399 29.4839C81.6578 29.4561 85.0397 29.4342 85.0397 29.4342C85.9786 29.4899 86.1756 29.4978 86.6258 30.1876L89.9937 35.622H94.4948L89.4756 27.7208L95.9198 19.925ZM43.7273 74.7683C41.5451 72.5182 41.361 70.928 41.1371 67.9246C40.889 64.9529 40.77 53.0504 40.8135 51.9751C40.8289 50.9375 41.1857 49.9356 42.7565 49.7607C45.0294 49.4685 46.5234 49.3135 50.1701 49.2578C53.7977 49.2439 55.2929 49.3831 57.5518 49.6116C59.1379 49.7786 59.5025 50.7745 59.5268 51.824C59.5792 52.8854 59.5575 64.7442 59.3323 67.7238C59.1328 70.7273 58.9614 72.3651 56.8074 74.6669C55.3684 76.2094 51.306 79.1791 50.1701 80C49.065 79.2208 45.2072 76.3287 43.7273 74.7683Z" fill="white"/>
<path d="M50.171 78.6901C51.2084 77.8413 55.1173 74.9969 56.4527 73.5578C58.4161 71.4647 58.4967 69.8328 58.686 67.1175C58.8817 64.3944 58.8689 53.6209 58.8804 52.6767C58.8638 51.4523 58.7321 50.7109 56.9375 50.6135C54.7259 50.5459 53.6706 50.2815 50.139 50.361C46.6215 50.3491 45.6072 50.6154 43.3713 50.7645C41.6023 50.8599 41.4757 51.6033 41.4936 52.8278C41.4898 53.772 41.564 64.5911 41.7852 67.3183C41.9937 70.0236 42.0858 71.6058 44.0838 73.6572C45.4153 75.0724 49.1529 77.8632 50.171 78.6901Z" fill="white"/>
<path d="M49.9448 58.1628C49.9524 57.3459 49.7964 57.1193 49.6851 56.9046C49.5598 56.7039 49.3666 56.36 49.2643 56.3003C49.1991 56.2268 49.1389 56.3361 49.1031 56.2507C49.0507 56.1513 49.0954 56.1294 49.0711 55.9485C49.0366 55.8074 48.5774 55.1634 48.4559 55.0938C48.3114 55.0262 48.2448 55.0719 48.1643 54.9924C48.1118 54.9348 48.1707 54.9109 48.067 54.6903C47.9321 54.4792 47.7655 54.3234 47.5823 54.2371C47.4467 54.1755 47.4019 54.2689 47.2906 54.2371C47.1947 54.1755 47.187 54.0145 47.0642 53.9369C46.811 53.8435 46.4938 53.8197 46.3518 53.8873C46.2533 53.929 46.2494 54.0165 46.1254 54.0383C45.9834 54.0165 45.9693 53.931 45.867 53.9369C45.6432 53.9787 45.3528 54.2073 45.0906 54.4398C45.0394 54.5054 45.0151 54.6307 44.9601 54.6903C44.9 54.7738 44.79 54.7539 44.7337 54.7897C44.2784 55.3244 43.8895 56.2507 43.8601 56.4514C43.8256 56.5766 43.855 56.5985 43.9573 56.5528C44.0328 56.5091 44.5495 55.9445 45.0586 55.9485C45.5702 55.9903 46.0729 56.3361 46.6127 57.0557C47.2663 57.98 48.8678 61.0272 49.0085 61.2319C49.231 61.6453 49.726 61.381 49.8501 60.3772C49.9307 59.6417 49.9524 58.3358 49.9448 58.1628ZM42.5298 62.19C42.6181 61.6891 43.163 61.7129 43.2743 62.3907C43.6298 65.0245 44.4741 67.6224 45.4769 68.831C46.0115 69.4492 45.6982 69.7016 45.4769 69.7374C44.3551 70.0574 43.745 68.982 43.6644 68.8807C43.5876 68.7574 43.6912 68.6879 43.6644 68.5288C43.6298 68.4454 43.5352 68.505 43.47 68.4294C43.353 68.1873 43.245 67.9352 43.1463 67.6741C43.099 67.4376 43.218 67.3461 43.2116 67.2209C43.1886 67.0679 43.0632 67.1017 43.0172 66.9685C42.9443 66.8731 42.7895 66.0223 42.7908 65.913C42.7895 65.7937 42.8931 65.8156 42.856 65.6109C42.8342 65.4498 42.7383 65.4956 42.6948 65.4101C42.6309 65.1954 42.5234 64.3705 42.5644 64.2513C42.613 64.0922 42.6705 64.0584 42.6616 63.9511C42.6705 63.8756 42.5605 63.8398 42.5311 63.6987C42.4991 63.5198 42.5068 62.3808 42.5298 62.19Z" fill="white"/>
<path d="M42.9835 60.8801C43.0116 60.3156 43.2483 58.0018 43.8904 57.2564C44.4289 56.6104 45.0185 56.4534 45.7348 57.4075C46.6251 58.5306 47.1355 60.8622 47.3862 61.7348C47.6369 62.6571 47.6215 62.7942 47.775 62.7426C47.8671 62.7426 47.9144 62.7485 47.9375 62.8936C47.9336 63.0129 47.9042 63.0487 47.8402 63.0944C47.697 63.1123 47.6535 63.4144 47.743 63.7484C47.83 64.0584 47.8645 64.3268 47.9375 64.6051C48.0449 64.933 48.1229 65.0682 48.3583 65.1577C48.7548 65.3226 48.7919 65.3783 48.7791 66.2131C48.7919 66.4855 48.7343 66.551 48.6179 66.3145C48.4772 65.9726 48.1792 65.6665 48.0679 65.7102C47.9055 65.7659 47.9873 65.9885 48.0359 66.2131C48.0909 66.4775 48.7407 66.6763 48.9109 67.2209C49.2025 68.2386 49.3406 69.0218 49.3637 69.3319C49.3995 69.6638 49.1193 70.5146 49.2025 70.7909C49.2664 71.0652 49.2664 71.3633 49.7845 71.3435C49.9635 71.3633 50.0953 71.5701 50.0761 71.9477C50.0352 72.3731 49.9789 72.5957 49.7205 72.6017C48.9045 72.6852 48.8008 72.226 48.7497 71.6476C48.7318 71.3111 48.7101 70.9751 48.6845 70.6398C48.6026 70.1826 48.0769 69.4114 47.7776 68.5268C47.5908 68.014 47.2774 66.2867 47.1303 64.7541C47.0984 64.3347 46.8323 64.1737 46.6443 64.0008C46.5317 63.8756 46.0508 63.5516 45.9651 62.8936C45.905 62.4007 46.038 61.705 46.2567 61.6354C46.3015 61.3372 45.9587 60.4964 45.6095 61.385C45.4509 61.8004 45.5046 62.1403 45.4803 62.19C45.3946 62.2774 45.401 62.2556 45.4151 62.3907C45.401 62.4742 45.4445 62.5537 45.447 62.6432C45.465 62.7724 45.4675 63.3826 45.447 63.5496C45.4534 63.7205 45.3486 63.6688 45.3498 63.8517C45.3498 63.9909 45.4522 63.9352 45.447 64.1042C45.4522 64.3944 45.5046 65.3246 45.479 65.4121C45.4739 65.5095 45.3933 65.5771 45.447 65.7142C45.4816 65.8534 45.5481 65.8196 45.5762 65.917C45.6479 66.5173 45.8078 67.9683 45.0262 66.8711C44.269 65.8076 43.7522 63.7523 43.5693 62.2933C43.5066 61.86 43.3672 61.6275 43.2137 61.54C43.0398 61.4386 42.9438 61.5082 42.9835 60.8801ZM50.1708 72.7547C50.0352 72.7468 50.0633 72.8303 49.9776 72.8561C49.7841 72.8963 49.5879 72.8963 49.3944 72.8561C49.3342 72.88 49.1385 73.0668 49.3304 73.2576C50.0441 74.1024 50.7182 73.6532 50.9817 73.3073C51.125 73.0927 51.0636 72.8998 50.9497 72.8541C50.8103 72.8561 50.4036 72.9197 50.3345 72.8541C50.227 72.7985 50.213 72.7468 50.1708 72.7547ZM50.3332 58.1628C50.3396 57.3459 50.4944 57.1193 50.6248 56.9046C50.7323 56.7039 50.9242 56.36 51.0137 56.3003C51.093 56.2268 51.1531 56.3361 51.2081 56.2507C51.2427 56.1513 51.1992 56.1294 51.2401 55.9485C51.2567 55.8074 51.7159 55.1634 51.8553 55.0938C51.982 55.0262 52.0472 55.0719 52.115 54.9924C52.1815 54.9348 52.1227 54.9109 52.2122 54.6903C52.3299 54.4975 52.5525 54.3126 52.6983 54.2371C52.8479 54.1755 52.8914 54.2689 52.9899 54.2371C53.0999 54.1755 53.1076 54.0145 53.2176 53.9369C53.4849 53.8435 53.8034 53.8197 53.93 53.8873C54.0426 53.929 54.0464 54.0165 54.1897 54.0383C54.3138 54.0165 54.3278 53.931 54.4161 53.9369C54.654 53.9787 54.9444 54.2073 55.2258 54.4398C55.259 54.5054 55.2821 54.6307 55.355 54.6903C55.3972 54.7738 55.5072 54.7539 55.5494 54.7897C56.0188 55.3244 56.4077 56.2507 56.4563 56.4514C56.4729 56.5766 56.4435 56.5985 56.3591 56.5528C56.2657 56.5091 55.7476 55.9445 55.2258 55.9485C54.7269 55.9903 54.2255 56.3361 53.7036 57.0557C53.0334 57.98 51.4307 61.0272 51.3079 61.2319C51.0674 61.6453 50.5724 61.381 50.4662 60.3772C50.3614 59.6417 50.3396 58.3358 50.3332 58.1628ZM57.7482 62.19C57.674 61.6891 57.1291 61.7129 57.0357 62.3907C56.6622 65.0245 55.8193 67.6224 54.8024 68.831C54.2818 69.4492 54.5952 69.7016 54.8024 69.7374C55.9382 70.0574 56.5484 68.982 56.6149 68.8807C56.7057 68.7574 56.6021 68.6879 56.6469 68.5288C56.6635 68.4454 56.7581 68.505 56.8093 68.4294C56.9353 68.1976 57.0439 67.9442 57.1329 67.6741C57.1943 67.4376 57.0766 67.3461 57.1009 67.2209C57.1061 67.0679 57.2327 67.1017 57.2954 66.9685C57.3491 66.8731 57.5051 66.0223 57.4885 65.913C57.5051 65.7937 57.4015 65.8156 57.4246 65.6109C57.4604 65.4498 57.5563 65.4956 57.5857 65.4101C57.6637 65.1954 57.7712 64.3705 57.7149 64.2513C57.6816 64.0922 57.6228 64.0584 57.6177 63.9511C57.6215 63.8756 57.7328 63.8398 57.7469 63.6987C57.7929 63.5198 57.7865 62.3808 57.7482 62.19Z" fill="white"/>
<path d="M57.3271 60.8801C57.2811 60.3156 57.0457 58.0018 56.4215 57.2564C55.8638 56.6104 55.2754 56.4534 54.5438 57.4075C53.6689 58.5306 53.1585 60.8622 52.8925 61.7348C52.6558 62.6571 52.6712 62.7943 52.5036 62.7426C52.4256 62.7426 52.3783 62.7485 52.3744 62.8936C52.3591 63.0129 52.3885 63.0487 52.4716 63.0944C52.597 63.1123 52.6405 63.4144 52.5369 63.7484C52.464 64.0584 52.4307 64.3268 52.3425 64.6051C52.2491 64.933 52.1711 65.0682 51.9536 65.1577C51.5392 65.3226 51.5021 65.3783 51.5008 66.2131C51.5021 66.4855 51.5609 66.5511 51.662 66.3145C51.818 65.9726 52.1161 65.6665 52.2452 65.7102C52.3898 65.7659 52.3092 65.9885 52.2452 66.2131C52.2043 66.4775 51.5545 66.6763 51.4036 67.2209C51.0941 68.2386 50.9559 69.0218 50.9188 69.3319C50.8971 69.6638 51.1785 70.5146 51.1132 70.7909C51.0301 71.0652 51.0314 71.3633 50.53 71.3435C50.333 71.3633 50.2025 71.5701 50.2383 71.9477C50.2614 72.3731 50.3176 72.5957 50.5619 72.6017C51.3921 72.6852 51.4957 72.226 51.5341 71.6476C51.5635 71.3415 51.5878 70.9638 51.6313 70.6398C51.6952 70.1826 52.2197 69.4114 52.5369 68.5268C52.7044 68.014 53.0178 66.2867 53.1521 64.7541C53.1982 64.3347 53.4655 64.1737 53.6702 64.0008C53.7661 63.8756 54.2458 63.5516 54.3174 62.8936C54.3916 62.4007 54.2586 61.705 54.0258 61.6354C53.9951 61.3372 54.3379 60.4964 54.673 61.385C54.8457 61.8004 54.7919 62.1403 54.8354 62.19C54.9032 62.2774 54.8955 62.2556 54.8994 62.3907C54.8955 62.4742 54.8508 62.5537 54.8354 62.6432C54.8303 62.9453 54.8303 63.2475 54.8354 63.5496C54.8431 63.7205 54.948 63.6689 54.9326 63.8517C54.948 63.9909 54.8444 63.9352 54.8354 64.1042C54.8444 64.3944 54.7919 65.3246 54.8035 65.4121C54.8226 65.5095 54.9032 65.5771 54.8687 65.7142C54.815 65.8534 54.7484 65.8196 54.7382 65.917C54.6487 66.5173 54.4901 67.9683 55.2563 66.8711C56.0276 65.8076 56.5456 63.7523 56.7464 62.2933C56.7912 61.86 56.9306 61.6275 57.102 61.54C57.2529 61.4386 57.3489 61.5082 57.3271 60.8801Z" fill="white"/>
</g>
<defs>
<clipPath id="clip0_84_2329">
<rect width="100" height="80" fill="white" transform="translate(0.462891)"/>
</clipPath>
</defs>
</svg>
