<svg width="101" height="100" viewBox="0 0 101 100" fill="none" xmlns="http://www.w3.org/2000/svg">
<path d="M19.9432 3.52073C19.4354 1.90819 18.3315 -0.0348131 15.8961 -2.78492e-05H2.9452L2.42717 4.21395H14.6004C15.3346 4.16426 16.3157 4.41769 16.7697 5.78674C17.1458 7.06634 17.0409 9.07891 16.4781 11.0691C15.8808 13.2034 14.6925 15.3825 13.4019 15.4719H4.23966L5.27701 7.79931H1.94111L0.257812 19.6859H14.2448C16.6943 19.7381 18.572 16.3714 19.5224 13.2084C20.5341 9.78952 20.6927 6.08987 19.9432 3.52073ZM59.9612 3.52073C59.4572 1.90819 58.3533 -0.0348131 55.9141 -2.78492e-05H42.9632L42.4451 4.21395H54.6196C55.3564 4.16426 56.3375 4.41769 56.789 5.78674C57.1676 7.06634 57.0627 9.07891 56.4973 11.0691C55.9038 13.2034 54.7143 15.3825 53.4211 15.4719H44.2589L45.295 7.79931H41.9604L40.2771 19.6859H54.264C56.7161 19.7381 58.5951 16.3714 59.5416 13.2084C60.5559 9.78952 60.7146 6.08987 59.9612 3.52073ZM36.2287 -2.78492e-05H36.2607C39.0005 0.231045 40.6697 2.90702 40.7286 7.16821C40.7861 12.5003 38.2522 19.1269 34.901 19.6859H25.2208C22.7188 19.6362 21.0752 16.7018 21.0432 12.2021C20.9805 6.55698 23.5311 0.442241 27.9082 -2.78492e-05H36.2287Z" fill="white"/>
<path d="M26.9361 16.2273H33.4761C37.2763 15.5663 39.7923 3.83378 34.5122 3.39648H28.911C23.4902 3.95056 22.4503 16.0931 26.9361 16.2273Z" fill="white"/>
<path d="M81.2658 1.57279C81.0394 0.941685 80.5789 0.178895 79.6145 0H66.89C63.2663 0.708127 60.7785 7.11109 60.8028 12.391C60.8488 16.6348 62.3658 19.358 64.8818 19.6859H74.5953C77.1203 19.7008 80.2617 15.1365 80.7145 8.55468L80.7798 7.67511H69.6413L69.1246 11.8866H76.1827C75.9819 13.0718 75.4255 15.1241 73.8509 15.4098H66.7928C65.3538 15.216 64.5237 13.7551 64.5262 11.3847C64.507 8.24409 66.01 4.60407 68.2497 4.21398H81.363L81.427 3.64748C81.4805 3.29997 81.4939 2.93376 81.466 2.57508C81.4381 2.2164 81.3698 1.87413 81.2658 1.57279ZM85.0865 0C83.9622 0.0173926 83.3405 1.73181 83.2408 3.33193L83.1755 4.21149H99.6555L100.239 0H85.0865ZM82.6575 7.54839L81.5575 15.785C81.4641 16.2969 81.317 17.6361 81.6879 18.6175C81.8312 19.0797 82.1433 19.6139 82.756 19.6859H97.5206L98.1346 15.472H85.0865C84.9842 15.3428 84.9407 15.2583 85.0213 14.9055L85.4101 11.9487H98.6194L99.2027 7.54839H82.6575ZM40.9882 29.1823C40.8641 27.5673 40.2131 24.9087 37.3939 25.0329H24.443L23.925 29.1823H36.4551C36.9271 29.2096 37.4246 29.4979 37.4259 30.2532C37.4093 31.2495 36.6661 32.5962 35.2898 32.5813L23.4402 32.5192L21.7569 44.5325H25.2527L26.322 36.7978H35.8078C36.0406 36.8102 36.1954 36.8972 36.2606 37.0487C36.3323 37.2599 36.3195 37.7569 36.2287 38.3706V38.4327L35.355 44.5325H39.0452L39.8549 38.9967C40.0225 37.9208 40.2156 36.6437 39.7257 35.6002C40.5303 34.2609 41.198 31.498 40.9882 29.1823ZM23.3097 24.9062H5.08126L4.53125 29.1823H22.6958L23.3097 24.9062ZM9.87406 44.5275H13.2407L14.9572 32.5142H11.5893L9.87406 44.5275ZM44.5492 39.183C44.2793 38.4749 44.2435 37.3469 44.452 35.7219L45.8769 24.9037H42.6063L41.1161 35.3442H41.0841C40.8015 37.9407 41.0138 40.2912 41.6994 41.9485C42.4042 43.7151 43.5707 44.6543 45.066 44.7164H56.4295L56.9808 40.4378H46.7813C45.6122 40.3906 44.8831 39.9806 44.5492 39.183Z" fill="white"/>
<path d="M55.8174 24.9062L53.9384 38.6166H57.3063L59.184 24.9062H55.8174ZM62.4214 36.4773C62.3805 33.6249 63.7299 29.5004 66.8241 29.1799H77.6389L78.1889 25.0305H65.788C61.4122 25.433 58.8617 31.5477 58.9243 37.2302C58.9563 41.6926 60.6012 44.6295 63.1019 44.7164H75.5667L76.15 40.4378H64.8184C63.3296 40.3757 62.4304 38.8974 62.4214 36.4773ZM95.7049 24.9062H91.205L86.5427 31.6968C86.0068 32.5341 85.8494 32.5317 85.0858 32.5143H81.9443C81.9584 32.4745 82.9484 25.0305 82.9484 25.0305H79.5486L76.8612 44.5276H80.357C80.357 44.5276 81.4097 36.8773 81.425 36.855C81.4429 36.8202 84.8249 36.7929 84.8249 36.7929C85.7637 36.8624 85.9607 36.8724 86.411 37.7345L89.7788 44.5276H94.28L89.2608 34.6511L95.7049 24.9062ZM43.5125 93.4604C41.3303 90.6478 41.1461 88.6601 40.9223 84.9058C40.6741 81.1912 40.5552 66.3131 40.5987 64.9689C40.614 63.6719 40.9709 62.4196 42.5416 62.201C44.8146 61.8357 46.3086 61.6419 49.9553 61.5723C53.5828 61.5549 55.0781 61.7289 57.337 62.0146C58.9231 62.2233 59.2876 63.4681 59.3119 64.78C59.3644 66.1068 59.3426 80.9303 59.1175 84.6548C58.9179 88.4091 58.7465 90.4565 56.5925 93.3337C55.1536 95.2618 51.0911 98.9739 49.9553 100C48.8501 99.0261 44.9924 95.4109 43.5125 93.4604Z" fill="white"/>
<path d="M49.9562 98.3627C50.9935 97.3017 54.9025 93.7462 56.2379 91.9473C58.2013 89.3309 58.2819 87.291 58.4712 83.897C58.6669 80.493 58.6541 67.0262 58.6656 65.8459C58.649 64.3154 58.5172 63.3886 56.7226 63.2669C54.5111 63.1824 53.4558 62.8519 49.9242 62.9513C46.4067 62.9364 45.3923 63.2693 43.1565 63.4557C41.3875 63.575 41.2609 64.5042 41.2788 66.0348C41.2749 67.215 41.3491 80.739 41.5704 84.1479C41.7789 87.5295 41.871 89.5073 43.8689 92.0715C45.2005 93.8406 48.938 97.329 49.9562 98.3627Z" fill="white"/>
<path d="M49.7299 72.7036C49.7376 71.6824 49.5816 71.3992 49.4703 71.1308C49.3449 70.8799 49.1518 70.45 49.0494 70.3755C48.9842 70.2835 48.9241 70.4202 48.8883 70.3134C48.8358 70.1891 48.8806 70.1618 48.8563 69.9357C48.8218 69.7593 48.3626 68.9542 48.2411 68.8673C48.0965 68.7828 48.03 68.84 47.9494 68.7406C47.897 68.6685 47.9558 68.6387 47.8522 68.3629C47.7173 68.099 47.5507 67.9043 47.3674 67.7964C47.2318 67.7194 47.1871 67.8362 47.0758 67.7964C46.9799 67.7194 46.9722 67.5181 46.8494 67.4212C46.5961 67.3044 46.2789 67.2746 46.1369 67.3591C46.0384 67.4113 46.0346 67.5206 45.9105 67.5479C45.7686 67.5206 45.7545 67.4138 45.6522 67.4212C45.4283 67.4734 45.138 67.7591 44.8757 68.0498C44.8246 68.1318 44.8003 68.2884 44.7453 68.3629C44.6851 68.4673 44.5751 68.4424 44.5189 68.4871C44.0635 69.1555 43.6747 70.3134 43.6452 70.5643C43.6107 70.7208 43.6401 70.7482 43.7425 70.691C43.8179 70.6364 44.3347 69.9307 44.8438 69.9357C45.3554 69.9879 45.8581 70.4202 46.3979 71.3196C47.0515 72.475 48.6529 76.284 48.7936 76.5399C49.0162 77.0567 49.5112 76.7263 49.6353 75.4715C49.7159 74.5522 49.7376 72.9198 49.7299 72.7036ZM42.315 77.7375C42.4032 77.1114 42.9481 77.1412 43.0594 77.9885C43.415 81.2806 44.2592 84.5281 45.262 86.0387C45.7967 86.8115 45.4833 87.127 45.262 87.1718C44.1403 87.5718 43.5301 86.2276 43.4495 86.1009C43.3728 85.9468 43.4764 85.8599 43.4495 85.6611C43.415 85.5567 43.3204 85.6313 43.2551 85.5368C43.1382 85.2342 43.0301 84.919 42.9315 84.5927C42.8842 84.297 43.0031 84.1827 42.9967 84.0262C42.9737 83.8349 42.8484 83.8771 42.8023 83.7106C42.7294 83.5914 42.5746 82.5279 42.5759 82.3913C42.5746 82.2422 42.6782 82.2695 42.6411 82.0136C42.6194 81.8124 42.5235 81.8695 42.48 81.7627C42.416 81.4943 42.3086 80.4632 42.3495 80.3141C42.3981 80.1153 42.4557 80.0731 42.4467 79.9389C42.4557 79.8445 42.3457 79.7998 42.3163 79.6234C42.2843 79.3998 42.292 77.976 42.315 77.7375Z" fill="white"/>
<path d="M42.7687 76.1001C42.7968 75.3945 43.0334 72.5023 43.6755 71.5706C44.214 70.7631 44.8037 70.5668 45.52 71.7594C46.4103 73.1633 46.9206 76.0778 47.1713 77.1685C47.422 78.3214 47.4067 78.4928 47.5602 78.4282C47.6523 78.4282 47.6996 78.4357 47.7226 78.6171C47.7188 78.7662 47.6894 78.8109 47.6254 78.868C47.4821 78.8904 47.4387 79.2681 47.5282 79.6855C47.6152 80.0731 47.6497 80.4085 47.7226 80.7564C47.8301 81.1663 47.9081 81.3353 48.1434 81.4471C48.54 81.6533 48.577 81.7229 48.5643 82.7665C48.577 83.1069 48.5195 83.1888 48.4031 82.8932C48.2624 82.4658 47.9644 82.0832 47.8531 82.1378C47.6906 82.2074 47.7725 82.4857 47.8211 82.7665C47.8761 83.0969 48.5259 83.3454 48.696 84.0262C48.9876 85.2983 49.1258 86.2773 49.1488 86.6649C49.1846 87.0798 48.9045 88.1433 48.9876 88.4886C49.0516 88.8315 49.0516 89.2042 49.5696 89.1794C49.7487 89.2042 49.8805 89.4626 49.8613 89.9347C49.8203 90.4664 49.7641 90.7447 49.5057 90.7521C48.6896 90.8565 48.586 90.2825 48.5348 89.5595C48.517 89.1389 48.4952 88.7189 48.4696 88.2998C48.3877 87.7283 47.862 86.7643 47.5627 85.6586C47.376 85.0176 47.0626 82.8584 46.9155 80.9427C46.8835 80.4185 46.6175 80.2172 46.4294 80.001C46.3169 79.8445 45.8359 79.4395 45.7502 78.6171C45.6901 78.0009 45.8231 77.1313 46.0419 77.0443C46.0866 76.6716 45.7438 75.6206 45.3946 76.7312C45.236 77.2505 45.2898 77.6754 45.2655 77.7375C45.1798 77.8468 45.1862 77.8195 45.2002 77.9885C45.1862 78.0928 45.2296 78.1922 45.2322 78.304C45.2501 78.4655 45.2527 79.2283 45.2322 79.437C45.2386 79.6507 45.1337 79.5861 45.135 79.8147C45.135 79.9886 45.2373 79.919 45.2322 80.1302C45.2373 80.493 45.2898 81.6558 45.2642 81.7651C45.2591 81.8869 45.1785 81.9714 45.2322 82.1428C45.2667 82.3167 45.3333 82.2745 45.3614 82.3962C45.433 83.1466 45.5929 84.9604 44.8114 83.5889C44.0541 82.2596 43.5374 79.6905 43.3545 77.8667C43.2918 77.3251 43.1524 77.0344 42.9989 76.925C42.8249 76.7983 42.729 76.8853 42.7687 76.1001ZM49.9559 90.9435C49.8203 90.9335 49.8485 91.0379 49.7628 91.0702C49.5692 91.1204 49.3731 91.1204 49.1795 91.0702C49.1194 91.1 48.9237 91.3336 49.1156 91.5721C49.8293 92.6281 50.5034 92.0665 50.7669 91.6342C50.9101 91.3659 50.8487 91.1248 50.7349 91.0677C50.5955 91.0702 50.1887 91.1497 50.1196 91.0677C50.0122 90.9981 49.9981 90.9335 49.9559 90.9435ZM50.1184 72.7036C50.1248 71.6824 50.2795 71.3992 50.41 71.1308C50.5174 70.8799 50.7093 70.45 50.7989 70.3755C50.8782 70.2835 50.9383 70.4202 50.9933 70.3134C51.0278 70.1891 50.9843 70.1618 51.0252 69.9357C51.0419 69.7593 51.5011 68.9542 51.6405 68.8673C51.7671 68.7828 51.8324 68.84 51.9002 68.7406C51.9667 68.6685 51.9078 68.6387 51.9974 68.3629C52.115 68.1219 52.3376 67.8908 52.4834 67.7964C52.6331 67.7194 52.6766 67.8362 52.7751 67.7964C52.8851 67.7194 52.8927 67.5181 53.0027 67.4212C53.2701 67.3044 53.5886 67.2746 53.7152 67.3591C53.8278 67.4113 53.8316 67.5206 53.9749 67.5479C54.0989 67.5206 54.113 67.4138 54.2013 67.4212C54.4392 67.4734 54.7295 67.7591 55.0109 68.0498C55.0442 68.1318 55.0672 68.2884 55.1401 68.3629C55.1823 68.4673 55.2923 68.4424 55.3345 68.4871C55.804 69.1555 56.1928 70.3134 56.2414 70.5643C56.2581 70.7208 56.2286 70.7482 56.1442 70.691C56.0508 70.6364 55.5328 69.9307 55.0109 69.9357C54.5121 69.9879 54.0107 70.4202 53.4888 71.3196C52.8186 72.475 51.2158 76.284 51.093 76.5399C50.8526 77.0567 50.3576 76.7263 50.2514 75.4715C50.1465 74.5522 50.1248 72.9198 50.1184 72.7036ZM57.5333 77.7375C57.4591 77.1114 56.9142 77.1412 56.8209 77.9885C56.4474 81.2806 55.6044 84.5281 54.5875 86.0387C54.067 86.8115 54.3803 87.127 54.5875 87.1718C55.7234 87.5718 56.3335 86.2276 56.4 86.1009C56.4909 85.9468 56.3872 85.8599 56.432 85.6611C56.4486 85.5567 56.5433 85.6313 56.5945 85.5368C56.7204 85.247 56.829 84.9303 56.9181 84.5927C56.9795 84.297 56.8618 84.1827 56.8861 84.0262C56.8912 83.8349 57.0178 83.8771 57.0805 83.7106C57.1342 83.5914 57.2903 82.5279 57.2737 82.3913C57.2903 82.2422 57.1867 82.2695 57.2097 82.0136C57.2455 81.8123 57.3415 81.8695 57.3709 81.7627C57.4489 81.4943 57.5563 80.4632 57.5001 80.3141C57.4668 80.1153 57.408 80.0731 57.4029 79.9389C57.4067 79.8445 57.518 79.7998 57.532 79.6234C57.5781 79.3998 57.5717 77.976 57.5333 77.7375Z" fill="white"/>
<path d="M57.1123 76.1C57.0662 75.3943 56.8309 72.5022 56.2067 71.5704C55.649 70.7629 55.0606 70.5666 54.3289 71.7593C53.454 73.1631 52.9437 76.0776 52.6776 77.1684C52.441 78.3213 52.4563 78.4927 52.2888 78.4281C52.2108 78.4281 52.1634 78.4355 52.1596 78.6169C52.1442 78.766 52.1737 78.8107 52.2568 78.8679C52.3822 78.8902 52.4256 79.2679 52.322 79.6853C52.2491 80.0729 52.2159 80.4084 52.1276 80.7562C52.0342 81.1662 51.9562 81.3351 51.7388 81.4469C51.3243 81.6532 51.2872 81.7227 51.286 82.7663C51.2872 83.1067 51.3461 83.1887 51.4471 82.893C51.6032 82.4657 51.9012 82.083 52.0304 82.1377C52.1749 82.2072 52.0944 82.4855 52.0304 82.7663C51.9895 83.0968 51.3397 83.3452 51.1888 84.026C50.8792 85.2982 50.7411 86.2771 50.704 86.6647C50.6822 87.0797 50.9636 88.1431 50.8984 88.4885C50.8153 88.8313 50.8165 89.204 50.3151 89.1792C50.1181 89.204 49.9877 89.4625 50.0235 89.9345C50.0465 90.4663 50.1028 90.7445 50.3471 90.752C51.1772 90.8563 51.2808 90.2824 51.3192 89.5593C51.3486 89.1767 51.3729 88.7046 51.4164 88.2996C51.4804 87.7282 52.0048 86.7641 52.322 85.6584C52.4896 85.0174 52.803 82.8582 52.9373 80.9426C52.9833 80.4183 53.2507 80.217 53.4553 80.0009C53.5513 79.8443 54.0309 79.4393 54.1025 78.6169C54.1767 78.0007 54.0437 77.1311 53.8109 77.0441C53.7802 76.6714 54.123 75.6204 54.4581 76.7311C54.6308 77.2504 54.5771 77.6752 54.6206 77.7374C54.6884 77.8467 54.6807 77.8193 54.6845 77.9883C54.6807 78.0927 54.6359 78.192 54.6206 78.3039C54.6155 78.6815 54.6155 79.0593 54.6206 79.4369C54.6283 79.6505 54.7331 79.5859 54.7178 79.8145C54.7331 79.9885 54.6295 79.9189 54.6206 80.1301C54.6295 80.4928 54.5771 81.6557 54.5886 81.765C54.6078 81.8867 54.6884 81.9712 54.6538 82.1427C54.6001 82.3166 54.5336 82.2743 54.5234 82.3961C54.4338 83.1465 54.2752 84.9602 55.0414 83.5887C55.8127 82.2594 56.3307 79.6903 56.5316 77.8666C56.5763 77.3249 56.7158 77.0342 56.8872 76.9249C57.0381 76.7982 57.134 76.8851 57.1123 76.1Z" fill="white"/>
</svg>
