<svg width="100" height="80" viewBox="0 0 100 80" fill="none" xmlns="http://www.w3.org/2000/svg">
<path d="M19.6951 2.81649C19.1873 1.52645 18.0835 -0.0279481 15.6481 -0.000119936H2.69716L2.17912 3.37106H14.3523C15.0865 3.33131 16.0676 3.53406 16.5217 4.62929C16.8977 5.65297 16.7929 7.26303 16.2301 8.8552C15.6327 10.5627 14.4444 12.3059 13.1538 12.3774H3.99161L5.02896 6.23935H1.69306L0.00976562 15.7486H13.9967C16.4462 15.7904 18.3239 13.097 19.2743 10.5666C20.2861 7.83152 20.4447 4.8718 19.6951 2.81649ZM59.7131 2.81649C59.2091 1.52645 58.1053 -0.0279481 55.666 -0.000119936H42.7151L42.1971 3.37106H54.3716C55.1083 3.33131 56.0894 3.53406 56.5409 4.62929C56.9196 5.65297 56.8147 7.26303 56.2493 8.8552C55.6558 10.5627 54.4662 12.3059 53.1731 12.3774H44.0109L45.0469 6.23935H41.7123L40.029 15.7486H54.016C56.468 15.7904 58.347 13.097 59.2936 10.5666C60.3079 7.83152 60.4665 4.8718 59.7131 2.81649ZM35.9807 -0.000119936H36.0126C38.7525 0.184739 40.4217 2.32552 40.4805 5.73447C40.5381 10.0001 38.0042 15.3014 34.653 15.7486H24.9727C22.4708 15.7089 20.8271 13.3614 20.7952 9.7616C20.7325 5.24549 23.283 0.353695 27.6601 -0.000119936H35.9807Z" fill="black"/>
<path d="M26.688 12.9818H33.2281C37.0283 12.453 39.5443 3.067 34.2642 2.71716H28.663C23.2421 3.16043 22.2022 12.8744 26.688 12.9818Z" fill="white"/>
<path d="M81.0178 1.25823C80.7914 0.753348 80.3309 0.143116 79.3665 0H66.642C63.0183 0.566502 60.5304 5.68887 60.5547 9.91279C60.6008 13.3078 62.1178 15.4864 64.6338 15.7488H74.3473C76.8722 15.7607 80.0137 12.1092 80.4665 6.84374L80.5317 6.14009H69.3933L68.8765 9.50928H75.9346C75.7338 10.4574 75.1774 12.0993 73.6028 12.3279H66.5447C65.1058 12.1728 64.2756 11.0041 64.2782 9.10776C64.259 6.59527 65.7619 3.68326 68.0016 3.37118H81.115L81.1789 2.91798C81.2325 2.63998 81.2458 2.34701 81.218 2.06006C81.1901 1.77312 81.1217 1.4993 81.0178 1.25823ZM84.8385 0C83.7141 0.0139141 83.0925 1.38544 82.9927 2.66554L82.9275 3.3692H99.4074L99.9907 0H84.8385ZM82.4094 6.03871L81.3094 12.628C81.216 13.0375 81.0689 14.1089 81.4399 14.894C81.5831 15.2637 81.8952 15.6911 82.5079 15.7488H97.2726L97.8866 12.3776H84.8385C84.7361 12.2742 84.6926 12.2066 84.7732 11.9244L85.1621 9.55897H98.3713L98.9546 6.03871H82.4094ZM40.7402 23.3458C40.6161 22.0538 39.965 19.927 37.1459 20.0263H24.195L23.6769 23.3458H36.207C36.679 23.3677 37.1766 23.5983 37.1779 24.2025C37.1612 24.9996 36.4181 26.077 35.0418 26.065L23.1922 26.0154L21.5089 35.626H25.0046L26.074 29.4382H35.5598C35.7926 29.4482 35.9474 29.5177 36.0126 29.639C36.0842 29.8079 36.0714 30.2055 35.9806 30.6964V30.7461L35.107 35.626H38.7972L39.6069 31.1974C39.7744 30.3367 39.9676 29.315 39.4777 28.4801C40.2822 27.4088 40.9499 25.1984 40.7402 23.3458ZM23.0617 19.925H4.83322L4.2832 23.3458H22.4477L23.0617 19.925ZM9.62601 35.622H12.9926L14.7092 26.0114H11.3413L9.62601 35.622ZM44.3012 31.3464C44.0313 30.7799 43.9955 29.8775 44.204 28.5775L45.6289 19.923H42.3582L40.8681 28.2754H40.8361C40.5534 30.3526 40.7657 32.233 41.4513 33.5588C42.1561 34.972 43.3227 35.7234 44.8179 35.7731H56.1815L56.7328 32.3502H46.5332C45.3641 32.3125 44.635 31.9845 44.3012 31.3464Z" fill="black"/>
<path d="M55.5694 19.9249L53.6904 30.8932H57.0582L58.936 19.9249H55.5694ZM62.1734 29.1818C62.1324 26.8999 63.4819 23.6002 66.576 23.3438H77.3908L77.9408 20.0243H65.54C61.1642 20.3463 58.6136 25.2381 58.6763 29.784C58.7083 33.354 60.3532 35.7035 62.8538 35.7731H75.3187L75.902 32.3502H64.5704C63.0815 32.3005 62.1823 31.1178 62.1734 29.1818ZM95.4569 19.9249H90.957L86.2947 25.3574C85.7587 26.0272 85.6014 26.0253 84.8378 26.0113H81.6963C81.7104 25.9795 82.7004 20.0243 82.7004 20.0243H79.3005L76.6131 35.622H80.1089C80.1089 35.622 81.1616 29.5018 81.177 29.4839C81.1949 29.4561 84.5768 29.4342 84.5768 29.4342C85.5157 29.4899 85.7127 29.4978 86.1629 30.1876L89.5308 35.622H94.032L89.0128 27.7208L95.4569 19.9249ZM43.2644 74.7683C41.0823 72.5182 40.8981 70.928 40.6742 67.9245C40.4261 64.9529 40.3071 53.0504 40.3506 51.975C40.366 50.9374 40.7228 49.9356 42.2936 49.7607C44.5665 49.4685 46.0605 49.3135 49.7072 49.2578C53.3348 49.2439 54.83 49.383 57.0889 49.6116C58.675 49.7786 59.0396 50.7744 59.0639 51.824C59.1163 52.8854 59.0946 64.7442 58.8694 67.7238C58.6699 70.7272 58.4985 72.3651 56.3445 74.6669C54.9055 76.2094 50.8431 79.179 49.7072 80C48.6021 79.2208 44.7443 76.3286 43.2644 74.7683Z" fill="black"/>
<path d="M49.7081 78.6901C50.7455 77.8414 54.6544 74.997 55.9898 73.5578C57.9532 71.4648 58.0338 69.8328 58.2231 67.1176C58.4188 64.3944 58.406 53.6209 58.4175 52.6768C58.4009 51.4523 58.2692 50.7109 56.4746 50.6135C54.263 50.5459 53.2078 50.2816 49.6762 50.3611C46.1586 50.3492 45.1443 50.6155 42.9084 50.7646C41.1394 50.86 41.0128 51.6034 41.0307 52.8278C41.0269 53.772 41.1011 64.5912 41.3223 67.3184C41.5308 70.0237 41.6229 71.6059 43.6209 73.6572C44.9524 75.0725 48.69 77.8633 49.7081 78.6901Z" fill="white"/>
<path d="M49.4819 58.1629C49.4896 57.3459 49.3335 57.1193 49.2222 56.9046C49.0969 56.7039 48.9037 56.36 48.8014 56.3004C48.7362 56.2268 48.676 56.3362 48.6402 56.2507C48.5878 56.1513 48.6326 56.1294 48.6083 55.9486C48.5737 55.8074 48.1145 55.1634 47.993 55.0938C47.8485 55.0262 47.782 55.072 47.7014 54.9925C47.6489 54.9348 47.7078 54.911 47.6042 54.6903C47.4692 54.4792 47.3026 54.3235 47.1194 54.2371C46.9838 54.1755 46.939 54.2689 46.8277 54.2371C46.7318 54.1755 46.7241 54.0145 46.6013 53.937C46.3481 53.8436 46.0309 53.8197 45.8889 53.8873C45.7904 53.929 45.7866 54.0165 45.6625 54.0383C45.5205 54.0165 45.5064 53.931 45.4041 53.937C45.1803 53.9787 44.8899 54.2073 44.6277 54.4399C44.5765 54.5055 44.5522 54.6307 44.4972 54.6903C44.4371 54.7738 44.3271 54.7539 44.2708 54.7897C43.8155 55.3244 43.4266 56.2507 43.3972 56.4514C43.3627 56.5767 43.3921 56.5985 43.4944 56.5528C43.5699 56.5091 44.0866 55.9446 44.5957 55.9486C45.1074 55.9903 45.61 56.3362 46.1498 57.0557C46.8034 57.98 48.4049 61.0272 48.5456 61.2319C48.7681 61.6454 49.2632 61.381 49.3872 60.3772C49.4678 59.6417 49.4896 58.3358 49.4819 58.1629ZM42.0669 62.19C42.1552 61.6891 42.7001 61.713 42.8114 62.3908C43.167 65.0245 44.0112 67.6225 45.014 68.831C45.5486 69.4492 45.2353 69.7016 45.014 69.7374C43.8922 70.0574 43.2821 68.9821 43.2015 68.8807C43.1247 68.7575 43.2284 68.6879 43.2015 68.5289C43.167 68.4454 43.0723 68.505 43.0071 68.4295C42.8901 68.1874 42.7821 67.9352 42.6835 67.6741C42.6361 67.4376 42.7551 67.3462 42.7487 67.2209C42.7257 67.0679 42.6003 67.1017 42.5543 66.9685C42.4814 66.8731 42.3266 66.0223 42.3279 65.913C42.3266 65.7938 42.4302 65.8156 42.3931 65.6109C42.3714 65.4499 42.2754 65.4956 42.2319 65.4101C42.168 65.1955 42.0605 64.3705 42.1015 64.2513C42.1501 64.0923 42.2076 64.0585 42.1987 63.9511C42.2076 63.8756 42.0976 63.8398 42.0682 63.6987C42.0362 63.5198 42.0439 62.3808 42.0669 62.19Z" fill="black"/>
<path d="M42.5206 60.8801C42.5487 60.3156 42.7854 58.0019 43.4275 57.2565C43.966 56.6105 44.5557 56.4534 45.272 57.4075C46.1622 58.5306 46.6726 60.8622 46.9233 61.7348C47.174 62.6571 47.1586 62.7943 47.3121 62.7426C47.4042 62.7426 47.4515 62.7486 47.4746 62.8937C47.4707 63.0129 47.4413 63.0487 47.3774 63.0944C47.2341 63.1123 47.1906 63.4144 47.2801 63.7484C47.3671 64.0585 47.4017 64.3268 47.4746 64.6051C47.582 64.9331 47.66 65.0682 47.8954 65.1577C48.2919 65.3227 48.329 65.3783 48.3162 66.2132C48.329 66.4855 48.2714 66.5511 48.155 66.3145C48.0143 65.9727 47.7163 65.6665 47.605 65.7103C47.4426 65.7659 47.5245 65.9886 47.5731 66.2132C47.6281 66.4775 48.2778 66.6763 48.448 67.2209C48.7396 68.2387 48.8777 69.0218 48.9008 69.3319C48.9366 69.6639 48.6565 70.5146 48.7396 70.7909C48.8036 71.0652 48.8035 71.3634 49.3216 71.3435C49.5007 71.3634 49.6324 71.5701 49.6132 71.9478C49.5723 72.3731 49.516 72.5958 49.2576 72.6017C48.4416 72.6852 48.338 72.226 48.2868 71.6476C48.2689 71.3111 48.2472 70.9751 48.2216 70.6398C48.1397 70.1827 47.614 69.4114 47.3147 68.5269C47.1279 68.014 46.8145 66.2867 46.6675 64.7542C46.6355 64.3348 46.3694 64.1738 46.1814 64.0008C46.0688 63.8756 45.5879 63.5516 45.5022 62.8937C45.4421 62.4007 45.5751 61.705 45.7938 61.6354C45.8386 61.3373 45.4958 60.4965 45.1466 61.385C44.988 61.8004 45.0417 62.1403 45.0174 62.19C44.9317 62.2775 44.9381 62.2556 44.9522 62.3908C44.9381 62.4743 44.9816 62.5538 44.9842 62.6432C45.0021 62.7724 45.0046 63.3826 44.9842 63.5496C44.9905 63.7206 44.8857 63.6689 44.8869 63.8518C44.8869 63.9909 44.9893 63.9352 44.9842 64.1042C44.9893 64.3944 45.0417 65.3247 45.0161 65.4121C45.011 65.5095 44.9304 65.5771 44.9842 65.7143C45.0187 65.8534 45.0852 65.8196 45.1133 65.917C45.185 66.5173 45.3449 67.9683 44.5633 66.8711C43.8061 65.8077 43.2893 63.7524 43.1064 62.2934C43.0438 61.86 42.9043 61.6275 42.7508 61.54C42.5769 61.4386 42.481 61.5082 42.5206 60.8801ZM49.7079 72.7548C49.5723 72.7468 49.6004 72.8303 49.5147 72.8561C49.3212 72.8963 49.125 72.8963 48.9315 72.8561C48.8713 72.88 48.6756 73.0668 48.8675 73.2577C49.5812 74.1024 50.2553 73.6532 50.5188 73.3074C50.6621 73.0927 50.6007 72.8999 50.4868 72.8542C50.3474 72.8561 49.9407 72.9198 49.8716 72.8542C49.7642 72.7985 49.7501 72.7468 49.7079 72.7548ZM49.8703 58.1629C49.8767 57.3459 50.0315 57.1193 50.162 56.9046C50.2694 56.7039 50.4613 56.36 50.5508 56.3004C50.6301 56.2268 50.6902 56.3362 50.7452 56.2507C50.7798 56.1513 50.7363 56.1294 50.7772 55.9486C50.7938 55.8074 51.253 55.1634 51.3925 55.0938C51.5191 55.0262 51.5843 55.072 51.6521 54.9925C51.7186 54.9348 51.6598 54.911 51.7493 54.6903C51.867 54.4975 52.0896 54.3127 52.2354 54.2371C52.385 54.1755 52.4285 54.2689 52.527 54.2371C52.637 54.1755 52.6447 54.0145 52.7547 53.937C53.022 53.8436 53.3405 53.8197 53.4672 53.8873C53.5797 53.929 53.5836 54.0165 53.7268 54.0383C53.8509 54.0165 53.865 53.931 53.9532 53.937C54.1911 53.9787 54.4815 54.2073 54.7629 54.4399C54.7961 54.5055 54.8192 54.6307 54.8921 54.6903C54.9343 54.7738 55.0443 54.7539 55.0865 54.7897C55.5559 55.3244 55.9448 56.2507 55.9934 56.4514C56.01 56.5767 55.9806 56.5985 55.8962 56.5528C55.8028 56.5091 55.2848 55.9446 54.7629 55.9486C54.264 55.9903 53.7626 56.3362 53.2408 57.0557C52.5705 57.98 50.9678 61.0272 50.845 61.2319C50.6045 61.6454 50.1095 61.381 50.0033 60.3772C49.8985 59.6417 49.8767 58.3358 49.8703 58.1629ZM57.2853 62.19C57.2111 61.6891 56.6662 61.713 56.5728 62.3908C56.1993 65.0245 55.3564 67.6225 54.3395 68.831C53.8189 69.4492 54.1323 69.7016 54.3395 69.7374C55.4753 70.0574 56.0855 68.9821 56.152 68.8807C56.2428 68.7575 56.1392 68.6879 56.184 68.5289C56.2006 68.4454 56.2952 68.505 56.3464 68.4295C56.4724 68.1976 56.581 67.9442 56.67 67.6741C56.7314 67.4376 56.6137 67.3462 56.638 67.2209C56.6432 67.0679 56.7698 67.1017 56.8325 66.9685C56.8862 66.8731 57.0422 66.0223 57.0256 65.913C57.0422 65.7938 56.9386 65.8156 56.9617 65.6109C56.9975 65.4499 57.0934 65.4956 57.1228 65.4101C57.2009 65.1955 57.3083 64.3705 57.252 64.2513C57.2188 64.0923 57.1599 64.0585 57.1548 63.9511C57.1586 63.8756 57.2699 63.8398 57.284 63.6987C57.33 63.5198 57.3236 62.3808 57.2853 62.19Z" fill="black"/>
<path d="M56.8642 60.8801C56.8182 60.3156 56.5828 58.0018 55.9586 57.2564C55.4009 56.6104 54.8125 56.4534 54.0809 57.4075C53.206 58.5306 52.6956 60.8622 52.4296 61.7348C52.1929 62.6571 52.2083 62.7943 52.0407 62.7426C51.9627 62.7426 51.9154 62.7485 51.9115 62.8936C51.8962 63.0129 51.9256 63.0487 52.0088 63.0944C52.1341 63.1123 52.1776 63.4144 52.074 63.7484C52.0011 64.0584 51.9678 64.3268 51.8796 64.6051C51.7862 64.933 51.7082 65.0682 51.4907 65.1577C51.0763 65.3226 51.0392 65.3783 51.0379 66.2131C51.0392 66.4855 51.098 66.5511 51.1991 66.3145C51.3551 65.9726 51.6532 65.6665 51.7824 65.7102C51.9269 65.7659 51.8463 65.9885 51.7824 66.2131C51.7414 66.4775 51.0916 66.6763 50.9407 67.2209C50.6312 68.2386 50.493 69.0218 50.4559 69.3319C50.4342 69.6638 50.7156 70.5146 50.6504 70.7909C50.5672 71.0652 50.5685 71.3633 50.0671 71.3435C49.8701 71.3633 49.7396 71.5701 49.7754 71.9477C49.7985 72.3731 49.8548 72.5957 50.0991 72.6017C50.9292 72.6852 51.0328 72.226 51.0712 71.6476C51.1006 71.3415 51.1249 70.9638 51.1684 70.6398C51.2323 70.1826 51.7568 69.4114 52.074 68.5268C52.2416 68.014 52.5549 66.2867 52.6892 64.7541C52.7353 64.3347 53.0026 64.1737 53.2073 64.0008C53.3032 63.8756 53.7829 63.5516 53.8545 62.8936C53.9287 62.4007 53.7957 61.705 53.5629 61.6354C53.5322 61.3372 53.875 60.4964 54.2101 61.385C54.3828 61.8004 54.329 62.1403 54.3725 62.19C54.4403 62.2774 54.4327 62.2556 54.4365 62.3907C54.4327 62.4742 54.3879 62.5537 54.3725 62.6432C54.3674 62.9453 54.3674 63.2475 54.3725 63.5496C54.3802 63.7205 54.4851 63.6689 54.4697 63.8517C54.4851 63.9909 54.3815 63.9352 54.3725 64.1042C54.3815 64.3944 54.3291 65.3246 54.3406 65.4121C54.3597 65.5095 54.4403 65.5771 54.4058 65.7142C54.3521 65.8534 54.2856 65.8196 54.2753 65.917C54.1858 66.5173 54.0272 67.9683 54.7934 66.8711C55.5647 65.8076 56.0827 63.7523 56.2835 62.2933C56.3283 61.86 56.4677 61.6275 56.6391 61.54C56.79 61.4386 56.886 61.5082 56.8642 60.8801Z" fill="black"/>
</svg>
