<svg width="50" height="50" viewBox="0 0 50 50" fill="none" xmlns="http://www.w3.org/2000/svg">
<path d="M39 40H11C9.67392 40 8.40215 39.4732 7.46447 38.5355C6.52678 37.5979 6 36.3261 6 35V19C6 17.6739 6.52678 16.4021 7.46447 15.4645C8.40215 14.5268 9.67392 14 11 14H15C15.2652 14 15.5196 14.1054 15.7071 14.2929C15.8946 14.4804 16 14.7348 16 15C16 15.2652 15.8946 15.5196 15.7071 15.7071C15.5196 15.8946 15.2652 16 15 16H11C10.2044 16 9.44129 16.3161 8.87868 16.8787C8.31607 17.4413 8 18.2044 8 19V35C8 35.7956 8.31607 36.5587 8.87868 37.1213C9.44129 37.6839 10.2044 38 11 38H39C39.7957 38 40.5587 37.6839 41.1213 37.1213C41.6839 36.5587 42 35.7956 42 35V19C42 18.2044 41.6839 17.4413 41.1213 16.8787C40.5587 16.3161 39.7957 16 39 16H35C34.7348 16 34.4804 15.8946 34.2929 15.7071C34.1054 15.5196 34 15.2652 34 15C34 14.7348 34.1054 14.4804 34.2929 14.2929C34.4804 14.1054 34.7348 14 35 14H39C40.3261 14 41.5979 14.5268 42.5355 15.4645C43.4732 16.4021 44 17.6739 44 19V35C44 36.3261 43.4732 37.5979 42.5355 38.5355C41.5979 39.4732 40.3261 40 39 40Z" fill="black"/>
<path d="M24.9998 34C24.8684 34.0002 24.7383 33.9746 24.6168 33.9245C24.4953 33.8744 24.3849 33.8008 24.2918 33.708L14.2918 23.708C14.1516 23.5681 14.0561 23.3898 14.0174 23.1956C13.9786 23.0014 13.9984 22.8 14.0743 22.6171C14.1501 22.4341 14.2786 22.2778 14.4433 22.168C14.6081 22.0581 14.8018 21.9996 14.9998 22H19.9998V11C19.9998 10.7348 20.1052 10.4804 20.2927 10.2929C20.4803 10.1054 20.7346 10 20.9998 10H28.9998C29.2651 10 29.5194 10.1054 29.7069 10.2929C29.8945 10.4804 29.9998 10.7348 29.9998 11V22H34.9998C35.1979 21.9996 35.3916 22.0581 35.5563 22.168C35.7211 22.2778 35.8496 22.4341 35.9254 22.6171C36.0012 22.8 36.021 23.0014 35.9823 23.1956C35.9436 23.3898 35.848 23.5681 35.7078 23.708L25.7078 33.708C25.6148 33.8008 25.5044 33.8744 25.3829 33.9245C25.2614 33.9746 25.1312 34.0002 24.9998 34ZM17.4138 24L24.9998 31.586L32.5858 24H28.9998C28.7346 24 28.4803 23.8946 28.2927 23.7071C28.1052 23.5196 27.9998 23.2652 27.9998 23V12H21.9998V23C21.9998 23.2652 21.8945 23.5196 21.7069 23.7071C21.5194 23.8946 21.2651 24 20.9998 24H17.4138Z" fill="#D62151"/>
</svg>
