<svg width="50" height="50" viewBox="0 0 50 50" fill="none" xmlns="http://www.w3.org/2000/svg">
<path d="M39.0625 40.625H11.3281C11.1209 40.625 10.9222 40.5427 10.7757 40.3962C10.6292 40.2497 10.5469 40.051 10.5469 39.8438C10.5469 39.6365 10.6292 39.4378 10.7757 39.2913C10.9222 39.1448 11.1209 39.0625 11.3281 39.0625C11.8459 39.0619 12.3424 38.8559 12.7085 38.4898C13.0747 38.1236 13.2806 37.6272 13.2812 37.1094V21.875C13.2825 20.8394 13.6944 19.8465 14.4267 19.1142C15.159 18.3819 16.1519 17.97 17.1875 17.9688H39.0625C40.0981 17.97 41.091 18.3819 41.8233 19.1142C42.5556 19.8465 42.9675 20.8394 42.9688 21.875V36.7188C42.9675 37.7544 42.5556 38.7472 41.8233 39.4795C41.091 40.2118 40.0981 40.6238 39.0625 40.625ZM14.2502 39.0625H39.0625C39.6839 39.0618 40.2796 38.8147 40.719 38.3753C41.1584 37.9359 41.4056 37.3401 41.4062 36.7188V21.875C41.4056 21.2536 41.1584 20.6579 40.719 20.2185C40.2796 19.7791 39.6839 19.5319 39.0625 19.5312H17.1875C16.5661 19.5319 15.9704 19.7791 15.531 20.2185C15.0916 20.6579 14.8444 21.2536 14.8438 21.875V37.1094C14.8445 37.805 14.6379 38.485 14.2502 39.0625Z" fill="black"/>
<path d="M11.3281 40.625C10.396 40.624 9.50241 40.2533 8.84332 39.5942C8.18424 38.9351 7.81352 38.0415 7.8125 37.1094V13.2812C7.81372 12.2456 8.22566 11.2528 8.95796 10.5205C9.69026 9.78816 10.6831 9.37622 11.7188 9.375H18.75C19.7856 9.37622 20.7785 9.78816 21.5108 10.5205C22.2431 11.2528 22.655 12.2456 22.6562 13.2812H34.375C35.4106 13.2825 36.4035 13.6944 37.1358 14.4267C37.8681 15.159 38.28 16.1519 38.2812 17.1875V18.75C38.2812 18.9572 38.1989 19.1559 38.0524 19.3024C37.9059 19.4489 37.7072 19.5312 37.5 19.5312C37.2928 19.5312 37.0941 19.4489 36.9476 19.3024C36.8011 19.1559 36.7188 18.9572 36.7188 18.75V17.1875C36.7181 16.5661 36.4709 15.9704 36.0315 15.531C35.5921 15.0916 34.9964 14.8444 34.375 14.8438H21.875C21.6678 14.8438 21.4691 14.7614 21.3226 14.6149C21.1761 14.4684 21.0938 14.2697 21.0938 14.0625V13.2812C21.0931 12.6599 20.8459 12.0641 20.4065 11.6247C19.9671 11.1853 19.3714 10.9382 18.75 10.9375H11.7188C11.0974 10.9382 10.5016 11.1853 10.0622 11.6247C9.62283 12.0641 9.37568 12.6599 9.375 13.2812V37.1094C9.37561 37.6272 9.58158 38.1236 9.94773 38.4898C10.3139 38.8559 10.8103 39.0619 11.3281 39.0625C11.5353 39.0625 11.734 39.1448 11.8806 39.2913C12.0271 39.4378 12.1094 39.6365 12.1094 39.8438C12.1094 40.051 12.0271 40.2497 11.8806 40.3962C11.734 40.5427 11.5353 40.625 11.3281 40.625Z" fill="black"/>
<path d="M22.6563 14.8437H16.4063C16.1991 14.8437 16.0004 14.7614 15.8539 14.6149C15.7073 14.4684 15.625 14.2697 15.625 14.0625C15.625 13.8553 15.7073 13.6566 15.8539 13.51C16.0004 13.3635 16.1991 13.2812 16.4063 13.2812H22.6563C22.8635 13.2812 23.0622 13.3635 23.2087 13.51C23.3552 13.6566 23.4375 13.8553 23.4375 14.0625C23.4375 14.2697 23.3552 14.4684 23.2087 14.6149C23.0622 14.7614 22.8635 14.8437 22.6563 14.8437ZM13.2813 14.8437C13.0745 14.8407 12.8764 14.7598 12.7266 14.6172C12.5814 14.4691 12.5 14.2699 12.5 14.0625C12.5 13.8551 12.5814 13.6559 12.7266 13.5078C12.8737 13.3607 13.0732 13.2781 13.2813 13.2781C13.4893 13.2781 13.6888 13.3607 13.8359 13.5078C13.983 13.6549 14.0657 13.8544 14.0657 14.0625C14.0657 14.2705 13.9831 14.47 13.836 14.6172C13.7967 14.6484 13.7578 14.6797 13.7189 14.7106C13.6753 14.7403 13.6279 14.764 13.5781 14.7812C13.5337 14.8036 13.4863 14.8194 13.4373 14.8281C13.3858 14.8371 13.3336 14.8423 13.2813 14.8437Z" fill="black"/>
</svg>
