<svg width="253" height="54" viewBox="0 0 253 54" fill="none" xmlns="http://www.w3.org/2000/svg">
<path d="M9.22949 40.4893C8.64355 40.2451 8.04134 39.9603 7.42285 39.6348C6.82064 39.3092 6.11263 38.7152 5.29883 37.8525C4.5013 36.9736 3.7526 35.8424 3.05273 34.459C1.39258 31.2363 0.5625 27.4684 0.5625 23.1553C0.5625 18.598 1.7832 14.5534 4.22461 11.0215C5.75456 8.84049 7.46354 7.32682 9.35156 6.48047C10.3118 6.05729 11.3047 5.8457 12.3301 5.8457C13.3717 5.8457 14.2832 6.04102 15.0645 6.43164C15.862 6.80599 16.513 7.26172 17.0176 7.79883C17.5221 8.31966 17.8883 8.84863 18.1162 9.38574C18.3604 9.92285 18.4824 10.4925 18.4824 11.0947C18.4824 11.6807 18.2871 12.3236 17.8965 13.0234C17.5059 13.7233 17.0257 14.3662 16.4561 14.9521C15.9027 15.5381 15.3005 16.0996 14.6494 16.6367C13.9984 17.1576 13.4206 17.6947 12.916 18.248C11.7441 20.6732 11.1582 23.0332 11.1582 25.3281C11.1582 27.737 11.7848 29.568 13.0381 30.8213C13.4287 31.2119 13.8682 31.4967 14.3564 31.6758C16.2119 31.0736 18.9056 28.7705 22.4375 24.7666C25.0742 21.609 26.9378 19.2979 28.0283 17.833L30.7871 14C33.4076 10.224 36.0931 7.71745 38.8438 6.48047C39.9017 5.99219 40.9108 5.75618 41.8711 5.77246C42.8477 5.78874 43.6208 5.91081 44.1904 6.13867C44.7764 6.35026 45.2565 6.63509 45.6309 6.99316C46.347 7.70931 46.7051 8.52311 46.7051 9.43457C46.7051 11.111 46.1354 12.6084 44.9961 13.9268C41.5781 17.6702 38.974 20.4535 37.1836 22.2764L32.1055 27.2324L27.4668 31.4805C20.3216 37.7467 15.3574 40.8799 12.5742 40.8799C10.9466 40.8799 9.83171 40.7497 9.22949 40.4893ZM61.8174 10.7773C61.3454 11.168 60.8327 11.4935 60.2793 11.7539C59.7259 11.998 59.1074 12.1201 58.4238 12.1201C57.7402 12.1201 57.0811 12.0062 56.4463 11.7783C55.8115 11.5505 55.2581 11.2331 54.7861 10.8262C53.7607 9.94727 53.248 8.82422 53.248 7.45703C53.248 5.35742 55.0059 3.79492 58.5215 2.76953C59.7096 2.41146 60.6862 2.23242 61.4512 2.23242C62.2161 2.23242 62.7858 2.32194 63.1602 2.50098C63.5508 2.66374 63.8682 2.88346 64.1123 3.16016C64.6006 3.71354 64.8447 4.2832 64.8447 4.86914C64.8447 5.4388 64.7715 5.95964 64.625 6.43164C64.4948 6.90365 64.2995 7.39193 64.0391 7.89648C63.7786 8.40104 63.4613 8.9056 63.0869 9.41016C62.7126 9.91471 62.2894 10.3704 61.8174 10.7773ZM55.665 37.6572C54.4281 38.292 53.2236 38.7965 52.0518 39.1709C50.8799 39.5615 49.7243 39.7568 48.585 39.7568C47.4619 39.7568 46.29 39.4883 45.0693 38.9512C43.8649 38.3978 42.7907 37.6654 41.8467 36.7539C39.7471 34.7194 38.6973 32.457 38.6973 29.9668C38.6973 27.6719 39.3809 25.3444 40.748 22.9844C42.0013 20.8522 43.5964 19.0618 45.5332 17.6133C47.4701 16.1647 49.2686 15.4404 50.9287 15.4404C53.305 15.4404 54.5745 16.1077 54.7373 17.4424C54.7861 17.8493 54.8105 18.3213 54.8105 18.8584C54.8105 19.3955 54.6803 20.014 54.4199 20.7139C54.1758 21.3975 53.8503 22.0892 53.4434 22.7891C53.0527 23.4727 52.6133 24.1481 52.125 24.8154C51.653 25.4665 51.1973 26.0605 50.7578 26.5977C49.9115 27.623 49.236 28.3636 48.7314 28.8193C48.7314 29.3727 49.1465 29.9424 49.9766 30.5283C50.7578 31.0817 51.417 31.3584 51.9541 31.3584C52.5075 31.3584 53.1504 31.2282 53.8828 30.9678C54.6315 30.7074 55.3965 30.3574 56.1777 29.918C56.9753 29.4785 57.7809 28.974 58.5947 28.4043C59.4248 27.8346 60.2386 27.2487 61.0361 26.6465L65.5039 23.1553C67.278 21.8695 68.7184 21.2266 69.8252 21.2266C70.2646 21.2266 70.5983 21.3893 70.8262 21.7148C71.0703 22.0241 71.1924 22.3903 71.1924 22.8135C71.1924 23.2367 70.9808 23.8226 70.5576 24.5713C70.1344 25.3037 69.5485 26.1175 68.7998 27.0127C68.0674 27.9079 67.2048 28.8438 66.2119 29.8203C65.2191 30.7969 64.1449 31.7572 62.9893 32.7012C61.8337 33.6452 60.6292 34.5485 59.376 35.4111C58.139 36.2575 56.902 37.0062 55.665 37.6572ZM107.179 20.958C107.911 20.958 108.277 21.3324 108.277 22.0811C108.277 23.2692 107.496 24.9456 105.934 27.1104C104.843 28.624 102.597 30.7236 99.1953 33.4092C95.1426 36.583 91.8874 38.1699 89.4297 38.1699C87.5742 38.1699 86.1745 37.3887 85.2305 35.8262C84.6608 34.8822 84.1969 33.4987 83.8389 31.6758L81.666 33.2383C75.6927 37.3724 71.2331 39.4395 68.2871 39.4395C65.8294 39.4395 63.86 38.5443 62.3789 36.7539C61.0768 35.1426 60.4258 33.2139 60.4258 30.9678C60.4258 28.4938 61.2721 26.5407 62.9648 25.1084C66.4154 22.2113 70.7041 19.8268 75.8311 17.9551C77.9144 17.1901 79.2327 16.8076 79.7861 16.8076C80.3395 16.8076 80.8441 16.9053 81.2998 17.1006C81.7718 17.2796 82.2357 17.5156 82.6914 17.8086C83.7656 18.541 84.3027 19.249 84.3027 19.9326C84.3027 20.486 83.9609 20.9336 83.2773 21.2754C83.0658 21.3893 82.7077 21.5439 82.2031 21.7393C81.6986 21.9346 81.0801 22.2031 80.3477 22.5449C78.3783 23.4727 76.4577 24.5957 74.5859 25.9141C73.2513 27.0534 72.584 27.9648 72.584 28.6484C72.584 29.3158 73.056 29.6494 74 29.6494C74.7812 29.6494 76.3438 28.9577 78.6875 27.5742C78.6875 27.5742 79.3792 27.151 80.7627 26.3047C82.2438 25.377 83.432 24.5306 84.3271 23.7656C84.3271 23.7656 84.7015 22.5449 85.4502 20.1035C86.8337 15.7415 88.3717 12.1364 90.0645 9.28809C93.0592 3.54264 96.0703 0.669922 99.0977 0.669922C100.204 0.669922 101.083 0.873372 101.734 1.28027C102.906 2.0127 103.492 2.8265 103.492 3.72168C103.492 4.60059 103.329 5.53646 103.004 6.5293C102.678 7.52214 102.247 8.50684 101.71 9.4834C101.189 10.46 100.587 11.4284 99.9033 12.3887L95.7285 17.9062C95.0286 18.8014 94.4102 19.6722 93.873 20.5186C92.929 22.5531 92.457 24.2946 92.457 25.7432C92.457 27.8265 93.2139 28.8682 94.7275 28.8682C95.5902 28.8682 97.1445 27.9648 99.3906 26.1582L102.271 23.7168C103.622 22.5124 104.957 21.666 106.275 21.1777C106.65 21.0312 106.951 20.958 107.179 20.958ZM107.594 37.4863C107.317 37.0143 107.211 36.5586 107.276 36.1191C107.358 35.6634 107.577 35.0775 107.936 34.3613C108.294 33.6289 108.782 32.7174 109.4 31.627L111.549 27.9648L114.186 23.6191L117.164 18.9316L120.289 14.2441C116.367 15.2207 113.372 16.3844 111.305 17.7354C110.963 17.9632 110.67 18.1992 110.426 18.4434L109.596 19.2734C109.091 19.778 108.595 20.0303 108.106 20.0303C107.618 20.0303 107.236 19.9733 106.959 19.8594C106.699 19.7292 106.487 19.5664 106.324 19.3711C105.917 18.8991 105.844 18.3783 106.104 17.8086C106.804 15.5625 107.805 13.2676 109.107 10.9238C109.824 9.62174 110.393 8.87305 110.816 8.67773C113.909 7.3431 120.354 6.37467 130.152 5.77246C133.342 5.57715 136.695 5.47949 140.211 5.47949C142.506 5.47949 144.687 6.30143 146.754 7.94531C149.065 9.81706 150.221 12.1608 150.221 14.9766C150.221 18.6549 147.063 22.138 140.748 25.4258C137.249 27.265 133.961 28.5508 130.885 29.2832C130.087 29.4622 129.469 29.5518 129.029 29.5518C128.606 29.5518 128.118 29.4948 127.564 29.3809C127.027 29.2669 126.539 29.1042 126.1 28.8926C125.058 28.3717 124.537 27.7451 124.537 27.0127C124.537 25.971 125.538 24.9131 127.54 23.8389L132.789 21.0068C135.898 19.3467 137.818 18.1423 138.551 17.3936C139.283 16.6449 139.649 16.0345 139.649 15.5625C139.649 15.0742 139.552 14.6266 139.356 14.2197C139.177 13.8128 138.925 13.4466 138.6 13.1211C137.9 12.4212 137.151 12.0713 136.354 12.0713C134.693 12.0713 132.691 12.2015 130.348 12.4619L127.369 17.7109C123.561 24.6283 120.973 30.8457 119.605 36.3633C119.052 38.5117 116.961 39.5859 113.331 39.5859C110.336 39.5859 108.424 38.8861 107.594 37.4863ZM177.418 21.7637C178.46 21.7637 178.98 22.195 178.98 23.0576C178.98 24.1156 178.346 25.377 177.076 26.8418C174.977 29.2832 172.503 31.6595 169.654 33.9707C165.016 37.6816 160.873 39.5371 157.228 39.5371C154.607 39.5371 152.459 38.3978 150.782 36.1191C149.041 33.7428 148.17 30.5527 148.17 26.5488C148.17 21.2917 150.733 15.4811 155.86 9.11719C159.116 5.06445 162.184 2.3138 165.064 0.865234C165.96 0.409505 166.643 0.181641 167.115 0.181641C167.604 0.181641 168.043 0.263021 168.434 0.425781C168.84 0.572266 169.215 0.783854 169.557 1.06055C170.354 1.72786 170.753 2.53353 170.753 3.47754C170.753 4.42155 170.493 5.5446 169.972 6.84668C169.451 8.13249 168.694 9.50781 167.701 10.9727C165.602 14.0814 162.761 17.0599 159.181 19.9082C158.253 21.6823 157.789 23.8145 157.789 26.3047C157.789 27.4277 158.147 28.4857 158.863 29.4785C159.596 30.4714 160.401 30.9678 161.28 30.9678C162.485 30.9678 164.788 29.7227 168.189 27.2324L172.535 23.8877C174.309 22.4717 175.937 21.7637 177.418 21.7637ZM215.919 20.665C216.44 20.665 216.7 21.1045 216.7 21.9834C216.7 23.4971 215.642 25.4583 213.526 27.8672L212.135 29.2832C207.919 33.4987 203.948 36.3063 200.221 37.7061C197.91 38.5687 196.249 38.528 195.24 37.584C194.41 36.7865 193.751 35.5007 193.263 33.7266L192.677 31.6025L187.477 34.8008L184.474 36.5098C180.893 38.4629 178.207 39.4395 176.417 39.4395C174.122 39.4395 172.21 38.5524 170.68 36.7783C169.215 35.1019 168.482 33.1569 168.482 30.9434C168.482 28.7624 169.353 26.8174 171.095 25.1084C173.585 22.667 177.516 20.429 182.887 18.3945C187.965 16.4902 192.066 15.5381 195.191 15.5381C196.249 15.5381 196.778 16.0589 196.778 17.1006C196.778 17.8167 196.64 18.3538 196.363 18.7119C196.087 19.07 195.517 19.4362 194.654 19.8105L191.578 21.1289C187.021 23.0332 183.684 25.0107 181.568 27.0615C180.966 27.6312 180.665 28.1846 180.665 28.7217C180.665 29.2588 181.096 29.5273 181.959 29.5273C182.805 29.5273 184.775 28.6159 187.867 26.793L189.894 25.5967C193.035 23.7087 195.663 22.7646 197.779 22.7646C199.57 22.7646 200.758 23.554 201.344 25.1328C201.49 25.556 201.629 25.9873 201.759 26.4268C201.889 26.8499 202.019 27.2324 202.149 27.5742C202.442 28.3717 202.703 28.7705 202.931 28.7705C203.175 28.7705 203.517 28.6566 203.956 28.4287C204.396 28.1846 204.876 27.8835 205.396 27.5254C205.934 27.151 206.487 26.7441 207.057 26.3047L210.011 23.9365C212.631 21.7555 214.601 20.665 215.919 20.665ZM219.557 28.624C219.557 29.3727 220.053 29.7471 221.046 29.7471C223.064 29.7471 226.498 27.2324 231.349 22.2031L233.717 19.8105C235.328 18.2318 236.394 17.4424 236.915 17.4424C237.436 17.4424 237.9 17.5319 238.307 17.7109C238.714 17.89 239.072 18.1178 239.381 18.3945C240.016 18.9642 240.333 19.5745 240.333 20.2256C240.333 20.8604 240.26 21.5684 240.113 22.3496C239.983 23.1146 239.771 23.9772 239.479 24.9375C238.941 26.7279 237.973 29.1286 236.573 32.1396L235.572 34.2881L239.723 30.5283L248.219 23.2529C249.081 22.6019 249.798 22.2764 250.367 22.2764C251.604 22.2764 252.223 22.8704 252.223 24.0586C252.223 25.2793 251.425 26.8499 249.83 28.7705C249.342 29.3727 248.813 29.9342 248.243 30.4551L242.481 35.46L231.251 44.957C230.258 45.8197 229.509 46.5033 229.005 47.0078C228.403 47.9844 227.931 48.7087 227.589 49.1807C227.263 49.6689 226.938 50.1816 226.612 50.7188C226.287 51.2721 225.969 51.7441 225.66 52.1348C224.993 52.9811 224.326 53.4043 223.658 53.4043C222.958 53.4043 222.283 53.1195 221.632 52.5498C220.427 51.4919 219.825 50.5479 219.825 49.7178C219.825 48.8877 220.053 47.9193 220.509 46.8125C220.965 45.722 221.559 44.4688 222.291 43.0527L227.467 33.5068C224.977 35.7529 223.023 37.2422 221.607 37.9746C220.191 38.6908 218.995 39.1628 218.019 39.3906C217.058 39.6348 216.033 39.7568 214.942 39.7568C213.868 39.7568 212.924 39.529 212.11 39.0732C211.297 38.6338 210.621 38.0397 210.084 37.291C209.042 35.8099 208.521 33.8812 208.521 31.5049C208.521 28.9821 209.156 26.4919 210.426 24.0342C211.646 21.6253 213.258 19.6885 215.26 18.2236C217.376 16.6611 219.549 15.8799 221.778 15.8799C224.008 15.8799 225.123 16.7507 225.123 18.4922C225.123 19.5827 224.195 21.2021 222.34 23.3506C220.484 25.4827 219.557 27.2406 219.557 28.624Z" fill="#FF7499"/>
</svg>
