<svg width="50" height="50" viewBox="0 0 50 50" fill="none" xmlns="http://www.w3.org/2000/svg">
<path d="M27.1884 13.4939L34.8337 12.697C35.7588 12.6006 36.6937 12.7119 37.5703 13.0227C38.447 13.3336 39.2432 13.8362 39.9008 14.4939L45.5258 20.1189L34.9196 22.2845M13.4946 27.1876L12.6977 34.8439C12.6013 35.769 12.7126 36.7039 13.0235 37.5805C13.3343 38.4572 13.8369 39.2534 14.4946 39.9111L20.1196 45.5361L22.2852 34.9298" fill="#ED4669"/>
<path d="M36.6954 35.5907C36.548 35.4484 36.3507 35.3696 36.1458 35.3714C35.941 35.3732 35.7451 35.4554 35.6002 35.6002C35.4554 35.7451 35.3732 35.941 35.3714 36.1458C35.3696 36.3507 35.4484 36.548 35.5907 36.6954L40.8532 41.9579C41.0005 42.1002 41.1979 42.1789 41.4027 42.1772C41.6076 42.1754 41.8035 42.0932 41.9484 41.9484C42.0932 41.8035 42.1754 41.6076 42.1772 41.4027C42.1789 41.1979 42.1002 41.0005 41.9579 40.8532L36.6954 35.5907ZM47.7438 40.0094L41.1141 33.3813C40.9668 33.239 40.7694 33.1603 40.5646 33.162C40.3598 33.1638 40.1638 33.246 40.019 33.3908C39.8741 33.5357 39.7919 33.7316 39.7902 33.9365C39.7884 34.1413 39.8671 34.3387 40.0094 34.486L46.6391 41.1141C46.7865 41.2564 46.9838 41.3352 47.1887 41.3334C47.3935 41.3316 47.5895 41.2495 47.7343 41.1046C47.8792 40.9598 47.9613 40.7638 47.9631 40.559C47.9649 40.3541 47.8861 40.1568 47.7438 40.0094ZM10.1798 10.1798C9.74262 10.6168 9.4449 11.1736 9.32425 11.7798C9.20359 12.386 9.26542 13.0144 9.50192 13.5855C9.73841 14.1565 10.139 14.6447 10.6529 14.9881C11.1668 15.3315 11.771 15.5148 12.3891 15.5148C13.0072 15.5148 13.6115 15.3315 14.1254 14.9881C14.6393 14.6447 15.0398 14.1565 15.2763 13.5855C15.5128 13.0144 15.5747 12.386 15.454 11.7798C15.3334 11.1736 15.0356 10.6168 14.5985 10.1798C14.0125 9.59391 13.2178 9.2648 12.3891 9.2648C11.5605 9.2648 10.7658 9.59391 10.1798 10.1798ZM13.4938 13.4938C13.2753 13.7124 12.9969 13.8612 12.6938 13.9216C12.3907 13.9819 12.0765 13.951 11.791 13.8327C11.5054 13.7145 11.2614 13.5142 11.0897 13.2573C10.9179 13.0003 10.8263 12.6982 10.8263 12.3891C10.8263 12.0801 10.9179 11.778 11.0897 11.521C11.2614 11.264 11.5054 11.0638 11.791 10.9455C12.0765 10.8273 12.3907 10.7964 12.6938 10.8567C12.9969 10.917 13.2753 11.0659 13.4938 11.2844C13.7867 11.5775 13.9513 11.9748 13.9513 12.3891C13.9513 12.8034 13.7867 13.2008 13.4938 13.4938ZM39.6048 28.6141C38.6012 26.6138 37.4708 24.6796 36.2204 22.8235L45.6907 20.8907C45.8292 20.8627 45.9575 20.7976 46.062 20.7024C46.1664 20.6072 46.2431 20.4854 46.2838 20.3501C46.3246 20.2148 46.3278 20.0709 46.2933 19.9339C46.2587 19.7969 46.1876 19.6718 46.0876 19.5719L40.4626 13.9469C39.7255 13.2033 38.8302 12.6353 37.8434 12.2853C36.8566 11.9352 35.8035 11.8121 34.7626 11.9251L27.2719 12.7063C24.2074 10.0731 20.7984 7.86951 17.1391 6.15632C12.699 4.09326 7.95344 2.76453 3.08757 2.22194C2.97063 2.20845 2.85215 2.22157 2.74099 2.2603C2.62983 2.29903 2.52886 2.36238 2.44562 2.44562C2.36238 2.52886 2.29903 2.62983 2.2603 2.74099C2.22157 2.85215 2.20845 2.97063 2.22194 3.08757C2.76453 7.95344 4.09326 12.699 6.15632 17.1391C7.86794 20.7964 10.0694 24.2037 12.7001 27.2673L11.9188 34.7579C11.8086 35.7987 11.933 36.8509 12.2829 37.8373C12.6328 38.8237 13.1993 39.7192 13.9407 40.4579L19.5657 46.0829C19.6384 46.1554 19.7246 46.2128 19.8195 46.252C19.9145 46.2911 20.0162 46.3112 20.1188 46.311C20.195 46.3115 20.2709 46.3004 20.3438 46.2782C20.4793 46.2378 20.6013 46.1614 20.6968 46.0571C20.7923 45.9528 20.8577 45.8245 20.886 45.686L22.8188 36.2157C24.6749 37.4661 26.6091 38.5965 28.6094 39.6001C28.7559 39.6729 28.9216 39.6979 29.0831 39.6716C29.2446 39.6452 29.3937 39.5688 29.5094 39.4532L39.4532 29.5094C39.5686 29.3946 39.6452 29.2466 39.6724 29.0861C39.6996 28.9255 39.6759 28.7605 39.6048 28.6141ZM34.9173 13.4751C35.7274 13.3889 36.5465 13.4853 37.3144 13.7573C38.0824 14.0293 38.7795 14.47 39.3548 15.0469L43.9563 19.6485L35.2485 21.4251C33.3556 18.7839 31.21 16.3333 28.8423 14.1079L34.9173 13.4751ZM19.6485 43.9563L15.0469 39.3548C14.4704 38.7799 14.0298 38.0833 13.7575 37.3159C13.4852 36.5486 13.3882 35.7301 13.4735 34.9204L14.1079 28.836C16.3333 31.2038 18.7839 33.3493 21.4251 35.2423L19.6485 43.9563ZM28.8079 37.9532C19.5661 33.3182 12.1048 25.7729 7.57351 16.4798C5.72076 12.4948 4.48123 8.25255 3.89694 3.89694C8.25255 4.48123 12.4948 5.72076 16.4798 7.57351C25.7731 12.1052 33.3184 19.5671 37.9532 28.8094L28.8079 37.9532ZM34.486 40.0094C34.3387 39.8671 34.1413 39.7884 33.9365 39.7902C33.7316 39.7919 33.5357 39.8741 33.3908 40.019C33.246 40.1638 33.1638 40.3598 33.162 40.5646C33.1603 40.7694 33.239 40.9668 33.3813 41.1141L40.0094 47.7438C40.1568 47.8861 40.3541 47.9649 40.559 47.9631C40.7638 47.9613 40.9598 47.8792 41.1046 47.7343C41.2495 47.5895 41.3316 47.3935 41.3334 47.1887C41.3352 46.9838 41.2564 46.7865 41.1141 46.6391L34.486 40.0094ZM27.8563 22.3329C27.2703 21.747 26.4756 21.4179 25.6469 21.4179C24.8183 21.4179 24.0236 21.747 23.4376 22.3329L22.3329 23.4376C22.0382 23.7222 21.6435 23.8797 21.2338 23.8761C20.8241 23.8726 20.4322 23.7082 20.1425 23.4185C19.8528 23.1288 19.6885 22.7369 19.685 22.3273C19.6814 21.9176 19.8389 21.5229 20.1235 21.2282L21.2282 20.1235C21.5212 19.8306 21.9186 19.666 22.3329 19.666C22.7472 19.666 23.1446 19.8306 23.4376 20.1235C23.5849 20.2658 23.7823 20.3446 23.9871 20.3428C24.1919 20.341 24.3879 20.2588 24.5327 20.114C24.6776 19.9691 24.7598 19.7732 24.7615 19.5683C24.7633 19.3635 24.6846 19.1662 24.5423 19.0188C23.9562 18.433 23.1615 18.1039 22.3329 18.1039C21.5042 18.1039 20.7095 18.433 20.1235 19.0188L19.5704 18.4657C19.423 18.3234 19.2257 18.2446 19.0208 18.2464C18.816 18.2482 18.6201 18.3304 18.4752 18.4752C18.3304 18.6201 18.2482 18.816 18.2464 19.0208C18.2446 19.2257 18.3234 19.423 18.4657 19.5704L19.0188 20.1235C18.4496 20.7129 18.1346 21.5023 18.1417 22.3216C18.1488 23.141 18.4775 23.9248 19.0569 24.5042C19.6363 25.0836 20.4201 25.4122 21.2394 25.4194C22.0588 25.4265 22.8482 25.1115 23.4376 24.5423L24.5423 23.4376C24.8369 23.1529 25.2316 22.9955 25.6413 22.999C26.051 23.0026 26.4429 23.1669 26.7326 23.4566C27.0223 23.7463 27.1866 24.1382 27.1902 24.5479C27.1937 24.9576 27.0363 25.3523 26.7516 25.6469L25.6469 26.7516C25.3539 27.0446 24.9566 27.2091 24.5423 27.2091C24.1279 27.2091 23.7306 27.0446 23.4376 26.7516C23.2902 26.6093 23.0929 26.5306 22.888 26.5324C22.6832 26.5341 22.4872 26.6163 22.3424 26.7611C22.1975 26.906 22.1154 27.1019 22.1136 27.3068C22.1118 27.5116 22.1906 27.709 22.3329 27.8563C22.9189 28.4422 23.7136 28.7713 24.5423 28.7713C25.3709 28.7713 26.1656 28.4422 26.7516 27.8563L27.3048 28.4094C27.4521 28.5518 27.6494 28.6305 27.8543 28.6287C28.0591 28.6269 28.2551 28.5448 28.3999 28.3999C28.5448 28.2551 28.6269 28.0591 28.6287 27.8543C28.6305 27.6494 28.5518 27.4521 28.4094 27.3048L27.8563 26.7516C28.4422 26.1656 28.7713 25.3709 28.7713 24.5423C28.7713 23.7136 28.4422 22.9189 27.8563 22.3329Z" fill="black"/>
</svg>
