<svg width="145" height="30" viewBox="0 0 145 30" fill="none" xmlns="http://www.w3.org/2000/svg">
<g clip-path="url(#clip0_84_2310)">
<path d="M61.4975 21.1215C61.6679 21.1215 61.7588 21.0647 61.8496 20.917L65.7564 13.6145C66.2221 12.74 66.6877 11.786 66.9149 11.3203C66.9489 11.2295 67.0284 11.2635 67.0284 11.3203V24.2674C67.0284 24.415 67.1193 24.4945 67.2556 24.4945H69.686C69.8336 24.4945 69.9131 24.4037 69.9131 24.2674V6.86836C69.9131 6.72072 69.8223 6.64122 69.686 6.64122H66.4946C66.2902 6.64122 66.1766 6.73208 66.0858 6.86836L61.0205 16.8058C60.9865 16.8626 60.9638 16.8626 60.9297 16.8058L55.8644 6.86836C55.7736 6.72072 55.66 6.64122 55.4556 6.64122H52.2643C52.1166 6.64122 52.0371 6.73208 52.0371 6.86836V24.2787C52.0371 24.4264 52.128 24.5059 52.2643 24.5059H54.6947C54.8423 24.5059 54.9218 24.415 54.9218 24.2787V11.3317C54.9218 11.2749 55.0127 11.2408 55.0354 11.3317C55.2625 11.7973 55.7282 12.7513 56.1938 13.6258L60.1006 20.9284C60.1915 21.076 60.271 21.1328 60.4527 21.1328H61.4975V21.1215ZM99.6573 6.20965C99.6573 6.06201 99.5664 5.98251 99.4301 5.98251H96.9997C96.8521 5.98251 96.7726 6.07337 96.7726 6.20965V11.9223C96.7726 12.0131 96.7385 12.0358 96.659 12.0131C95.5914 11.5475 94.5693 11.2863 93.4109 11.2863C89.822 11.2863 87.1531 13.7167 87.1531 17.8961C87.1531 22.5865 89.9583 24.733 93.1837 24.733C94.6942 24.733 95.8754 24.3242 97.0906 23.461L99.0894 24.4718C99.4415 24.6422 99.6686 24.4718 99.6686 24.1538V6.20965H99.6573ZM72.6275 17.9074C72.6275 22.7455 75.8756 24.7103 79.1123 24.7103C80.9976 24.7103 82.7579 24.1879 84.2684 23.0635C84.4161 22.95 84.4388 22.8591 84.3593 22.6887L83.5757 21.2123C83.4848 21.042 83.3712 21.042 83.2236 21.1215C81.838 21.9278 80.6796 22.314 79.2827 22.314C77.6359 22.314 75.7506 21.4735 75.4894 18.7478C75.4894 18.7138 75.4894 18.657 75.5803 18.657H84.6432C84.9385 18.657 84.9044 18.1686 84.9044 17.7257C84.9044 13.058 82.122 11.2635 79.0215 11.2635C75.3986 11.2749 72.6275 13.6826 72.6275 17.9074ZM114.717 22.314C113.502 22.314 112.661 21.8483 112.286 21.0079C112.116 20.6331 112.025 20.1334 112.025 19.3838V11.6724C112.025 11.5248 111.934 11.4453 111.798 11.4453H109.356C109.209 11.4453 109.129 11.5361 109.129 11.6724V19.4974C109.129 20.7126 109.299 21.5303 109.595 22.189C110.378 23.8926 112.059 24.7103 114.262 24.7103C115.909 24.7103 117.158 24.3014 118.408 23.4383L120.407 24.4491C120.759 24.6194 120.986 24.4491 120.986 24.1311V11.6838C120.986 11.5361 120.895 11.4566 120.759 11.4566H118.328C118.181 11.4566 118.101 11.5475 118.101 11.6838V19.7132C118.101 20.44 118.067 20.758 117.613 21.2237C116.681 22.0868 115.727 22.314 114.717 22.314ZM90.0605 17.9074C90.0605 15.1249 91.5937 13.6826 93.5358 13.6826C94.5239 13.6826 95.4211 13.9097 96.1706 14.5798C96.6931 15.0454 96.7498 15.4543 96.7498 16.431V19.7018C96.7498 20.4287 96.7158 20.7467 96.2615 21.2123C95.3643 22.0868 94.4103 22.314 93.5358 22.314C92.0026 22.314 90.0605 21.3259 90.0605 17.9074ZM103.042 24.2787C103.042 24.4264 103.133 24.5059 103.269 24.5059H105.699C105.847 24.5059 105.926 24.415 105.926 24.2787V11.6724C105.926 11.5248 105.835 11.4453 105.699 11.4453H103.269C103.121 11.4453 103.042 11.5361 103.042 11.6724V24.2787ZM75.603 16.2834C75.8983 14.6366 77.1135 13.5577 78.9647 13.5577C80.8159 13.5577 81.9516 14.8297 81.9516 16.3401C81.9516 16.3969 81.9175 16.431 81.8607 16.431H75.6939C75.5803 16.431 75.603 16.3174 75.603 16.2834ZM102.78 7.53843C102.78 8.43564 103.53 9.16249 104.484 9.16249C105.438 9.16249 106.188 8.43564 106.188 7.53843C106.188 6.64122 105.438 5.91437 104.484 5.91437C103.53 5.91437 102.78 6.64122 102.78 7.53843ZM141.451 24.2787C141.451 24.4264 141.542 24.5059 141.678 24.5059H144.109C144.256 24.5059 144.336 24.415 144.336 24.2787V16.6354C144.336 15.159 144.109 14.2277 143.723 13.4782C142.916 11.945 141.349 11.2749 139.43 11.2749C137.692 11.2749 136.102 11.8882 134.853 13.1034C133.922 11.8882 132.559 11.2749 130.912 11.2749C129.345 11.2749 128.107 11.6838 126.914 12.5469L124.915 11.5361C124.563 11.3658 124.336 11.5361 124.336 11.8541V24.2787C124.336 24.4264 124.427 24.5059 124.563 24.5059H126.994C127.141 24.5059 127.221 24.415 127.221 24.2787V16.2834C127.221 15.5338 127.278 15.1817 127.652 14.7729C128.288 14.0801 129.242 13.7053 130.23 13.7053C131.855 13.7053 132.865 14.6366 132.865 16.3401V24.2787C132.865 24.4264 132.956 24.5059 133.092 24.5059H135.523C135.67 24.5059 135.75 24.415 135.75 24.2787V16.2834C135.75 15.5338 135.807 15.1817 136.182 14.7729C136.818 14.0801 137.772 13.7053 138.76 13.7053C139.827 13.7053 140.645 14.1142 141.076 14.8978C141.281 15.3067 141.394 15.8291 141.394 16.5446V24.2787H141.451Z" fill="white"/>
<path d="M24.2125 0.0427574C24.0308 -0.036742 23.8945 0.0427574 23.8945 0.247184V24.5626L34.5475 29.8778C35.0699 30.139 35.5014 29.8778 35.5014 29.2758V5.88029C35.5014 5.75536 35.4447 5.65314 35.3311 5.60772L24.2125 0.0427574Z" fill="#CBCBCB"/>
<path d="M12.2773 18.7592L23.7025 0.201751C23.8048 0.0313948 24.0433 -0.0367475 24.2136 0.054109L35.2527 5.56228C35.389 5.63043 35.4457 5.80078 35.3549 5.93707L23.8843 24.5626L12.2773 18.7592Z" fill="white"/>
<path d="M1.95234 0.531103C1.2482 0.167677 1.0097 0.440246 1.41856 1.12167L12.2759 18.7592L23.8828 24.574L12.3554 5.81213C12.31 5.73264 12.2305 5.66449 12.151 5.61906L1.95234 0.531103Z" fill="#D5D5D5"/>
<path d="M12.2768 29.2872C12.2768 29.8777 11.8453 30.1503 11.3228 29.8891L1.31727 24.8806C0.953848 24.6989 0.669922 24.2333 0.669922 23.8358V0.599246C0.669922 0.201749 0.953848 0.0200358 1.31727 0.201749L12.1406 5.61907C12.2201 5.6645 12.2882 5.75535 12.2882 5.84621V29.2872H12.2768Z" fill="white"/>
</g>
<defs>
<clipPath id="clip0_84_2310">
<rect width="143.678" height="30" fill="white" transform="translate(0.669922)"/>
</clipPath>
</defs>
</svg>
