<svg width="241" height="50" viewBox="0 0 241 50" fill="none" xmlns="http://www.w3.org/2000/svg">
<g clip-path="url(#clip0_84_2224)">
<path d="M102.166 35.2023C102.45 35.2023 102.601 35.1077 102.753 34.8616L109.264 22.6907C110.04 21.2332 110.816 19.6432 111.195 18.8671C111.251 18.7157 111.384 18.7725 111.384 18.8671V40.4455C111.384 40.6916 111.535 40.8241 111.763 40.8241H115.813C116.059 40.8241 116.192 40.6727 116.192 40.4455V11.4472C116.192 11.2011 116.04 11.0686 115.813 11.0686H110.494C110.154 11.0686 109.964 11.22 109.813 11.4472L101.371 28.0095C101.314 28.1042 101.276 28.1042 101.219 28.0095L92.7773 11.4472C92.6259 11.2011 92.4366 11.0686 92.0959 11.0686H86.777C86.5309 11.0686 86.3984 11.22 86.3984 11.4472V40.4645C86.3984 40.7105 86.5499 40.843 86.777 40.843H90.8277C91.0738 40.843 91.2063 40.6916 91.2063 40.4645V18.886C91.2063 18.7914 91.3577 18.7346 91.3955 18.886C91.7741 19.6621 92.5502 21.2521 93.3262 22.7096L99.8376 34.8806C99.9891 35.1266 100.122 35.2213 100.424 35.2213H102.166V35.2023ZM165.765 10.3493C165.765 10.1032 165.614 9.97075 165.387 9.97075H161.336C161.09 9.97075 160.958 10.1222 160.958 10.3493V19.8703C160.958 20.0217 160.901 20.0596 160.768 20.0217C158.989 19.2457 157.285 18.8103 155.355 18.8103C149.373 18.8103 144.925 22.861 144.925 29.8267C144.925 37.6441 149.6 41.2216 154.976 41.2216C157.494 41.2216 159.462 40.5402 161.488 39.1016L164.819 40.7862C165.406 41.0702 165.784 40.7862 165.784 40.2562V10.3493H165.765ZM120.716 29.8456C120.716 37.9091 126.129 41.1837 131.524 41.1837C134.666 41.1837 137.6 40.313 140.117 38.4391C140.363 38.2498 140.401 38.0984 140.269 37.8145L138.963 35.3538C138.811 35.0698 138.622 35.0698 138.376 35.2023C136.067 36.5463 134.136 37.1898 131.808 37.1898C129.063 37.1898 125.921 35.7891 125.486 31.2463C125.486 31.1895 125.486 31.0949 125.637 31.0949H140.742C141.234 31.0949 141.177 30.281 141.177 29.5427C141.177 21.7632 136.54 18.7725 131.372 18.7725C125.334 18.7914 120.716 22.8042 120.716 29.8456ZM190.864 37.1898C188.839 37.1898 187.438 36.4138 186.814 35.0131C186.53 34.3884 186.378 33.5556 186.378 32.3063V19.4539C186.378 19.2078 186.227 19.0753 186 19.0753H181.93C181.684 19.0753 181.552 19.2268 181.552 19.4539V32.4956C181.552 34.5209 181.836 35.8838 182.328 36.9816C183.634 39.8209 186.435 41.1837 190.107 41.1837C192.852 41.1837 194.934 40.5023 197.016 39.0637L200.348 40.7484C200.934 41.0323 201.313 40.7484 201.313 40.2184V19.4728C201.313 19.2268 201.162 19.0943 200.934 19.0943H196.884C196.638 19.0943 196.505 19.2457 196.505 19.4728V32.8552C196.505 34.0666 196.448 34.5966 195.691 35.3727C194.139 36.8113 192.549 37.1898 190.864 37.1898ZM149.771 29.8456C149.771 25.2081 152.326 22.8042 155.563 22.8042C157.21 22.8042 158.705 23.1828 159.954 24.2996C160.825 25.0756 160.92 25.7571 160.92 27.3849V32.8363C160.92 34.0477 160.863 34.5777 160.106 35.3538C158.61 36.8113 157.02 37.1898 155.563 37.1898C153.008 37.1898 149.771 35.5431 149.771 29.8456ZM171.406 40.4645C171.406 40.7105 171.557 40.843 171.785 40.843H175.835C176.081 40.843 176.214 40.6916 176.214 40.4645V19.4539C176.214 19.2078 176.062 19.0753 175.835 19.0753H171.785C171.539 19.0753 171.406 19.2268 171.406 19.4539V40.4645ZM125.675 27.1388C126.167 24.3942 128.192 22.596 131.278 22.596C134.363 22.596 136.256 24.716 136.256 27.2335C136.256 27.3281 136.199 27.3849 136.105 27.3849H125.826C125.637 27.3849 125.675 27.1956 125.675 27.1388ZM170.971 12.5639C170.971 14.0593 172.22 15.2707 173.81 15.2707C175.4 15.2707 176.649 14.0593 176.649 12.5639C176.649 11.0686 175.4 9.85718 173.81 9.85718C172.22 9.85718 170.971 11.0686 170.971 12.5639ZM235.422 40.4645C235.422 40.7105 235.573 40.843 235.801 40.843H239.851C240.097 40.843 240.23 40.6916 240.23 40.4645V27.7256C240.23 25.2649 239.851 23.7128 239.208 22.4635C237.864 19.9082 235.252 18.7914 232.053 18.7914C229.157 18.7914 226.507 19.8135 224.425 21.8389C222.872 19.8135 220.601 18.7914 217.856 18.7914C215.244 18.7914 213.181 19.4728 211.194 20.9114L207.862 19.2268C207.275 18.9428 206.897 19.2268 206.897 19.7567V40.4645C206.897 40.7105 207.048 40.843 207.275 40.843H211.326C211.572 40.843 211.705 40.6916 211.705 40.4645V27.1388C211.705 25.8896 211.799 25.3028 212.424 24.6214C213.484 23.4667 215.074 22.8421 216.721 22.8421C219.427 22.8421 221.112 24.3942 221.112 27.2335V40.4645C221.112 40.7105 221.264 40.843 221.491 40.843H225.541C225.787 40.843 225.92 40.6916 225.92 40.4645V27.1388C225.92 25.8896 226.015 25.3028 226.639 24.6214C227.699 23.4667 229.289 22.8421 230.936 22.8421C232.715 22.8421 234.078 23.5235 234.797 24.8296C235.138 25.511 235.327 26.3817 235.327 27.5742V40.4645H235.422Z" fill="white"/>
<path d="M40.0241 0.071364C39.7213 -0.061135 39.4941 0.071364 39.4941 0.412076V40.9378L57.249 49.7963C58.1197 50.2317 58.839 49.7964 58.839 48.7931V9.80058C58.839 9.59237 58.7444 9.42201 58.5551 9.3463L40.0241 0.071364Z" fill="#CBCBCB"/>
<path d="M20.1309 31.2654L39.1729 0.336312C39.3432 0.0523858 39.7407 -0.0611848 40.0246 0.0902426L58.4231 9.27053C58.6502 9.3841 58.7449 9.66803 58.5934 9.89517L39.4757 40.9378L20.1309 31.2654Z" fill="white"/>
<path d="M2.92382 0.88514C1.75026 0.279431 1.35276 0.733713 2.03419 1.86942L20.1298 31.2653L39.4746 40.9566L20.2623 9.68686C20.1866 9.55436 20.0541 9.44079 19.9216 9.36508L2.92382 0.88514Z" fill="#D5D5D5"/>
<path d="M20.13 48.812C20.13 49.7962 19.4107 50.2505 18.54 49.8152L1.86408 41.4677C1.25837 41.1649 0.785156 40.3888 0.785156 39.7263V0.998743C0.785156 0.336248 1.25837 0.033393 1.86408 0.336248L19.9029 9.36511C20.0354 9.44083 20.1489 9.59225 20.1489 9.74368V48.812H20.13Z" fill="white"/>
</g>
<defs>
<clipPath id="clip0_84_2224">
<rect width="239.464" height="50" fill="white" transform="translate(0.785156)"/>
</clipPath>
</defs>
</svg>
