<svg width="80" height="80" viewBox="0 0 80 80" fill="none" xmlns="http://www.w3.org/2000/svg">
<path fill-rule="evenodd" clip-rule="evenodd" d="M0 0H80V80H0V0Z" fill="white"/>
<path fill-rule="evenodd" clip-rule="evenodd" d="M3.7032 59.6634L3.67829 60.0623H4.05141C4.32533 60.0623 4.67354 60.0868 4.67354 60.435L4.54903 67.1793C4.54903 67.4283 4.42452 67.7022 3.9269 67.7022H3.5542L3.5293 68.1002H6.04273V67.7022H5.61982C5.29609 67.7022 5.07239 67.6026 5.07239 67.1793L5.19648 60.7089L7.88465 67.6769H8.15815L10.8708 60.6342L10.9953 67.1793C10.9953 67.403 10.7712 67.7022 10.423 67.7022H9.90046V68.1002H13.0609V67.7022H12.6874C12.4139 67.7022 12.0902 67.5524 12.0902 67.2038L11.9657 60.535C11.9657 60.3113 12.2147 60.0623 12.4633 60.0623H12.936V59.6634H10.6716L8.33205 65.786L5.99293 59.6634H3.7032ZM14.3546 65.0639H18.0978C18.0978 63.295 17.3163 61.861 15.5989 61.861C14.0064 61.861 13.0999 63.295 13.0999 65.0639C13.0999 66.8327 13.8565 68.2667 15.5989 68.2667C17.2909 68.2667 17.789 67.4283 18.0484 66.0869L17.4653 66.0844C17.4155 66.582 17.0921 67.7022 15.8479 67.7267C14.4297 67.7549 14.3297 65.935 14.3546 65.0639ZM21.1487 68.1002V67.7769H20.8996C20.6755 67.7769 20.2775 67.7022 20.2775 67.254V63.9939C20.2775 62.9733 20.8 62.6006 21.3226 62.6006C21.5214 62.6006 21.6463 62.7002 21.5965 63.0734C21.5467 63.4469 21.8704 63.6959 22.1439 63.6706C22.4174 63.6453 22.7661 63.5959 22.7162 62.899C22.6664 62.2026 22.2684 61.8793 21.5716 61.8793C21.0242 61.8793 20.5759 62.2271 20.4514 62.4014C20.3066 62.604 20.1281 62.5263 20.1032 62.3026C20.0783 62.0781 19.9787 61.8544 19.7301 61.9291C19.1822 62.1034 18.6846 62.1781 18.2617 62.203V62.4521C19.3072 62.4018 19.2071 62.9248 19.2071 63.1734V67.2548C19.2071 67.703 18.8091 67.7778 18.585 67.7778H18.2368V68.1011H21.1487V68.1002ZM26.669 62.2574C26.3021 61.9897 25.841 61.8366 25.2795 61.8366C23.687 61.8366 22.7806 63.2705 22.7806 65.0394C22.7806 66.8082 23.5372 68.233 25.2795 68.2422C26.8226 68.2496 27.1957 67.3781 27.4555 66.0375L26.872 66.035C26.8222 66.5327 26.6478 67.6773 25.5281 67.7026C24.1099 67.7333 24.0099 65.9105 24.0348 65.0398C24.0348 64.4919 24.1095 62.3022 25.304 62.3022C26.3241 62.3022 26.9467 63.0235 26.9467 63.8449H27.27V61.7544H26.9965L26.669 62.2574ZM38.4198 66.8057V59.8627C38.4198 59.5767 38.2704 59.3397 38.0218 59.4144C37.4744 59.5887 36.9763 59.6634 36.5534 59.6883V59.9374C37.2752 59.888 37.3499 60.1117 37.3499 60.3607V62.5006C37.0261 62.2022 36.653 61.9034 35.9811 61.9034C35.1348 61.9034 33.5673 62.5753 33.5673 64.9398C33.5673 68.05 35.3839 68.2496 35.9313 68.2496C36.4787 68.2496 37.2005 67.8022 37.3499 67.5657C37.3623 67.5155 37.4366 67.4536 37.4619 67.5657C37.4868 67.7894 37.6483 68.126 37.8973 68.0504C38.3735 67.8988 38.8668 67.807 39.3657 67.7773V67.5283C38.3202 67.5773 38.4198 67.0543 38.4198 66.8057ZM52.953 64.5417V63.9686H49.6685V64.5417H52.953ZM45.1637 65.9844V68.1002H45.4376L45.6866 67.5524C45.9357 67.7769 46.4573 68.1496 47.1297 68.1496C47.8021 68.1496 48.7475 67.7769 49.1206 67.0797C49.4941 66.3824 49.3198 65.2378 48.4736 64.8895C47.7327 64.5849 47.0824 64.2193 46.5823 63.9686C46.1843 63.7698 46.088 63.3718 46.134 63.1232C46.2087 62.7251 46.5574 62.3018 47.3538 62.2769C48.1499 62.2516 48.5479 62.9239 48.6475 63.6955H48.9214V61.7046H48.6724L48.3985 62.1773C47.8755 61.8287 47.6518 61.7793 47.1791 61.7793C46.7055 61.7793 45.9095 62.0283 45.4613 62.7251C45.0139 63.4216 45.138 64.5164 46.2079 64.9647C47.2779 65.4121 47.7763 65.686 48.0747 65.8354C48.3731 65.9848 48.5475 66.582 48.3487 66.9307C48.1494 67.2793 47.7763 67.6773 47.1791 67.6773C46.5819 67.6773 45.6356 67.254 45.4119 65.9848H45.1637V65.9844ZM54.0732 66.8306V60.6836C54.0732 60.0619 53.4262 59.9863 53.0526 59.9863V59.663H56.7854C58.5273 59.663 58.8012 60.8828 58.8012 61.6046C58.8012 62.3263 58.204 63.3958 57.6064 63.5461C58.8012 63.7951 59.1993 64.7654 59.1993 65.5864C59.1499 68.0255 57.034 68.1002 56.1131 68.1002H53.0522V67.7516C54.0483 67.7516 54.0732 67.1793 54.0732 66.8306ZM69.3028 63.5706V67.254C69.3028 67.7022 68.9048 67.7769 68.6811 67.7769H68.5321V68.1002H71.2443V67.7769H70.9953C70.7716 67.7769 70.3736 67.7022 70.3736 67.254V63.5959C70.3483 61.9283 68.8554 61.8789 68.3325 61.8789C67.7855 61.8789 67.1878 62.2267 67.0629 62.401C66.9184 62.6035 66.7396 62.5259 66.7151 62.3022C66.6898 62.0777 66.5902 61.854 66.3416 61.9287C65.7945 62.103 65.2965 62.1777 64.8736 62.2026V62.4516C65.9186 62.4014 65.8186 62.9244 65.8186 63.173V67.2544C65.8186 67.7026 65.4206 67.7773 65.1969 67.7773H64.8483V68.1006H67.7601V67.7773H67.5111C67.2874 67.7773 66.8886 67.7026 66.8886 67.2544V63.9943C66.8886 63.4473 67.0878 62.5757 68.1083 62.501C69.1285 62.4259 69.3028 63.0978 69.3028 63.5706ZM71.7918 63.6955L72.24 62.003H76.4704L72.8372 67.752H74.7779C75.2262 67.752 75.5748 67.5777 76.0475 66.433H76.2467L75.8487 68.1006H71.5183L75.1261 62.3516H73.5092C73.1112 62.3516 72.6629 62.3516 72.0404 63.6955H71.7918ZM29.2862 65.0639H33.0294C33.0294 63.295 32.2475 61.861 30.5305 61.861C28.938 61.861 28.0316 63.295 28.0316 65.0639C28.0316 66.8327 28.7886 68.2667 30.5305 68.2667C32.223 68.2667 32.7206 67.4283 32.9804 66.0869L32.3969 66.0844C32.3471 66.582 32.0238 67.7022 30.7795 67.7267C29.3613 67.7549 29.2613 65.935 29.2862 65.0639ZM40.634 65.0639H44.3776C44.3776 63.295 43.5961 61.861 41.8791 61.861C40.2862 61.861 39.3798 63.295 39.3798 65.0639C39.3798 66.8327 40.1368 68.2667 41.8791 68.2667C43.5708 68.2667 44.0684 67.4283 44.3278 66.0869L43.7451 66.0844C43.6957 66.582 43.3724 67.7022 42.1273 67.7267C40.7096 67.7549 40.61 65.935 40.634 65.0639ZM60.9918 65.0639H64.7346C64.7346 63.295 63.953 61.861 62.2356 61.861C60.6436 61.861 59.7371 63.295 59.7371 65.0639C59.7371 66.8327 60.4933 68.2667 62.2356 68.2667C63.9281 68.2667 64.4258 67.4283 64.6852 66.0869L64.1025 66.0844C64.0531 66.582 63.7289 67.7022 62.4847 67.7267C61.0665 67.7549 60.9665 65.935 60.9918 65.0639Z" fill="black"/>
<path fill-rule="evenodd" clip-rule="evenodd" d="M14.3792 64.5658C14.3792 64.0188 14.3293 62.4006 15.6483 62.4006C16.6934 62.4006 16.8428 63.7445 16.8428 64.5658H14.3792ZM37.3491 66.0591C37.3242 67.4283 36.6025 67.8512 36.0052 67.8512C34.6614 67.8259 34.761 65.7856 34.761 64.9144C34.761 64.0437 34.8108 62.3263 36.0302 62.4753C37.2495 62.6251 37.3491 63.9192 37.3491 64.6907V66.0591ZM55.1428 67.7022H56.4116C57.3574 67.7022 58.1041 66.9556 58.1041 65.7105C58.1041 64.467 57.3827 63.8939 56.5614 63.8939H55.1428V67.7022ZM55.1428 63.4959H56.3871C57.3574 63.4959 57.6807 62.6745 57.6807 61.6046C57.6807 60.733 57.308 60.0619 56.3871 60.0619H55.1428V63.4959ZM29.3112 64.5658C29.3112 64.0188 29.2614 62.4006 30.5804 62.4006C31.6258 62.4006 31.7748 63.7445 31.7748 64.5658H29.3112ZM40.659 64.5658C40.659 64.0188 40.6096 62.4006 41.9286 62.4006C42.9736 62.4006 43.1226 63.7445 43.1226 64.5658H40.659ZM61.0159 64.5658C61.0159 64.0188 60.9665 62.4006 62.2855 62.4006C63.3306 62.4006 63.4804 63.7445 63.4804 64.5658H61.0159Z" fill="white"/>
<path fill-rule="evenodd" clip-rule="evenodd" d="M39.7432 54.195C27.8866 54.1941 18.2753 44.6874 18.2773 32.9615C18.2786 21.236 27.8924 11.7317 39.7491 11.7334C51.6061 11.7351 61.2166 21.2418 61.2149 32.9673C61.2133 44.6932 51.6003 54.1974 39.7432 54.195Z" fill="black"/>
<path fill-rule="evenodd" clip-rule="evenodd" d="M22.1399 43.1505L22.5171 42.8513C21.4077 40.8185 20.4308 37.7672 20.376 37.7032C20.3511 37.7896 20.7989 40.6238 22.1399 43.1505Z" fill="black"/>
<path fill-rule="evenodd" clip-rule="evenodd" d="M40.0428 13.843L42.9596 30.8199L39.9133 32.6091L39.8078 13.85C39.8078 13.6246 39.6485 13.6267 39.6252 13.85L37.8958 31.6445L36.6158 30.9012L39.3617 13.8471C28.7294 13.9135 20.3333 22.4503 20.332 33.0009C20.3316 36.3331 21.38 39.8281 22.8886 42.559L36.2842 31.4158L37.5683 32.1513L22.5222 42.9679C22.1611 43.219 22.2694 43.3447 22.6691 43.1227L39.465 33.4225L39.4646 36.9154L23.2489 43.1011C26.6405 48.6497 32.6626 52.1816 39.6871 52.1824C46.7015 52.1832 52.8216 48.6426 56.2182 43.1086L40.0241 36.9271V33.4333L56.1771 42.75C56.5436 42.9566 56.6544 42.8442 56.3083 42.5968L41.9208 32.16L43.2041 31.4241L56.5947 42.5777C58.1274 39.8315 59.1434 36.3261 59.1442 32.9652C59.1455 22.5512 50.4841 14.1272 40.0428 13.843Z" fill="white"/>
<path fill-rule="evenodd" clip-rule="evenodd" d="M60.2926 29.2685C59.4796 24.7082 57.1409 21.3389 57.1409 21.3389C53.4313 15.8372 47.1096 12.2468 39.7855 12.246C28.1621 12.2443 18.7653 21.6664 18.7637 33.2906C18.7633 36.0282 19.4618 38.6433 20.4122 41.043C20.8488 42.1445 22.7015 45.3216 22.7853 45.3896C22.7766 45.2892 21.4693 42.7471 20.7816 41.0563C20.1922 39.6066 19.4584 36.7171 19.4589 33.3661C19.4601 22.0897 28.6028 12.9495 39.8784 12.9511C45.7707 12.9519 51.3064 15.8285 54.7034 19.5576C55.4272 20.352 56.0531 21.0729 56.6134 21.8058C56.6134 21.8054 58.0905 23.1879 60.2926 29.2685Z" fill="white"/>
<path fill-rule="evenodd" clip-rule="evenodd" d="M59.6351 32.9109C59.6351 36.4013 58.5415 40.0183 56.9291 42.8559C57.0192 43.09 56.9349 43.2103 56.6614 43.2796C53.1482 48.9403 46.8741 52.6444 39.7314 52.6436C33.0303 52.6428 27.6698 49.0428 25.9752 47.1826C24.5998 45.6731 23.5804 44.5442 22.7931 43.2626L22.332 43.4402C25.3468 49.2055 31.6715 53.3952 39.7385 53.396C51.1876 53.3977 60.3291 44.1396 60.3299 32.9648C60.3299 32.9648 60.6848 29.3731 57.5666 24.2616C57.5666 24.262 59.7406 28.2193 59.6351 32.9109Z" fill="white"/>
<path fill-rule="evenodd" clip-rule="evenodd" d="M38.4072 32.6498L35.5501 34.9827C35.5501 34.9827 34.9471 35.4808 35.8124 35.035L39.2722 33.1479L38.4072 32.6498ZM38.6953 32.0734L39.534 19.3348C39.534 19.3348 39.6125 17.7884 39.6913 19.3609C39.7685 20.9065 39.534 32.6237 39.534 32.6237L38.6953 32.0734ZM40.2155 33.1479L41.1332 32.6237L51.9842 39.8847C51.9842 39.8847 52.7972 40.435 51.8796 39.9631L40.2155 33.1479Z" fill="black"/>
</svg>
