<svg width="50" height="50" viewBox="0 0 50 50" fill="none" xmlns="http://www.w3.org/2000/svg">
<path d="M24.2968 31.0938C25.3906 33.3594 27.4218 34.7656 29.4531 34.7656C29.8437 34.7656 30.2343 34.6875 30.6249 34.6094L33.9843 33.9063C34.2187 33.8281 34.3749 33.75 34.5312 33.5156C34.6093 33.3594 34.6874 33.125 34.6093 32.8906L33.0468 28.2813C32.9687 27.9688 32.6562 27.7344 32.3437 27.7344L29.8437 27.6563C29.6874 27.6563 29.4531 27.5 29.2968 27.2656L26.5624 21.5625C26.4062 21.25 26.4843 21.0156 26.6406 20.8594L28.1249 18.9844C28.3593 18.75 28.3593 18.3594 28.2031 18.125L25.6249 13.9844C25.4687 13.8281 25.3124 13.6719 25.0781 13.5938C24.8437 13.5938 24.6093 13.5938 24.4531 13.75L21.7968 15.8594C19.7656 17.2656 19.2187 20.3125 20.4687 22.9688L24.2968 31.0938ZM22.6562 16.9531L24.6093 15.3906L26.4843 18.3594L25.3906 19.7656C24.8437 20.3906 24.6874 21.3281 25.0781 22.1875L27.8124 27.8906C28.2031 28.75 28.9843 29.2188 29.7656 29.2188L31.6406 29.2969L32.7343 32.5781L30.2343 33.125C28.5937 33.5938 26.6406 32.4219 25.7031 30.4688L21.7968 22.1875C20.8593 20.1562 21.2499 17.9688 22.6562 16.9531Z" fill="black"/>
<path d="M10.3125 35.9375C9.84375 35.9375 9.53125 36.25 9.53125 36.7188C9.53125 37.1875 9.84375 37.5 10.3125 37.5H12.4219V40.2344C12.4219 41.9531 13.8281 43.3594 15.5469 43.3594H37.4219C39.1406 43.3594 40.5469 41.9531 40.5469 40.2344V9.76562C40.5469 8.04688 39.1406 6.64062 37.4219 6.64062H15.5469C13.8281 6.64062 12.4219 8.04688 12.4219 9.76562V12.5H10.3125C9.84375 12.5 9.53125 12.8125 9.53125 13.2812C9.53125 13.75 9.84375 14.0625 10.3125 14.0625H12.4219V20.3125H10.3125C9.84375 20.3125 9.53125 20.625 9.53125 21.0938C9.53125 21.5625 9.84375 21.875 10.3125 21.875H12.4219V28.125H10.3125C9.84375 28.125 9.53125 28.4375 9.53125 28.9062C9.53125 29.375 9.84375 29.6875 10.3125 29.6875H12.4219V35.9375H10.3125ZM13.9062 29.6875H15.625C16.0938 29.6875 16.4062 29.375 16.4062 28.9062C16.4062 28.4375 16.0938 28.125 15.625 28.125H13.9062V21.875H15.625C16.0938 21.875 16.4062 21.5625 16.4062 21.0938C16.4062 20.625 16.0938 20.3125 15.625 20.3125H13.9062V14.0625H15.625C16.0938 14.0625 16.4062 13.75 16.4062 13.2812C16.4062 12.8125 16.0938 12.5 15.625 12.5H13.9062V9.76562C13.9062 8.90625 14.6094 8.20312 15.4687 8.20312H37.3437C38.2031 8.20312 38.9062 8.90625 38.9062 9.76562V40.2344C38.9062 41.0938 38.2031 41.7969 37.3437 41.7969H15.4687C14.6094 41.7969 13.9062 41.0938 13.9062 40.2344V37.5H15.625C16.0938 37.5 16.4062 37.1875 16.4062 36.7188C16.4062 36.25 16.0938 35.9375 15.625 35.9375H13.9062V29.6875Z" fill="black"/>
</svg>
