<svg width="198" height="50" viewBox="0 0 198 50" fill="none" xmlns="http://www.w3.org/2000/svg">
<g clip-path="url(#clip0_84_2230)">
<path d="M45.4555 17.6247C47.6 17.6247 49.6574 15.8394 50.0153 13.6368C50.4383 11.493 48.9847 9.70769 46.8418 9.70769C44.6983 9.70769 42.6406 11.493 42.2773 13.6368C41.8591 15.8394 43.253 17.6247 45.4555 17.6247ZM190.979 23.9968H195.776C196.434 23.9968 196.819 23.7298 196.967 23.1165C197.196 22.1663 197.432 21.2178 197.675 20.2709C197.817 19.7187 197.495 19.3002 196.883 19.3002H192.15C192.491 17.9436 193.818 13.5392 193.818 10.6678C193.818 4.93327 188.949 0.0555017 182.039 0.0555017C174.236 0.0555017 169.16 5.29212 169.16 12.6608C169.16 14.81 169.962 17.3153 170.956 18.8693C170.528 18.8449 170.1 18.8327 169.671 18.8329C163.742 18.8329 160.008 22.0492 160.008 26.7292C160.008 31.1215 163.47 32.8283 166.73 33.9642C169.626 34.9734 172.292 35.4429 172.292 37.7051C172.292 39.2304 170.825 40.1255 167.954 40.1255C164.547 40.1255 162.674 38.521 162.198 37.9124C162.521 37.6589 163.001 37.055 163.001 36.049C163.001 34.6417 162.013 33.493 160.177 33.493C158.623 33.493 157.31 34.76 156.98 36.4267C154.485 38.4678 151.762 39.7906 147.9 39.7906C144.097 39.7906 142.123 37.8126 142.123 33.6037C143.015 33.8752 145.336 34.2012 146.871 34.2012C153.31 34.2012 157.698 31.2755 157.698 25.4166C157.698 22.2661 154.932 18.9573 149.461 18.9573H149.448C142.251 18.9573 138.22 23.5161 136.46 28.5304C135.967 28.4115 135.473 28.2962 134.978 28.1847C135.372 27.0724 135.654 25.7834 135.654 24.3544C135.654 21.8779 134.121 18.9573 130.017 18.9573C127.158 18.9573 124.447 20.8297 122.567 23.6361C123.035 21.8055 123.345 20.5863 123.365 20.5047C123.487 20.0259 123.288 19.4926 122.541 19.4926H118.329C117.729 19.4926 117.305 19.7047 117.135 20.3883C117.02 20.8441 115.573 26.5225 114.164 32.0516C113.277 35.4991 108.686 39.7906 102.916 39.7906C99.1126 39.7906 97.1404 37.6825 97.1404 33.472C98.1356 33.8681 100.353 34.2008 101.887 34.2008C108.588 34.2008 112.714 31.2752 112.714 25.4163C112.714 22.2657 109.949 18.957 104.476 18.957H104.465C96.3608 18.957 91.3966 25.2514 90.5555 32.3881C90.2055 35.3549 87.7016 39.4288 84.9871 39.4288C83.6646 39.4288 82.9272 38.5982 82.9272 37.188C82.9272 35.9702 83.7846 32.9922 84.7243 29.2602C85.0391 28.0118 85.5169 26.1072 86.0467 23.9968H90.4524C91.1082 23.9968 91.4929 23.7298 91.6419 23.1165C91.8527 22.2332 92.2396 20.6922 92.3494 20.2709C92.4913 19.7187 92.1717 19.3002 91.5577 19.3002H87.2253C87.2253 19.3002 89.2199 11.3418 89.2674 11.1373C89.4594 10.3281 88.7823 9.86112 88.0738 10.0101C88.0738 10.0101 84.7252 10.6656 84.1042 10.7951C83.4799 10.9214 82.9954 11.2643 82.7699 12.1641L80.9964 19.3002H77.5177C76.8618 19.3002 76.4762 19.5679 76.3292 20.18C76.098 21.1299 75.8622 22.0786 75.6217 23.0262C75.4778 23.5783 75.799 23.9968 76.4124 23.9968H79.8238C79.7996 24.0944 78.5916 28.6896 77.6146 32.8047C77.1547 34.7836 75.6143 39.4142 73.0919 39.4142C71.585 39.4142 70.9484 38.6541 70.9484 37.0238C70.9484 34.4563 73.4756 28.0293 73.4756 25.1129C73.4756 21.2173 71.3857 18.9602 67.1041 18.9602C64.4052 18.9602 61.6069 20.7028 60.4209 22.2323C60.4209 22.2323 60.7807 20.9803 60.9038 20.4989C61.0352 19.9905 60.7625 19.491 60.0949 19.491H55.9087C55.0178 19.491 54.7715 19.9672 54.6408 20.491C54.5884 20.7012 53.08 26.6245 51.6319 32.3109C50.6414 36.2046 48.2348 39.4582 45.6616 39.4582C44.3385 39.4582 43.7493 38.6279 43.7493 37.2177C43.7493 35.9992 44.5366 32.9926 45.476 29.2609C46.6188 24.7177 47.6271 20.9764 47.7349 20.5395C47.8756 19.9793 47.6252 19.4913 46.9034 19.4913H42.6919C41.929 19.4913 41.6565 19.8916 41.4958 20.4479C41.4958 20.4479 40.3105 24.9349 39.0553 29.9301C38.1437 33.5552 37.137 37.2477 37.137 38.9826C37.137 42.0786 38.5271 44.4122 42.3487 44.4122C45.2983 44.4122 47.6325 42.9165 49.415 41.0106C49.1531 42.0422 48.986 42.6951 48.9691 42.7618C48.8153 43.3516 49.0016 43.8728 49.6963 43.8728H54.006C54.7562 43.8728 55.0446 43.5711 55.2012 42.9168C55.3521 42.2926 58.5708 29.6322 58.5708 29.6322C59.4216 26.2312 61.5258 23.9793 64.4862 23.9793C65.8901 23.9793 67.105 24.9088 66.9644 26.7151C66.8081 28.7023 64.4116 35.8413 64.4116 38.9746C64.4116 41.3462 65.291 44.4144 69.7554 44.4144C72.7984 44.4144 75.0386 42.9554 76.6676 41.0725C77.2641 43.0709 78.8443 44.4144 81.7428 44.4144C86.56 44.4144 89.4636 41.5574 91.1695 38.6875C92.5851 42.0218 95.9005 44.4128 100.762 44.4128C105.718 44.4128 109.552 42.3239 112.27 39.484L111.422 42.8084C111.268 43.4071 111.529 43.8779 112.232 43.8779H116.497C117.081 43.8779 117.497 43.5809 117.649 42.9676C117.724 42.6664 118.34 40.2847 119.21 36.9003C120.875 30.4242 123.551 23.7053 127.571 23.7053C128.989 23.7053 129.57 24.4979 129.57 25.7467C129.57 26.3356 129.399 26.8443 129.252 27.117C127.303 26.7298 125.735 27.6918 125.735 29.7725C125.735 31.1282 127.162 32.3604 129.087 32.3604C130.558 32.3604 131.774 31.9996 132.744 31.3467C133.699 31.5436 134.652 31.7507 135.602 31.968C135.456 32.9071 135.381 33.8559 135.378 34.8063C135.378 40.0043 139.09 44.4125 145.743 44.4125C150.956 44.4125 154.534 42.5054 157.622 40.0604C159.107 42.4894 162.855 44.4524 167.773 44.4524C174.513 44.4524 178.335 40.9478 178.335 36.3153C178.335 32.1224 174.893 30.5792 171.344 29.2944C168.458 28.252 166.051 27.6851 166.051 25.6459C166.051 23.9745 167.367 23.2099 169.622 23.2099C171.086 23.2099 172.184 23.5251 172.771 23.6896C173.352 25.1458 174.556 26.7582 176.611 26.7582C178.351 26.7582 179.131 25.3828 179.131 24.1161C179.131 20.5104 173.125 20.1324 173.125 12.3995C173.125 7.59097 175.846 3.6242 181.481 3.6242C185.396 3.6242 187.953 6.1071 187.953 10.1144C187.953 13.4183 185.949 19.2999 185.949 19.2999H182.543C181.889 19.2999 181.503 19.5675 181.355 20.1796C181.124 21.1298 180.888 22.0786 180.646 23.0259C180.503 23.578 180.824 23.9965 181.438 23.9965H184.763C184.763 23.9965 181.325 36.6758 181.325 38.9816C181.325 42.0776 183.07 44.4106 186.893 44.4106C192.301 44.4106 195.68 40.8965 197.149 35.7865C197.264 35.3913 197.04 35.0694 196.639 35.0694H194.576C194.164 35.0694 193.925 35.3042 193.821 35.7067C193.355 37.5207 192.2 39.4292 189.926 39.4292C188.604 39.4292 187.867 38.5986 187.867 37.1887C187.867 35.9705 188.673 33.1186 189.665 29.2609C190.138 27.4239 190.979 23.9968 190.979 23.9968ZM148.34 23.7802C150.253 23.7802 151.161 25.0523 151.161 26.5684C151.161 29.1326 149.172 30.6963 146.062 30.6963C144.948 30.6963 143.392 30.4325 142.473 30.1263C142.859 27.7681 144.566 23.7802 148.34 23.7802ZM103.357 23.7802C105.45 23.7802 106.177 25.0523 106.177 26.5684C106.177 29.1326 104.189 30.6963 101.078 30.6963C99.9649 30.6963 98.4086 30.4325 97.49 30.1263C97.874 27.7681 99.3876 23.7802 103.357 23.7802ZM20.6032 0C6.9581 0 0.078125 9.78297 0.078125 17.9411C0.078125 22.8807 1.94828 27.2753 5.95939 28.9125C6.61712 29.1818 7.20626 28.9218 7.39701 28.1936C7.52971 27.6896 7.84358 26.4185 7.98361 25.8887C8.17627 25.1684 8.10131 24.9158 7.57053 24.288C6.41393 22.9238 5.67486 21.1576 5.67486 18.6559C5.67486 11.3979 11.1051 4.90042 19.815 4.90042C27.5279 4.90042 31.7648 9.61296 31.7648 15.9067C31.7648 24.1876 28.1004 31.1766 22.6597 31.1766C19.6552 31.1766 17.4061 28.6918 18.127 25.6443C18.9902 22.0061 20.6622 18.0795 20.6622 15.4534C20.6622 13.1025 19.4004 11.1418 16.7889 11.1418C13.7175 11.1418 11.2502 14.3191 11.2502 18.5755C11.2502 21.2865 12.1663 23.12 12.1663 23.12C12.1663 23.12 9.02315 36.4375 8.47228 38.7698C7.375 43.4148 8.30705 49.1088 8.38583 49.6839C8.43241 50.0246 8.87036 50.1056 9.06876 49.8485C9.35201 49.4788 13.0097 44.9627 14.2537 40.4499C14.6055 39.1721 16.2738 32.5559 16.2738 32.5559C17.2715 34.4592 20.1879 36.1357 23.2893 36.1357C32.5214 36.1357 38.7854 27.7189 38.7854 16.4527C38.7854 7.93387 31.5699 0 20.6032 0Z" fill="#DBDBDB"/>
</g>
<defs>
<clipPath id="clip0_84_2230">
<rect width="197.785" height="50" fill="white"/>
</clipPath>
</defs>
</svg>
