<svg width="119" height="30" viewBox="0 0 119 30" fill="none" xmlns="http://www.w3.org/2000/svg">
<g clip-path="url(#clip0_84_2308)">
<path d="M27.2733 10.5748C28.56 10.5748 29.7944 9.50361 30.0092 8.1821C30.263 6.8958 29.3908 5.82461 28.1051 5.82461C26.819 5.82461 25.5844 6.8958 25.3664 8.1821C25.1155 9.50361 25.9518 10.5748 27.2733 10.5748ZM114.587 14.3981H117.466C117.86 14.3981 118.091 14.2379 118.18 13.8699C118.318 13.2998 118.459 12.7307 118.605 12.1625C118.69 11.8312 118.497 11.5801 118.13 11.5801H115.29C115.494 10.7662 116.291 8.12353 116.291 6.40068C116.291 2.95996 113.369 0.033301 109.224 0.033301C104.542 0.033301 101.496 3.17527 101.496 7.59646C101.496 8.88601 101.977 10.3891 102.573 11.3216C102.317 11.3069 102.06 11.2996 101.803 11.2998C98.2453 11.2998 96.0045 13.2295 96.0045 16.0375C96.0045 18.6729 98.082 19.697 100.038 20.3785C101.775 20.984 103.375 21.2658 103.375 22.6231C103.375 23.5383 102.495 24.0753 100.772 24.0753C98.7279 24.0753 97.6045 23.1126 97.3189 22.7475C97.5126 22.5953 97.8007 22.233 97.8007 21.6294C97.8007 20.785 97.2076 20.0958 96.106 20.0958C95.1739 20.0958 94.386 20.856 94.1881 21.856C92.6911 23.0807 91.0572 23.8743 88.7399 23.8743C86.4582 23.8743 85.2739 22.6876 85.2739 20.1622C85.8089 20.3251 87.2018 20.5207 88.1223 20.5207C91.9858 20.5207 94.6189 18.7653 94.6189 15.2499C94.6189 13.3596 92.9594 11.3744 89.6764 11.3744H89.6689C85.3509 11.3744 82.9321 14.1097 81.8761 17.1182C81.5802 17.0469 81.2838 16.9777 80.9869 16.9108C81.2231 16.2434 81.3926 15.47 81.3926 14.6126C81.3926 13.1267 80.4725 11.3744 78.0101 11.3744C76.2949 11.3744 74.6679 12.4978 73.5403 14.1816C73.8209 13.0833 74.0069 12.3518 74.019 12.3028C74.0925 12.0155 73.9728 11.6955 73.5248 11.6955H70.9976C70.6374 11.6955 70.3832 11.8228 70.2808 12.233C70.2121 12.5064 69.3438 15.9135 68.4985 19.231C67.966 21.2994 65.2116 23.8743 61.7496 23.8743C59.4676 23.8743 58.2842 22.6095 58.2842 20.0832C58.8814 20.3209 60.2119 20.5205 61.132 20.5205C65.1527 20.5205 67.6286 18.7651 67.6286 15.2498C67.6286 13.3594 65.9693 11.3742 62.6859 11.3742H62.6788C57.8165 11.3742 54.838 15.1508 54.3333 19.4329C54.1233 21.2129 52.6209 23.6573 50.9923 23.6573C50.1988 23.6573 49.7563 23.1589 49.7563 22.3128C49.7563 21.5821 50.2707 19.7953 50.8346 17.5561C51.0235 16.8071 51.3102 15.6643 51.628 14.3981H54.2715C54.6649 14.3981 54.8958 14.2379 54.9851 13.8699C55.1116 13.3399 55.3438 12.4153 55.4096 12.1625C55.4948 11.8312 55.303 11.5801 54.9346 11.5801H52.3352C52.3352 11.5801 53.5319 6.80508 53.5605 6.6824C53.6757 6.19686 53.2694 5.91667 52.8443 6.00605C52.8443 6.00605 50.8351 6.39934 50.4625 6.47705C50.088 6.55283 49.7973 6.75857 49.6619 7.29847L48.5978 11.5801H46.5106C46.1171 11.5801 45.8857 11.7407 45.7975 12.108C45.6588 12.6779 45.5173 13.2472 45.373 13.8157C45.2867 14.147 45.4794 14.3981 45.8474 14.3981H47.8943C47.8798 14.4567 47.155 17.2138 46.5688 19.6828C46.2928 20.8702 45.3686 23.6485 43.8551 23.6485C42.951 23.6485 42.569 23.1924 42.569 22.2143C42.569 20.6738 44.0854 16.8176 44.0854 15.0678C44.0854 12.7304 42.8314 11.3761 40.2624 11.3761C38.6431 11.3761 36.9641 12.4217 36.2525 13.3394C36.2525 13.3394 36.4684 12.5882 36.5423 12.2994C36.6212 11.9943 36.4575 11.6946 36.0569 11.6946H33.5452C33.0107 11.6946 32.8629 11.9803 32.7845 12.2946C32.7531 12.4207 31.848 15.9747 30.9791 19.3865C30.3849 21.7228 28.9409 23.6749 27.397 23.6749C26.6031 23.6749 26.2496 23.1767 26.2496 22.3306C26.2496 21.5995 26.7219 19.7955 27.2856 17.5565C27.9713 14.8306 28.5763 12.5859 28.641 12.3237C28.7254 11.9876 28.5751 11.6948 28.142 11.6948H25.6152C25.1574 11.6948 24.9939 11.935 24.8975 12.2687C24.8975 12.2687 24.1863 14.961 23.4332 17.958C22.8862 20.1331 22.2822 22.3486 22.2822 23.3896C22.2822 25.2471 23.1163 26.6473 25.4092 26.6473C27.179 26.6473 28.5795 25.7499 29.649 24.6064C29.4919 25.2253 29.3916 25.6171 29.3814 25.6571C29.2892 26.011 29.401 26.3237 29.8178 26.3237H32.4036C32.8537 26.3237 33.0267 26.1426 33.1207 25.7501C33.2112 25.3756 35.1425 17.7793 35.1425 17.7793C35.6529 15.7387 36.9155 14.3876 38.6917 14.3876C39.534 14.3876 40.263 14.9453 40.1786 16.0291C40.0848 17.2214 38.647 21.5048 38.647 23.3848C38.647 24.8077 39.1746 26.6487 41.8532 26.6487C43.6791 26.6487 45.0231 25.7733 46.0006 24.6435C46.3584 25.8425 47.3066 26.6487 49.0457 26.6487C51.936 26.6487 53.6782 24.9344 54.7017 23.2125C55.5511 25.2131 57.5403 26.6477 60.4574 26.6477C63.4306 26.6477 65.7314 25.3943 67.362 23.6904L66.8535 25.685C66.7611 26.0443 66.9174 26.3267 67.3392 26.3267H69.8984C70.2489 26.3267 70.4982 26.1486 70.5891 25.7805C70.6341 25.5999 71.0039 24.1708 71.5262 22.1402C72.525 18.2545 74.1303 14.2232 76.5426 14.2232C77.3933 14.2232 77.7422 14.6988 77.7422 15.448C77.7422 15.8013 77.6396 16.1066 77.551 16.2702C76.3818 16.0379 75.4411 16.6151 75.4411 17.8635C75.4411 18.6769 76.297 19.4162 77.4522 19.4162C78.3349 19.4162 79.0646 19.1998 79.6466 18.808C80.2195 18.9261 80.7911 19.0504 81.3613 19.1808C81.2736 19.7442 81.2287 20.3135 81.2271 20.8838C81.2271 24.0026 83.4541 26.6475 87.4458 26.6475C90.5738 26.6475 92.7204 25.5032 94.5733 24.0362C95.4641 25.4936 97.713 26.6714 100.664 26.6714C104.708 26.6714 107.001 24.5687 107.001 21.7892C107.001 19.2734 104.936 18.3475 102.806 17.5766C101.075 16.9512 99.6309 16.6111 99.6309 15.3876C99.6309 14.3847 100.42 13.9259 101.773 13.9259C102.651 13.9259 103.31 14.115 103.662 14.2138C104.011 15.0875 104.734 16.0549 105.967 16.0549C107.01 16.0549 107.479 15.2297 107.479 14.4697C107.479 12.3063 103.875 12.0795 103.875 7.43971C103.875 4.55458 105.508 2.17452 108.889 2.17452C111.238 2.17452 112.772 3.66426 112.772 6.06863C112.772 8.051 111.57 11.5799 111.57 11.5799H109.526C109.133 11.5799 108.902 11.7405 108.813 12.1078C108.674 12.6779 108.533 13.2471 108.388 13.8155C108.302 14.1468 108.494 14.3979 108.863 14.3979H110.858C110.858 14.3979 108.795 22.0055 108.795 23.389C108.795 25.2466 109.842 26.6464 112.136 26.6464C115.381 26.6464 117.408 24.5379 118.29 21.4719C118.358 21.2348 118.224 21.0416 117.984 21.0416H116.746C116.499 21.0416 116.355 21.1825 116.293 21.424C116.013 22.5124 115.32 23.6575 113.956 23.6575C113.162 23.6575 112.72 23.1591 112.72 22.3132C112.72 21.5823 113.204 19.8711 113.799 17.5565C114.083 16.4543 114.587 14.3981 114.587 14.3981ZM89.0042 14.2681C90.1516 14.2681 90.6966 15.0314 90.6966 15.941C90.6966 17.4796 89.5034 18.4178 87.637 18.4178C86.969 18.4178 86.0353 18.2595 85.4839 18.0758C85.7157 16.6608 86.7398 14.2681 89.0042 14.2681ZM62.0141 14.2681C63.27 14.2681 63.706 15.0314 63.706 15.941C63.706 17.4796 62.5133 18.4178 60.6471 18.4178C59.9789 18.4178 59.0452 18.2595 58.494 18.0758C58.7244 16.6608 59.6325 14.2681 62.0141 14.2681ZM12.3619 0C4.17486 0 0.046875 5.86978 0.046875 10.7646C0.046875 13.7284 1.16897 16.3652 3.57563 17.3475C3.97027 17.5091 4.32376 17.3531 4.43821 16.9161C4.51782 16.6138 4.70615 15.8511 4.79016 15.5332C4.90576 15.1011 4.86079 14.9495 4.54232 14.5728C3.84836 13.7543 3.40492 12.6946 3.40492 11.1935C3.40492 6.83876 6.66306 2.94025 11.889 2.94025C16.5167 2.94025 19.0589 5.76777 19.0589 9.54399C19.0589 14.5125 16.8603 18.706 13.5958 18.706C11.7931 18.706 10.4437 17.2151 10.8762 15.3866C11.3941 13.2037 12.3973 10.8477 12.3973 9.27203C12.3973 7.86153 11.6402 6.68508 10.0734 6.68508C8.2305 6.68508 6.75014 8.59147 6.75014 11.1453C6.75014 12.7719 7.2998 13.872 7.2998 13.872C7.2998 13.872 5.41389 21.8625 5.08337 23.2619C4.425 26.0489 4.98423 29.4653 5.0315 29.8103C5.05944 30.0147 5.32222 30.0633 5.44126 29.9091C5.61121 29.6873 7.80582 26.9776 8.55222 24.2699C8.76332 23.5032 9.76426 19.5335 9.76426 19.5335C10.3629 20.6755 12.1128 21.6814 13.9736 21.6814C19.5128 21.6814 23.2713 16.6314 23.2713 9.87164C23.2713 4.76032 18.9419 0 12.3619 0Z" fill="#DBDBDB"/>
</g>
<defs>
<clipPath id="clip0_84_2308">
<rect width="118.671" height="30" fill="white"/>
</clipPath>
</defs>
</svg>
