<svg width="50" height="50" viewBox="0 0 50 50" fill="none" xmlns="http://www.w3.org/2000/svg">
<path d="M5.47813 3.12359C5.37474 3.12235 5.27214 3.14163 5.17627 3.18034C5.0804 3.21904 4.99317 3.27637 4.91963 3.34904C4.84609 3.42171 4.7877 3.50827 4.74785 3.60367C4.70801 3.69907 4.68749 3.80145 4.6875 3.90484V35.0485C4.6875 35.2557 4.76981 35.4546 4.91632 35.6011C5.06284 35.7476 5.26155 35.8298 5.46875 35.8298H15.2344C15.4416 35.8298 15.6403 35.7476 15.7868 35.6011C15.9333 35.4546 16.0156 35.2557 16.0156 35.0485C16.0156 34.8413 15.9333 34.6427 15.7868 34.4961C15.6403 34.3496 15.4416 34.2673 15.2344 34.2673H6.25V4.69544L11.175 4.75952C11.1781 4.75954 11.1813 4.75954 11.1844 4.75952H20.6109L21.4328 8.64851C21.4701 8.82382 21.5665 8.98103 21.7059 9.09369C21.8453 9.20634 22.0192 9.26759 22.1984 9.26726H43.75V34.2673H34.7656C34.5584 34.2673 34.3597 34.3496 34.2132 34.4961C34.0667 34.6427 33.9844 34.8413 33.9844 35.0485C33.9844 35.2557 34.0667 35.4546 34.2132 35.6011C34.3597 35.7476 34.5584 35.8298 34.7656 35.8298H44.5312C44.7384 35.8298 44.9372 35.7476 45.0837 35.6011C45.2302 35.4546 45.3125 35.2557 45.3125 35.0485V8.48601C45.3125 8.27881 45.2302 8.08015 45.0837 7.93364C44.9372 7.78713 44.7384 7.70476 44.5312 7.70476H22.8297L22.0094 3.81729C21.9724 3.6417 21.8761 3.48423 21.7367 3.37126C21.5973 3.2583 21.4232 3.19676 21.2437 3.19702H11.1906L5.47813 3.12359Z" fill="black"/>
<path d="M5.46875 12.2969C5.26155 12.2969 5.06284 12.3791 4.91632 12.5256C4.76981 12.6721 4.6875 12.8709 4.6875 13.0781V35.0609C4.6875 35.2681 4.76981 35.4667 4.91632 35.6133C5.06284 35.7598 5.26155 35.8421 5.46875 35.8421H15.2344C15.4416 35.8421 15.6403 35.7598 15.7868 35.6133C15.9333 35.4667 16.0156 35.2681 16.0156 35.0609C16.0156 34.8537 15.9333 34.6548 15.7868 34.5083C15.6403 34.3618 15.4416 34.2796 15.2344 34.2796H6.25V13.8594H43.75V34.2796H34.7656C34.5584 34.2796 34.3597 34.3618 34.2132 34.5083C34.0667 34.6548 33.9844 34.8537 33.9844 35.0609C33.9844 35.2681 34.0667 35.4667 34.2132 35.6133C34.3597 35.7598 34.5584 35.8421 34.7656 35.8421H44.5312C44.7384 35.8421 44.9372 35.7598 45.0837 35.6133C45.2302 35.4667 45.3125 35.2681 45.3125 35.0609V13.0781C45.3125 12.8709 45.2302 12.6721 45.0837 12.5256C44.9372 12.3791 44.7384 12.2969 44.5312 12.2969H5.46875Z" fill="black"/>
<path d="M24.9719 20.3145C24.8886 20.3175 24.8063 20.3339 24.7281 20.3629C21.9609 21.3879 17.6609 23.1097 14.0625 23.1097C13.8553 23.1097 13.6566 23.192 13.5101 23.3386C13.3636 23.4851 13.2812 23.6837 13.2812 23.8909C13.2812 37.2347 18.9656 43.391 24.6 46.7644C24.721 46.8365 24.8592 46.8745 25 46.8745C25.1408 46.8745 25.279 46.8365 25.4 46.7644C30.9734 43.4285 36.7188 37.2003 36.7188 23.8909C36.7188 23.6837 36.6364 23.4851 36.4899 23.3386C36.3434 23.192 36.1447 23.1097 35.9375 23.1097C31.1641 23.1097 27.7484 21.3128 25.2812 20.366C25.1826 20.3286 25.0773 20.3116 24.9719 20.316V20.3145ZM24.9875 21.9285C27.1406 22.7816 30.5625 24.3159 35.0859 24.5331C34.8937 36.5534 30.0234 41.9973 25 45.127C19.9156 41.9645 15.1 36.5926 14.9109 24.5285C18.6297 24.3098 22.4531 22.8769 24.9891 21.9285H24.9875Z" fill="#D62151"/>
<path fill-rule="evenodd" clip-rule="evenodd" d="M27.1523 29.686L21.7695 34.7987L22.8477 35.933L28.2289 30.8221L27.1523 29.686Z" fill="#D62151"/>
<path fill-rule="evenodd" clip-rule="evenodd" d="M22.8457 29.686L21.7676 30.8221L27.152 35.933L28.2301 34.7987L22.8457 29.686Z" fill="#D62151"/>
</svg>
