<svg width="30" height="30" viewBox="0 0 30 30" fill="none" xmlns="http://www.w3.org/2000/svg">
<path d="M15 30C23.2843 30 30 23.2843 30 15C30 6.71573 23.2843 0 15 0C6.71573 0 0 6.71573 0 15C0 23.2843 6.71573 30 15 30Z" fill="#2DAAE1"/>
<path d="M24.6184 9.03305C23.9108 9.34701 23.1509 9.55925 22.3519 9.65465C23.1674 9.16634 23.7921 8.39256 24.087 7.47162C23.3124 7.9317 22.4647 8.25559 21.5806 8.42923C20.8612 7.66237 19.8353 7.18359 18.7003 7.18359C16.5217 7.18359 14.7548 8.94972 14.7548 11.1296C14.7548 11.4384 14.7896 11.7398 14.8565 12.0291C11.5769 11.8643 8.66937 10.2933 6.72319 7.90624C6.38336 8.48923 6.18884 9.16706 6.18884 9.89027C6.18884 11.2591 6.88556 12.4669 7.94422 13.1743C7.31751 13.1549 6.70456 12.9857 6.1566 12.681V12.7308C6.1566 14.6429 7.51658 16.2372 9.32188 16.5998C8.99025 16.6907 8.64222 16.7382 8.28217 16.7382C8.0276 16.7382 7.78062 16.7141 7.53935 16.6687C8.0415 18.2359 9.49882 19.3766 11.2251 19.4089C9.87456 20.4675 8.17286 21.0986 6.32463 21.0986C6.00629 21.0986 5.69167 21.0796 5.38281 21.0424C7.12938 22.1623 9.20315 22.8161 11.4317 22.8161C18.6895 22.8161 22.6589 16.8033 22.6589 11.5889C22.6589 11.4177 22.6551 11.2478 22.6469 11.0784C23.4202 10.5191 24.0878 9.82646 24.6184 9.03305Z" fill="white"/>
</svg>
