<svg width="80" height="80" viewBox="0 0 80 80" fill="none" xmlns="http://www.w3.org/2000/svg">
<path fill-rule="evenodd" clip-rule="evenodd" d="M0 0H80V80H0V0Z" fill="white"/>
<path fill-rule="evenodd" clip-rule="evenodd" d="M3.5293 15.5433H11.2651L15.5515 45.0235L19.733 15.5433H72.7351L70.9584 24.0112H26.215L19.4196 62.7956H11.6834L3.5293 15.5433Z" fill="black"/>
<path fill-rule="evenodd" clip-rule="evenodd" d="M74.0954 51.8188C74.3046 56.4182 71.6911 63.4227 65.9408 63.4227C59.2509 63.4227 57.7871 55.1644 57.7871 51.7143H63.2232C63.2232 53.7002 64.8962 55.6869 66.1504 55.6869C67.4051 55.6869 68.6601 54.1185 68.6601 53.0735C68.6601 52.0276 68.2418 50.46 66.2558 49.1008C59.7735 45.2327 58.31 40.7371 58.31 36.8694C58.1009 32.2696 60.296 25.4742 66.0458 25.4742C71.7961 25.4742 73.3641 33.5242 73.3641 36.8694H68.2418C68.2418 34.9876 66.9871 33.6288 65.7329 33.6288C64.4783 33.6288 63.6416 34.883 63.6416 35.9289C63.6416 36.9744 63.8507 37.9153 65.8375 39.2741C68.5551 40.5287 74.0954 44.6056 74.0954 51.8188ZM74.4058 60.7051C74.626 60.7048 74.844 60.7479 75.0474 60.832C75.2508 60.9161 75.4357 61.0395 75.5913 61.1951C75.747 61.3508 75.8704 61.5356 75.9545 61.739C76.0385 61.9424 76.0817 62.1605 76.0813 62.3806C76.0827 62.6015 76.0405 62.8205 75.9569 63.025C75.8733 63.2295 75.7501 63.4155 75.5944 63.5722C75.4387 63.7289 75.2535 63.8532 75.0495 63.938C74.8455 64.0229 74.6268 64.0665 74.4058 64.0665C74.1843 64.0671 73.9647 64.0239 73.7599 63.9395C73.5551 63.855 73.369 63.7308 73.2123 63.5741C73.0556 63.4175 72.9315 63.2313 72.847 63.0265C72.7625 62.8217 72.7193 62.6022 72.72 62.3806C72.72 61.453 73.4737 60.7051 74.4058 60.7051V60.3154C73.257 60.3154 72.3298 61.2426 72.3298 62.381C72.3295 62.6537 72.3829 62.9239 72.4871 63.1759C72.5913 63.4279 72.7442 63.657 72.937 63.8498C73.1299 64.0427 73.3589 64.1956 73.6109 64.2998C73.863 64.4039 74.1331 64.4574 74.4058 64.457C75.5439 64.457 76.4715 63.5298 76.4715 62.381C76.4706 61.8334 76.2527 61.3085 75.8655 60.9214C75.4783 60.5342 74.9534 60.3163 74.4058 60.3154V60.7051Z" fill="black"/>
<path fill-rule="evenodd" clip-rule="evenodd" d="M73.9883 61.6066H74.5308C74.747 61.6066 75.0633 61.6066 75.0633 61.8959C75.0633 62.1806 74.889 62.2387 74.6416 62.2329H73.9883V62.5653H74.4254L74.9205 63.5137H75.4318L74.8886 62.5653C75.2841 62.5388 75.4999 62.3698 75.4999 61.9648C75.4999 61.7328 75.4368 61.5165 75.2364 61.3854C75.0678 61.28 74.8205 61.2742 74.6308 61.2742H73.5501V63.5137H73.9879V61.6066H73.9883ZM28.932 50.2513L31.0229 36.6607L33.1139 50.2513H28.932ZM27.6778 57.8825H34.1593L34.9956 62.7957H45.3449V43.3514L51.7219 62.7957H57.0534V26.6248H51.6173V45.024L45.5541 26.6248H39.9092V60.6006L34.0548 26.6248H27.9911L21.7188 62.7957H27.0503L27.6778 57.8825Z" fill="black"/>
</svg>
