<svg width="152" height="33" viewBox="0 0 152 33" fill="none" xmlns="http://www.w3.org/2000/svg">
<path d="M6.1377 24.8936C5.78613 24.7471 5.4248 24.5762 5.05371 24.3809C4.69238 24.1855 4.26758 23.8291 3.7793 23.3115C3.30078 22.7842 2.85156 22.1055 2.43164 21.2754C1.43555 19.3418 0.9375 17.0811 0.9375 14.4932C0.9375 11.7588 1.66992 9.33203 3.13477 7.21289C4.05273 5.9043 5.07812 4.99609 6.21094 4.48828C6.78711 4.23438 7.38281 4.10742 7.99805 4.10742C8.62305 4.10742 9.16992 4.22461 9.63867 4.45898C10.1172 4.68359 10.5078 4.95703 10.8105 5.2793C11.1133 5.5918 11.333 5.90918 11.4697 6.23145C11.6162 6.55371 11.6895 6.89551 11.6895 7.25684C11.6895 7.6084 11.5723 7.99414 11.3379 8.41406C11.1035 8.83398 10.8154 9.21973 10.4736 9.57129C10.1416 9.92285 9.78027 10.2598 9.38965 10.582C8.99902 10.8945 8.65234 11.2168 8.34961 11.5488C7.64648 13.0039 7.29492 14.4199 7.29492 15.7969C7.29492 17.2422 7.6709 18.3408 8.42285 19.0928C8.65723 19.3271 8.9209 19.498 9.21387 19.6055C10.3271 19.2441 11.9434 17.8623 14.0625 15.46C15.6445 13.5654 16.7627 12.1787 17.417 11.2998L19.0723 9C20.6445 6.73438 22.2559 5.23047 23.9062 4.48828C24.541 4.19531 25.1465 4.05371 25.7227 4.06348C26.3086 4.07324 26.7725 4.14648 27.1143 4.2832C27.4658 4.41016 27.7539 4.58105 27.9785 4.7959C28.4082 5.22559 28.623 5.71387 28.623 6.26074C28.623 7.2666 28.2812 8.16504 27.5977 8.95605C25.5469 11.2021 23.9844 12.8721 22.9102 13.9658L19.8633 16.9395L17.0801 19.4883C12.793 23.248 9.81445 25.1279 8.14453 25.1279C7.16797 25.1279 6.49902 25.0498 6.1377 24.8936ZM37.6904 7.06641C37.4072 7.30078 37.0996 7.49609 36.7676 7.65234C36.4355 7.79883 36.0645 7.87207 35.6543 7.87207C35.2441 7.87207 34.8486 7.80371 34.4678 7.66699C34.0869 7.53027 33.7549 7.33984 33.4717 7.0957C32.8564 6.56836 32.5488 5.89453 32.5488 5.07422C32.5488 3.81445 33.6035 2.87695 35.7129 2.26172C36.4258 2.04687 37.0117 1.93945 37.4707 1.93945C37.9297 1.93945 38.2715 1.99316 38.4961 2.10059C38.7305 2.19824 38.9209 2.33008 39.0674 2.49609C39.3604 2.82813 39.5068 3.16992 39.5068 3.52148C39.5068 3.86328 39.4629 4.17578 39.375 4.45898C39.2969 4.74219 39.1797 5.03516 39.0234 5.33789C38.8672 5.64062 38.6768 5.94336 38.4521 6.24609C38.2275 6.54883 37.9736 6.82227 37.6904 7.06641ZM33.999 23.1943C33.2568 23.5752 32.5342 23.8779 31.8311 24.1025C31.1279 24.3369 30.4346 24.4541 29.751 24.4541C29.0771 24.4541 28.374 24.293 27.6416 23.9707C26.9189 23.6387 26.2744 23.1992 25.708 22.6523C24.4482 21.4316 23.8184 20.0742 23.8184 18.5801C23.8184 17.2031 24.2285 15.8066 25.0488 14.3906C25.8008 13.1113 26.7578 12.0371 27.9199 11.168C29.082 10.2988 30.1611 9.86426 31.1572 9.86426C32.583 9.86426 33.3447 10.2646 33.4424 11.0654C33.4717 11.3096 33.4863 11.5928 33.4863 11.915C33.4863 12.2373 33.4082 12.6084 33.252 13.0283C33.1055 13.4385 32.9102 13.8535 32.666 14.2734C32.4316 14.6836 32.168 15.0889 31.875 15.4893C31.5918 15.8799 31.3184 16.2363 31.0547 16.5586C30.5469 17.1738 30.1416 17.6182 29.8389 17.8916C29.8389 18.2236 30.0879 18.5654 30.5859 18.917C31.0547 19.249 31.4502 19.415 31.7725 19.415C32.1045 19.415 32.4902 19.3369 32.9297 19.1807C33.3789 19.0244 33.8379 18.8145 34.3066 18.5508C34.7852 18.2871 35.2686 17.9844 35.7568 17.6426C36.2549 17.3008 36.7432 16.9492 37.2217 16.5879L39.9023 14.4932C40.9668 13.7217 41.8311 13.3359 42.4951 13.3359C42.7588 13.3359 42.959 13.4336 43.0957 13.6289C43.2422 13.8145 43.3154 14.0342 43.3154 14.2881C43.3154 14.542 43.1885 14.8936 42.9346 15.3428C42.6807 15.7822 42.3291 16.2705 41.8799 16.8076C41.4404 17.3447 40.9229 17.9062 40.3271 18.4922C39.7314 19.0781 39.0869 19.6543 38.3936 20.2207C37.7002 20.7871 36.9775 21.3291 36.2256 21.8467C35.4834 22.3545 34.7412 22.8037 33.999 23.1943ZM64.9072 13.1748C65.3467 13.1748 65.5664 13.3994 65.5664 13.8486C65.5664 14.5615 65.0977 15.5674 64.1602 16.8662C63.5059 17.7744 62.1582 19.0342 60.1172 20.6455C57.6855 22.5498 55.7324 23.502 54.2578 23.502C53.1445 23.502 52.3047 23.0332 51.7383 22.0957C51.3965 21.5293 51.1182 20.6992 50.9033 19.6055L49.5996 20.543C46.0156 23.0234 43.3398 24.2637 41.5723 24.2637C40.0977 24.2637 38.916 23.7266 38.0273 22.6523C37.2461 21.6855 36.8555 20.5283 36.8555 19.1807C36.8555 17.6963 37.3633 16.5244 38.3789 15.665C40.4492 13.9268 43.0225 12.4961 46.0986 11.373C47.3486 10.9141 48.1396 10.6846 48.4717 10.6846C48.8037 10.6846 49.1064 10.7432 49.3799 10.8604C49.6631 10.9678 49.9414 11.1094 50.2148 11.2852C50.8594 11.7246 51.1816 12.1494 51.1816 12.5596C51.1816 12.8916 50.9766 13.1602 50.5664 13.3652C50.4395 13.4336 50.2246 13.5264 49.9219 13.6436C49.6191 13.7607 49.248 13.9219 48.8086 14.127C47.627 14.6836 46.4746 15.3574 45.3516 16.1484C44.5508 16.832 44.1504 17.3789 44.1504 17.7891C44.1504 18.1895 44.4336 18.3896 45 18.3896C45.4688 18.3896 46.4062 17.9746 47.8125 17.1445C47.8125 17.1445 48.2275 16.8906 49.0576 16.3828C49.9463 15.8262 50.6592 15.3184 51.1963 14.8594C51.1963 14.8594 51.4209 14.127 51.8701 12.6621C52.7002 10.0449 53.623 7.88184 54.6387 6.17285C56.4355 2.72559 58.2422 1.00195 60.0586 1.00195C60.7227 1.00195 61.25 1.12402 61.6406 1.36816C62.3438 1.80762 62.6953 2.2959 62.6953 2.83301C62.6953 3.36035 62.5977 3.92187 62.4023 4.51758C62.207 5.11328 61.9482 5.7041 61.626 6.29004C61.3135 6.87598 60.9521 7.45703 60.542 8.0332L58.0371 11.3438C57.6172 11.8809 57.2461 12.4033 56.9238 12.9111C56.3574 14.1318 56.0742 15.1768 56.0742 16.0459C56.0742 17.2959 56.5283 17.9209 57.4365 17.9209C57.9541 17.9209 58.8867 17.3789 60.2344 16.2949L61.9629 14.8301C62.7734 14.1074 63.5742 13.5996 64.3652 13.3066C64.5898 13.2188 64.7705 13.1748 64.9072 13.1748ZM65.1562 23.0918C64.9902 22.8086 64.9268 22.5352 64.9658 22.2715C65.0146 21.998 65.1465 21.6465 65.3613 21.2168C65.5762 20.7773 65.8691 20.2305 66.2402 19.5762L67.5293 17.3789L69.1113 14.7715L70.8984 11.959L72.7734 9.14648C70.4199 9.73242 68.623 10.4307 67.3828 11.2412C67.1777 11.3779 67.002 11.5195 66.8555 11.666L66.3574 12.1641C66.0547 12.4668 65.7568 12.6182 65.4639 12.6182C65.1709 12.6182 64.9414 12.584 64.7754 12.5156C64.6191 12.4375 64.4922 12.3398 64.3945 12.2227C64.1504 11.9395 64.1064 11.627 64.2627 11.2852C64.6826 9.9375 65.2832 8.56055 66.0645 7.1543C66.4941 6.37305 66.8359 5.92383 67.0898 5.80664C68.9453 5.00586 72.8125 4.4248 78.6914 4.06348C80.6055 3.94629 82.6172 3.8877 84.7266 3.8877C86.1035 3.8877 87.4121 4.38086 88.6523 5.36719C90.0391 6.49023 90.7324 7.89648 90.7324 9.58594C90.7324 11.793 88.8379 13.8828 85.0488 15.8555C82.9492 16.959 80.9766 17.7305 79.1309 18.1699C78.6523 18.2773 78.2812 18.3311 78.0176 18.3311C77.7637 18.3311 77.4707 18.2969 77.1387 18.2285C76.8164 18.1602 76.5234 18.0625 76.2598 17.9355C75.6348 17.623 75.3223 17.2471 75.3223 16.8076C75.3223 16.1826 75.9229 15.5479 77.124 14.9033L80.2734 13.2041C82.1387 12.208 83.291 11.4854 83.7305 11.0361C84.1699 10.5869 84.3896 10.2207 84.3896 9.9375C84.3896 9.64453 84.3311 9.37598 84.2139 9.13184C84.1064 8.8877 83.9551 8.66797 83.7598 8.47266C83.3398 8.05273 82.8906 7.84277 82.4121 7.84277C81.416 7.84277 80.2148 7.9209 78.8086 8.07715L77.0215 11.2266C74.7363 15.377 73.1836 19.1074 72.3633 22.418C72.0312 23.707 70.7764 24.3516 68.5986 24.3516C66.8018 24.3516 65.6543 23.9316 65.1562 23.0918ZM107.051 13.6582C107.676 13.6582 107.988 13.917 107.988 14.4346C107.988 15.0693 107.607 15.8262 106.846 16.7051C105.586 18.1699 104.102 19.5957 102.393 20.9824C99.6094 23.209 97.124 24.3223 94.9365 24.3223C93.3643 24.3223 92.0752 23.6387 91.0693 22.2715C90.0244 20.8457 89.502 18.9316 89.502 16.5293C89.502 13.375 91.04 9.88867 94.1162 6.07031C96.0693 3.63867 97.9102 1.98828 99.6387 1.11914C100.176 0.845703 100.586 0.708984 100.869 0.708984C101.162 0.708984 101.426 0.757812 101.66 0.855469C101.904 0.943359 102.129 1.07031 102.334 1.23633C102.812 1.63672 103.052 2.12012 103.052 2.68652C103.052 3.25293 102.896 3.92676 102.583 4.70801C102.271 5.47949 101.816 6.30469 101.221 7.18359C99.9609 9.04883 98.2568 10.8359 96.1084 12.5449C95.5518 13.6094 95.2734 14.8887 95.2734 16.3828C95.2734 17.0566 95.4883 17.6914 95.918 18.2871C96.3574 18.8828 96.8408 19.1807 97.3682 19.1807C98.0908 19.1807 99.4727 18.4336 101.514 16.9395L104.121 14.9326C105.186 14.083 106.162 13.6582 107.051 13.6582ZM130.151 12.999C130.464 12.999 130.62 13.2627 130.62 13.79C130.62 14.6982 129.985 15.875 128.716 17.3203L127.881 18.1699C125.352 20.6992 122.969 22.3838 120.732 23.2236C119.346 23.7412 118.35 23.7168 117.744 23.1504C117.246 22.6719 116.851 21.9004 116.558 20.8359L116.206 19.5615L113.086 21.4805L111.284 22.5059C109.136 23.6777 107.524 24.2637 106.45 24.2637C105.073 24.2637 103.926 23.7314 103.008 22.667C102.129 21.6611 101.689 20.4941 101.689 19.166C101.689 17.8574 102.212 16.6904 103.257 15.665C104.751 14.2002 107.109 12.8574 110.332 11.6367C113.379 10.4941 115.84 9.92285 117.715 9.92285C118.35 9.92285 118.667 10.2354 118.667 10.8604C118.667 11.29 118.584 11.6123 118.418 11.8271C118.252 12.042 117.91 12.2617 117.393 12.4863L115.547 13.2773C112.812 14.4199 110.811 15.6064 109.541 16.8369C109.18 17.1787 108.999 17.5107 108.999 17.833C108.999 18.1553 109.258 18.3164 109.775 18.3164C110.283 18.3164 111.465 17.7695 113.32 16.6758L114.536 15.958C116.421 14.8252 117.998 14.2588 119.268 14.2588C120.342 14.2588 121.055 14.7324 121.406 15.6797C121.494 15.9336 121.577 16.1924 121.655 16.4561C121.733 16.71 121.812 16.9395 121.89 17.1445C122.065 17.623 122.222 17.8623 122.358 17.8623C122.505 17.8623 122.71 17.7939 122.974 17.6572C123.237 17.5107 123.525 17.3301 123.838 17.1152C124.16 16.8906 124.492 16.6465 124.834 16.3828L126.606 14.9619C128.179 13.6533 129.36 12.999 130.151 12.999ZM132.334 17.7744C132.334 18.2236 132.632 18.4482 133.228 18.4482C134.438 18.4482 136.499 16.9395 139.409 13.9219L140.83 12.4863C141.797 11.5391 142.437 11.0654 142.749 11.0654C143.062 11.0654 143.34 11.1191 143.584 11.2266C143.828 11.334 144.043 11.4707 144.229 11.6367C144.609 11.9785 144.8 12.3447 144.8 12.7354C144.8 13.1162 144.756 13.541 144.668 14.0098C144.59 14.4688 144.463 14.9863 144.287 15.5625C143.965 16.6367 143.384 18.0771 142.544 19.8838L141.943 21.1729L144.434 18.917L149.531 14.5518C150.049 14.1611 150.479 13.9658 150.82 13.9658C151.562 13.9658 151.934 14.3223 151.934 15.0352C151.934 15.7676 151.455 16.71 150.498 17.8623C150.205 18.2236 149.888 18.5605 149.546 18.873L146.089 21.876L139.351 27.5742C138.755 28.0918 138.306 28.502 138.003 28.8047C137.642 29.3906 137.358 29.8252 137.153 30.1084C136.958 30.4014 136.763 30.709 136.567 31.0312C136.372 31.3633 136.182 31.6465 135.996 31.8809C135.596 32.3887 135.195 32.6426 134.795 32.6426C134.375 32.6426 133.97 32.4717 133.579 32.1299C132.856 31.4951 132.495 30.9287 132.495 30.4307C132.495 29.9326 132.632 29.3516 132.905 28.6875C133.179 28.0332 133.535 27.2812 133.975 26.4316L137.08 20.7041C135.586 22.0518 134.414 22.9453 133.564 23.3848C132.715 23.8145 131.997 24.0977 131.411 24.2344C130.835 24.3809 130.22 24.4541 129.565 24.4541C128.921 24.4541 128.354 24.3174 127.866 24.0439C127.378 23.7803 126.973 23.4238 126.65 22.9746C126.025 22.0859 125.713 20.9287 125.713 19.5029C125.713 17.9893 126.094 16.4951 126.855 15.0205C127.588 13.5752 128.555 12.4131 129.756 11.5342C131.025 10.5967 132.329 10.1279 133.667 10.1279C135.005 10.1279 135.674 10.6504 135.674 11.6953C135.674 12.3496 135.117 13.3213 134.004 14.6104C132.891 15.8896 132.334 16.9443 132.334 17.7744Z" fill="#D62151"/>
</svg>
