<svg width="100" height="100" viewBox="0 0 100 100" fill="none" xmlns="http://www.w3.org/2000/svg">
<path d="M36.875 64.0625L41.875 35.9375H49.6875L44.8438 64.0625H36.875Z" fill="white"/>
<path d="M36.875 64.0625L43.2813 35.9375H49.6875L44.8438 64.0625H36.875Z" fill="white"/>
<path d="M73.125 36.25C71.5625 35.625 69.0625 35 65.9375 35C58.125 35 52.5 38.9063 52.5 44.5313C52.5 48.75 56.4062 50.9375 59.5312 52.3438C62.6562 53.75 63.5938 54.6875 63.5938 55.9375C63.5938 57.8125 61.0938 58.75 58.9063 58.75C55.7813 58.75 54.0625 58.2812 51.4063 57.1875L50.3125 56.7188L49.2188 63.125C51.0938 63.9063 54.5313 64.6875 58.125 64.6875C66.4063 64.6875 71.875 60.7812 71.875 54.8437C71.875 51.5625 69.8438 49.0625 65.1563 47.0313C62.3438 45.625 60.625 44.8437 60.625 43.4375C60.625 42.1875 62.0313 40.9375 65.1563 40.9375C67.8125 40.9375 69.6875 41.4062 71.0938 42.0312L71.875 42.3438L73.125 36.25Z" fill="white"/>
<path d="M73.125 36.25C71.5625 35.625 69.0625 35 65.9375 35C58.125 35 53.9062 38.9063 53.9062 44.5313C53.9062 48.75 56.4062 50.9375 59.5312 52.3438C62.6562 53.75 63.5938 54.6875 63.5938 55.9375C63.5938 57.8125 61.0938 58.75 58.9063 58.75C55.7813 58.75 54.0625 58.2812 51.4063 57.1875L50.3125 56.7188L49.2188 63.125C51.0938 63.9063 54.5313 64.6875 58.125 64.6875C66.4063 64.6875 71.875 60.7812 71.875 54.8437C71.875 51.5625 69.8438 49.0625 65.1563 47.0313C62.3438 45.625 60.625 44.8437 60.625 43.4375C60.625 42.1875 62.0313 40.9375 65.1563 40.9375C67.8125 40.9375 69.6875 41.4062 71.0938 42.0312L71.875 42.3438L73.125 36.25Z" fill="white"/>
<path d="M86.5625 35.9375C84.6875 35.9375 83.2812 36.0937 82.5 37.9687L70.7812 64.0625H79.2188L80.7813 59.375H90.7812L91.7188 64.0625H99.2188L92.6562 35.9375H86.5625ZM82.9687 54.6875C83.4375 53.2812 86.0937 46.4063 86.0937 46.4063C86.0937 46.4063 86.7188 44.6875 87.1875 43.5937L87.6562 46.25C87.6562 46.25 89.2188 53.2812 89.5312 54.8437H82.9687V54.6875Z" fill="white"/>
<path d="M88.4375 35.9375C86.5625 35.9375 85.1563 36.0937 84.375 37.9687L70.7812 64.0625H79.2188L80.7813 59.375H90.7812L91.7188 64.0625H99.2188L92.6562 35.9375H88.4375ZM82.9687 54.6875C83.5937 53.125 86.0937 46.4063 86.0937 46.4063C86.0937 46.4063 86.7188 44.6875 87.1875 43.5937L87.6562 46.25C87.6562 46.25 89.2188 53.2812 89.5312 54.8437H82.9687V54.6875Z" fill="white"/>
<path d="M22.5 55.625L21.7187 51.5625C20.3125 46.875 15.7812 41.7188 10.7812 39.2188L17.8125 64.2187H26.25L38.9062 36.0938H30.4688L22.5 55.625Z" fill="white"/>
<path d="M22.5 55.625L21.7187 51.5625C20.3125 46.875 15.7812 41.7188 10.7812 39.2188L17.8125 64.2187H26.25L38.9062 36.0938H32.0312L22.5 55.625Z" fill="white"/>
<path d="M0.78125 35.9375L2.1875 36.25C12.1875 38.5938 19.0625 44.5312 21.7188 51.5625L18.9062 38.2812C18.4375 36.4062 17.0312 35.9375 15.3125 35.9375H0.78125Z" fill="#727272"/>
<path d="M0.78125 35.9375C10.7812 38.2812 19.0625 44.375 21.7188 51.4063L19.0625 40.3125C18.5938 38.4375 17.0312 37.3437 15.3125 37.3437L0.78125 35.9375Z" fill="white"/>
<path d="M0.78125 35.9375C10.7812 38.2812 19.0625 44.375 21.7188 51.4063L19.8438 45.3125C19.375 43.4375 18.75 41.5625 16.5625 40.7813L0.78125 35.9375Z" fill="#999999"/>
<path d="M30.3125 54.6875L25 49.375L22.5 55.3125L21.875 51.4063C20.4688 46.7188 15.9375 41.5625 10.9375 39.0625L17.9688 64.0625H26.4062L30.3125 54.6875ZM44.8438 64.0625L38.125 57.1875L36.875 64.0625H44.8438ZM62.8125 54.375C63.4375 55 63.75 55.4688 63.5938 56.0938C63.5938 57.9688 61.0938 58.9063 58.9062 58.9063C55.7812 58.9063 54.0625 58.4375 51.4063 57.3438L50.3125 56.875L49.2188 63.2812C51.0938 64.0625 54.5312 64.8438 58.125 64.8438C63.125 64.8438 67.1875 63.4375 69.5312 60.9375L62.8125 54.375ZM71.875 64.0625H79.2188L80.7812 59.375H90.7812L91.7188 64.0625H99.2188L96.5625 52.6563L87.1875 43.5937L87.6562 46.0938C87.6562 46.0938 89.2188 53.125 89.5312 54.6875H82.9688C83.5938 53.125 86.0938 46.4063 86.0938 46.4063C86.0938 46.4063 86.7188 44.6875 87.1875 43.5937" fill="#E6EAF8"/>
</svg>
