<svg width="80" height="80" viewBox="0 0 80 80" fill="none" xmlns="http://www.w3.org/2000/svg">
<path d="M29.5 51.25L33.5 28.75H39.75L35.875 51.25H29.5Z" fill="#3C58BF"/>
<path d="M29.5 51.25L34.625 28.75H39.75L35.875 51.25H29.5Z" fill="#293688"/>
<path d="M58.5 29C57.25 28.5 55.25 28 52.75 28C46.5 28 42 31.125 42 35.625C42 39 45.125 40.75 47.625 41.875C50.125 43 50.875 43.75 50.875 44.75C50.875 46.25 48.875 47 47.125 47C44.625 47 43.25 46.625 41.125 45.75L40.25 45.375L39.375 50.5C40.875 51.125 43.625 51.75 46.5 51.75C53.125 51.75 57.5 48.625 57.5 43.875C57.5 41.25 55.875 39.25 52.125 37.625C49.875 36.5 48.5 35.875 48.5 34.75C48.5 33.75 49.625 32.75 52.125 32.75C54.25 32.75 55.75 33.125 56.875 33.625L57.5 33.875L58.5 29Z" fill="#3C58BF"/>
<path d="M58.5 29C57.25 28.5 55.25 28 52.75 28C46.5 28 43.125 31.125 43.125 35.625C43.125 39 45.125 40.75 47.625 41.875C50.125 43 50.875 43.75 50.875 44.75C50.875 46.25 48.875 47 47.125 47C44.625 47 43.25 46.625 41.125 45.75L40.25 45.375L39.375 50.5C40.875 51.125 43.625 51.75 46.5 51.75C53.125 51.75 57.5 48.625 57.5 43.875C57.5 41.25 55.875 39.25 52.125 37.625C49.875 36.5 48.5 35.875 48.5 34.75C48.5 33.75 49.625 32.75 52.125 32.75C54.25 32.75 55.75 33.125 56.875 33.625L57.5 33.875L58.5 29Z" fill="#293688"/>
<path d="M69.25 28.75C67.75 28.75 66.625 28.875 66 30.375L56.625 51.25H63.375L64.625 47.5H72.625L73.375 51.25H79.375L74.125 28.75H69.25ZM66.375 43.75C66.75 42.625 68.875 37.125 68.875 37.125C68.875 37.125 69.375 35.75 69.75 34.875L70.125 37C70.125 37 71.375 42.625 71.625 43.875H66.375V43.75Z" fill="#3C58BF"/>
<path d="M70.75 28.75C69.25 28.75 68.125 28.875 67.5 30.375L56.625 51.25H63.375L64.625 47.5H72.625L73.375 51.25H79.375L74.125 28.75H70.75ZM66.375 43.75C66.875 42.5 68.875 37.125 68.875 37.125C68.875 37.125 69.375 35.75 69.75 34.875L70.125 37C70.125 37 71.375 42.625 71.625 43.875H66.375V43.75Z" fill="#293688"/>
<path d="M18 44.5L17.375 41.25C16.25 37.5 12.625 33.375 8.625 31.375L14.25 51.375H21L31.125 28.875H24.375L18 44.5Z" fill="#3C58BF"/>
<path d="M18 44.5L17.375 41.25C16.25 37.5 12.625 33.375 8.625 31.375L14.25 51.375H21L31.125 28.875H25.625L18 44.5Z" fill="#293688"/>
<path d="M0.625 28.75L1.75 29C9.75 30.875 15.25 35.625 17.375 41.25L15.125 30.625C14.75 29.125 13.625 28.75 12.25 28.75H0.625Z" fill="#FFBC00"/>
<path d="M0.625 28.75C8.625 30.625 15.25 35.5 17.375 41.125L15.25 32.25C14.875 30.75 13.625 29.875 12.25 29.875L0.625 28.75Z" fill="#F7981D"/>
<path d="M0.625 28.75C8.625 30.625 15.25 35.5 17.375 41.125L15.875 36.25C15.5 34.75 15 33.25 13.25 32.625L0.625 28.75Z" fill="#ED7C00"/>
<path d="M24.25 43.75L20 39.5L18 44.25L17.5 41.125C16.375 37.375 12.75 33.25 8.75 31.25L14.375 51.25H21.125L24.25 43.75ZM35.875 51.25L30.5 45.75L29.5 51.25H35.875ZM50.25 43.5C50.75 44 51 44.375 50.875 44.875C50.875 46.375 48.875 47.125 47.125 47.125C44.625 47.125 43.25 46.75 41.125 45.875L40.25 45.5L39.375 50.625C40.875 51.25 43.625 51.875 46.5 51.875C50.5 51.875 53.75 50.75 55.625 48.75L50.25 43.5ZM57.5 51.25H63.375L64.625 47.5H72.625L73.375 51.25H79.375L77.25 42.125L69.75 34.875L70.125 36.875C70.125 36.875 71.375 42.5 71.625 43.75H66.375C66.875 42.5 68.875 37.125 68.875 37.125C68.875 37.125 69.375 35.75 69.75 34.875" fill="#051244"/>
</svg>
