<svg width="81" height="80" viewBox="0 0 81 80" fill="none" xmlns="http://www.w3.org/2000/svg">
<path d="M29.9629 51.25L33.9629 28.75H40.2129L36.3379 51.25H29.9629Z" fill="white"/>
<path d="M29.9629 51.25L35.0879 28.75H40.2129L36.3379 51.25H29.9629Z" fill="white"/>
<path d="M58.9629 29C57.7129 28.5 55.7129 28 53.2129 28C46.9629 28 42.4629 31.125 42.4629 35.625C42.4629 39 45.5879 40.75 48.0879 41.875C50.5879 43 51.3379 43.75 51.3379 44.75C51.3379 46.25 49.3379 47 47.5879 47C45.0879 47 43.7129 46.625 41.5879 45.75L40.7129 45.375L39.8379 50.5C41.3379 51.125 44.0879 51.75 46.9629 51.75C53.5879 51.75 57.9629 48.625 57.9629 43.875C57.9629 41.25 56.3379 39.25 52.5879 37.625C50.3379 36.5 48.9629 35.875 48.9629 34.75C48.9629 33.75 50.0879 32.75 52.5879 32.75C54.7129 32.75 56.2129 33.125 57.3379 33.625L57.9629 33.875L58.9629 29Z" fill="white"/>
<path d="M58.9629 29C57.7129 28.5 55.7129 28 53.2129 28C46.9629 28 43.5879 31.125 43.5879 35.625C43.5879 39 45.5879 40.75 48.0879 41.875C50.5879 43 51.3379 43.75 51.3379 44.75C51.3379 46.25 49.3379 47 47.5879 47C45.0879 47 43.7129 46.625 41.5879 45.75L40.7129 45.375L39.8379 50.5C41.3379 51.125 44.0879 51.75 46.9629 51.75C53.5879 51.75 57.9629 48.625 57.9629 43.875C57.9629 41.25 56.3379 39.25 52.5879 37.625C50.3379 36.5 48.9629 35.875 48.9629 34.75C48.9629 33.75 50.0879 32.75 52.5879 32.75C54.7129 32.75 56.2129 33.125 57.3379 33.625L57.9629 33.875L58.9629 29Z" fill="white"/>
<path d="M69.7129 28.75C68.2129 28.75 67.0879 28.875 66.4629 30.375L57.0879 51.25H63.8379L65.0879 47.5H73.0879L73.8379 51.25H79.8379L74.5879 28.75H69.7129ZM66.8379 43.75C67.2129 42.625 69.3379 37.125 69.3379 37.125C69.3379 37.125 69.8379 35.75 70.2129 34.875L70.5879 37C70.5879 37 71.8379 42.625 72.0879 43.875H66.8379V43.75Z" fill="white"/>
<path d="M71.2129 28.75C69.7129 28.75 68.5879 28.875 67.9629 30.375L57.0879 51.25H63.8379L65.0879 47.5H73.0879L73.8379 51.25H79.8379L74.5879 28.75H71.2129ZM66.8379 43.75C67.3379 42.5 69.3379 37.125 69.3379 37.125C69.3379 37.125 69.8379 35.75 70.2129 34.875L70.5879 37C70.5879 37 71.8379 42.625 72.0879 43.875H66.8379V43.75Z" fill="white"/>
<path d="M18.4629 44.5L17.8379 41.25C16.7129 37.5 13.0879 33.375 9.08789 31.375L14.7129 51.375H21.4629L31.5879 28.875H24.8379L18.4629 44.5Z" fill="white"/>
<path d="M18.4629 44.5L17.8379 41.25C16.7129 37.5 13.0879 33.375 9.08789 31.375L14.7129 51.375H21.4629L31.5879 28.875H26.0879L18.4629 44.5Z" fill="white"/>
<path d="M1.08789 28.75L2.21289 29C10.2129 30.875 15.7129 35.625 17.8379 41.25L15.5879 30.625C15.2129 29.125 14.0879 28.75 12.7129 28.75H1.08789Z" fill="#727272"/>
<path d="M1.08789 28.75C9.08789 30.625 15.7129 35.5 17.8379 41.125L15.7129 32.25C15.3379 30.75 14.0879 29.875 12.7129 29.875L1.08789 28.75Z" fill="white"/>
<path d="M1.08789 28.75C9.08789 30.625 15.7129 35.5 17.8379 41.125L16.3379 36.25C15.9629 34.75 15.4629 33.25 13.7129 32.625L1.08789 28.75Z" fill="#999999"/>
<path d="M24.7129 43.75L20.4629 39.5L18.4629 44.25L17.9629 41.125C16.8379 37.375 13.2129 33.25 9.21289 31.25L14.8379 51.25H21.5879L24.7129 43.75ZM36.3379 51.25L30.9629 45.75L29.9629 51.25H36.3379ZM50.7129 43.5C51.2129 44 51.4629 44.375 51.3379 44.875C51.3379 46.375 49.3379 47.125 47.5879 47.125C45.0879 47.125 43.7129 46.75 41.5879 45.875L40.7129 45.5L39.8379 50.625C41.3379 51.25 44.0879 51.875 46.9629 51.875C50.9629 51.875 54.2129 50.75 56.0879 48.75L50.7129 43.5ZM57.9629 51.25H63.8379L65.0879 47.5H73.0879L73.8379 51.25H79.8379L77.7129 42.125L70.2129 34.875L70.5879 36.875C70.5879 36.875 71.8379 42.5 72.0879 43.75H66.8379C67.3379 42.5 69.3379 37.125 69.3379 37.125C69.3379 37.125 69.8379 35.75 70.2129 34.875" fill="#E6EAF8"/>
</svg>
