<svg width="30" height="30" viewBox="0 0 30 30" fill="none" xmlns="http://www.w3.org/2000/svg">
<path d="M15.0047 0.46875H14.9958C6.98532 0.46875 0.468764 6.98578 0.468764 14.9995C0.464564 18.0602 1.43358 21.0429 3.23579 23.5167L1.42595 28.9163L7.01064 27.1308C9.38032 28.7017 12.1616 29.5369 15.0047 29.5312C23.0156 29.5312 29.5313 23.0128 29.5313 15C29.5313 6.98625 23.0156 0.46875 15.0047 0.46875ZM23.4591 20.9883C23.1099 21.9788 21.7172 22.7991 20.6072 23.0391C19.8469 23.2008 18.8564 23.3292 15.5175 21.945C11.2467 20.1769 8.49658 15.8372 8.28329 15.5545C8.07798 15.2728 6.55783 13.2567 6.55783 11.1722C6.55783 9.08766 7.61673 8.07094 8.04423 7.635C8.39439 7.27641 8.97517 7.11516 9.53017 7.11516C9.71017 7.11516 9.87142 7.12359 10.0172 7.13109C10.4442 7.14891 10.6575 7.17516 10.9392 7.84922C11.2894 8.69438 12.1434 10.7794 12.2461 10.9927C12.3483 11.2064 12.4514 11.4966 12.3056 11.7783C12.1688 12.0689 12.0497 12.1983 11.8364 12.4453C11.6222 12.6923 11.4169 12.8813 11.2041 13.1456C11.0077 13.3763 10.785 13.6242 11.0335 14.0512C11.2814 14.4708 12.135 15.8625 13.3903 16.9809C15.0127 18.4247 16.328 18.8864 16.7981 19.0828C17.1478 19.2286 17.5669 19.1934 17.8233 18.9206C18.1477 18.57 18.5494 17.9897 18.9591 17.4173C19.2492 17.0063 19.6167 16.9556 20.0006 17.1005C20.3939 17.2369 22.47 18.2625 22.897 18.4762C23.3231 18.69 23.6053 18.7922 23.7075 18.9717C23.8097 19.1522 23.8097 19.9973 23.4591 20.9883Z" fill="#7FD371"/>
<path d="M0.468764 14.9995C0.464564 18.0602 1.43358 21.0429 3.23579 23.5167L1.42595 28.9163L7.01064 27.1308C9.38032 28.7017 12.1616 29.5369 15.0047 29.5312C23.0156 29.5312 29.5313 23.0128 29.5313 15C29.5313 6.98625 23.0156 0.46875 15.0047 0.46875H14.9958M23.4591 20.9883C23.1099 21.9788 21.7172 22.7991 20.6072 23.0391C19.8469 23.2008 18.8564 23.3292 15.5175 21.945C11.2467 20.1769 8.49658 15.8372 8.28329 15.5545C8.07798 15.2728 6.55783 13.2567 6.55783 11.1722C6.55783 9.08766 7.61673 8.07094 8.04423 7.635C8.39439 7.27641 8.97517 7.11516 9.53017 7.11516C9.71017 7.11516 9.87142 7.12359 10.0172 7.13109C10.4442 7.14891 10.6575 7.17516 10.9392 7.84922C11.2894 8.69438 12.1434 10.7794 12.2461 10.9927C12.3483 11.2064 12.4514 11.4966 12.3056 11.7783C12.1688 12.0689 12.0497 12.1983 11.8364 12.4453C11.6222 12.6923 11.4169 12.8813 11.2041 13.1456C11.0077 13.3763 10.785 13.6242 11.0335 14.0512C11.2814 14.4708 12.135 15.8625 13.3903 16.9809C15.0127 18.4247 16.328 18.8864 16.7981 19.0828C17.1478 19.2286 17.5669 19.1934 17.8233 18.9206C18.1477 18.57 18.5494 17.9897 18.9591 17.4173C19.2492 17.0063 19.6167 16.9556 20.0006 17.1005C20.3939 17.2369 22.47 18.2625 22.897 18.4762C23.3231 18.69 23.6053 18.7922 23.7075 18.9717C23.8097 19.1522 23.8097 19.9973 23.4591 20.9883Z" fill="#6DBC61"/>
<path d="M19.6503 1.23535C23.3553 4.4027 25.7736 9.24395 25.7736 13.3427C25.7736 15.6002 25.0381 17.7124 23.7608 19.5269C23.7439 19.9014 23.6609 20.4185 23.4584 20.9885C23.1092 21.9789 21.7166 22.7993 20.6066 23.0393C20.3731 23.0921 20.1352 23.1232 19.8959 23.1321C17.4641 24.6485 14.45 25.5461 11.1852 25.5461C8.24516 25.5461 5.51 24.8163 3.21875 23.5638L1.42578 28.9164L7.01047 27.131C9.38015 28.7019 12.1614 29.5371 15.0045 29.5314C23.0155 29.5314 29.5311 23.013 29.5311 15.0002C29.5311 8.61207 25.3883 3.17832 19.6503 1.23535Z" fill="#549B45"/>
<path d="M20.001 17.1009C20.0985 17.1347 20.2973 17.2228 20.5485 17.3386L10.8379 7.62842C10.8716 7.69264 10.9059 7.76623 10.9401 7.84967C11.2902 8.69482 12.1443 10.7798 12.247 10.9931C12.3491 11.2069 12.4523 11.497 12.3065 11.7787C12.1696 12.0694 12.0505 12.1987 11.8373 12.4458C11.623 12.6928 11.4177 12.8817 11.2049 13.1461C11.0085 13.3767 10.7859 13.6247 11.0343 14.0517C11.2823 14.4712 12.1359 15.863 13.3912 16.9814C15.0135 18.4251 16.3288 18.8869 16.799 19.0833C17.1487 19.229 17.5677 19.1939 17.8241 18.9211C18.1485 18.5705 18.5502 17.9901 18.9599 17.4178C19.2496 17.0067 19.6176 16.9561 20.001 17.1009Z" fill="#549B45"/>
<path d="M6.55852 11.1855L6.46289 11.2816L6.56742 11.3857C6.56367 11.3191 6.55852 11.2526 6.55852 11.1855Z" fill="#5CAA4F"/>
</svg>
