<svg width="121" height="50" viewBox="0 0 121 50" fill="none" xmlns="http://www.w3.org/2000/svg">
<g clip-path="url(#clip0_84_2232)">
<path d="M20.3736 40.5265C19.412 40.1966 18.7547 39.749 17.9522 38.8796C16.2666 37.0531 16.174 36.5079 16.174 28.3968C16.174 20.5815 16.294 19.8454 17.8644 18.0103C20.0662 15.4382 25.1574 15.5143 27.3316 18.1517C28.7755 19.9035 28.8929 20.6834 28.8929 28.5168C28.8929 34.7164 28.8391 35.7498 28.4609 36.8345C27.8811 38.4956 26.1727 40.1027 24.4393 40.6175C22.8046 41.103 21.9995 41.0852 20.3736 40.5263V40.5265ZM23.3626 36.767C24.3441 36.3903 24.4533 35.5657 24.4533 28.5401C24.4533 24.0568 24.363 21.622 24.1821 21.2251C23.5749 19.8922 21.4919 19.8922 20.8848 21.2251C20.7038 21.622 20.6136 24.0568 20.6136 28.5401C20.6136 36.379 20.7137 36.8338 22.4538 36.8974C22.7401 36.9077 23.149 36.8489 23.3626 36.767ZM34.0241 40.395C33.6785 40.2074 33.1923 39.6444 32.9442 39.1447C32.5254 38.3019 32.4875 37.4399 32.4213 27.2569L32.35 16.2779H36.9321V26.3275C36.9321 34.929 36.9835 36.4203 37.289 36.6735C37.8208 37.1148 38.6847 36.7918 39.6617 35.7862L40.5318 34.8904V16.2782H45.0914V40.516H40.5318V38.0754L39.3919 39.0874C38.7651 39.6439 37.9045 40.247 37.4798 40.4277C36.4896 40.8484 34.8297 40.8325 34.0241 40.395ZM6.21177 33.8561L6.20817 27.1967L3.24276 17.7175L0.277344 8.2384L2.68673 8.16952C4.09708 8.12921 5.15683 8.19928 5.24274 8.33847C5.32361 8.46926 6.08842 11.2266 6.94227 14.4658C7.79659 17.7051 8.54964 20.3559 8.6166 20.3563C8.68379 20.3568 9.31301 18.1706 10.0152 15.4977C10.7176 12.8251 11.4531 10.0714 11.6502 9.3783L12.0085 8.11841H14.5369C16.5968 8.11841 17.0418 8.18032 16.9374 8.45198C16.8671 8.63532 15.5054 12.9504 13.912 18.0408L11.0147 27.296V40.5155H6.21513L6.21177 33.8561Z" fill="#FFDEDE"/>
<path d="M68.6391 49.8636C56.915 49.4722 53.7403 48.6378 51.5819 45.3789C50.7098 44.0623 49.731 41.1159 49.4192 38.8687C48.3249 30.9816 48.5937 14.5349 49.909 8.86637C51.1003 3.73299 53.9015 1.21825 59.0116 0.694379C64.0315 0.179625 77.1176 -0.10067 89.846 0.0337182C103.588 0.178665 110.057 0.472639 112.398 1.05843C116.977 2.20384 119.198 5.57674 119.972 12.5582C120.119 13.8781 120.299 18.4861 120.372 22.7981C120.668 40.2049 119.359 45.7424 114.368 48.1876C112.483 49.111 111.251 49.3231 105.924 49.6411C100.139 49.9862 76.5318 50.1271 68.6391 49.8636ZM74.4068 40.3758C74.8114 40.1663 75.6158 39.5589 76.1946 39.0247L77.2471 38.0552V40.5159H81.8067V16.5181H77.2471V34.8198L76.1989 35.8678C75.0739 36.993 74.6189 37.1334 74.0247 36.5392C73.694 36.2086 73.6475 34.9492 73.6475 26.3402V16.5178H69.0879V26.9135C69.0879 38.3813 69.1822 39.2887 70.4721 40.2515C71.2887 40.8608 73.3432 40.9256 74.4068 40.3758ZM96.3528 40.2983C96.7715 40.0429 97.3518 39.3312 97.6727 38.6794C98.2357 37.5361 98.2469 37.3787 98.3259 29.6015C98.4123 21.0746 98.275 19.5348 97.2733 17.8065C96.7168 16.8461 95.3898 16.0379 94.3686 16.0379C93.3852 16.0379 91.9761 16.6995 90.9017 17.6654L89.7263 18.722V8.35857H85.4066V40.5157H89.7263V38.3002L90.7114 39.1903C91.2532 39.6796 92.0363 40.228 92.4512 40.4084C93.5654 40.8937 95.4646 40.8399 96.3528 40.298V40.2983ZM90.6259 36.3837L89.726 35.862V21.1441L90.791 20.5792C91.6552 20.1209 91.9833 20.0592 92.5309 20.2514C93.7142 20.6671 93.8417 21.5838 93.7596 29.0778L93.6857 35.7584L93.0123 36.3372C92.188 37.0461 91.7829 37.054 90.6259 36.3837ZM110.844 40.2558C113.163 39.2044 114.208 37.4264 114.39 34.2184L114.51 32.1167H109.884V33.5412C109.884 35.2858 109.614 36.048 108.807 36.5764C107.898 37.1716 106.769 36.7934 106.225 35.7113C105.896 35.0583 105.805 34.2626 105.805 32.0564L105.804 29.2367H114.444V25.7131C114.444 21.2783 114.097 19.8648 112.601 18.2018C111.28 16.7324 109.865 16.1473 107.724 16.1867C105.95 16.2191 104.765 16.6613 103.519 17.7547C101.484 19.5418 101.176 21.1341 101.297 29.2369C101.376 34.5018 101.464 35.7845 101.805 36.69C102.389 38.2359 103.443 39.413 104.891 40.1346C106.523 40.9472 109.199 41.0019 110.844 40.2558ZM105.805 23.8293C105.805 20.8444 106.57 19.8259 108.497 20.2493C109.465 20.4619 109.884 21.5447 109.884 23.8295V25.637H105.805V23.8295L105.805 23.8293ZM64.5283 26.7172V12.9184H69.8078V8.35881H54.6892V12.9184H59.7287V40.5159H64.5283V26.7172Z" fill="#A5A5A5"/>
</g>
<defs>
<clipPath id="clip0_84_2232">
<rect width="120.192" height="50" fill="white" transform="translate(0.248047)"/>
</clipPath>
</defs>
</svg>
