<svg width="73" height="30" viewBox="0 0 73 30" fill="none" xmlns="http://www.w3.org/2000/svg">
<g clip-path="url(#clip0_84_2305)">
<path d="M12.423 24.316C11.846 24.118 11.4517 23.8495 10.9702 23.3278C9.95881 22.2319 9.90323 21.9048 9.90323 17.0381C9.90323 12.3489 9.97522 11.9073 10.9175 10.8062C12.2386 9.26299 15.2932 9.30863 16.5978 10.891C17.4641 11.9422 17.5345 12.4101 17.5345 17.1101C17.5345 20.8299 17.5023 21.4499 17.2754 22.1007C16.9275 23.0974 15.9025 24.0617 14.8624 24.3705C13.8816 24.6618 13.3985 24.6512 12.423 24.3158V24.316ZM14.2164 22.0603C14.8053 21.8342 14.8708 21.3395 14.8708 17.1241C14.8708 14.4341 14.8166 12.9732 14.7081 12.7351C14.3438 11.9354 13.094 11.9354 12.7297 12.7351C12.6211 12.9732 12.567 14.4341 12.567 17.1241C12.567 21.8274 12.627 22.1003 13.6711 22.1385C13.8429 22.1446 14.0882 22.1094 14.2164 22.0603ZM20.6133 24.2371C20.4059 24.1245 20.1142 23.7867 19.9653 23.4869C19.7141 22.9812 19.6913 22.464 19.6516 16.3542L19.6088 9.7668H22.3581V15.7965C22.3581 20.9575 22.3889 21.8522 22.5722 22.0041C22.8913 22.2689 23.4097 22.0751 23.9958 21.4718L24.5179 20.9343V9.76694H27.2537V24.3096H24.5179V22.8453L23.834 23.4525C23.4579 23.7864 22.9415 24.1482 22.6867 24.2567C22.0926 24.5091 21.0966 24.4996 20.6133 24.2371ZM3.92589 20.3137L3.92373 16.3181L2.14448 10.6306L0.365234 4.94309L1.81086 4.90176C2.65708 4.87757 3.29292 4.91962 3.34447 5.00313C3.393 5.0816 3.85188 6.73601 4.36419 8.67955C4.87678 10.6231 5.32861 12.2136 5.36879 12.2139C5.4091 12.2141 5.78664 10.9024 6.20794 9.2987C6.62939 7.69511 7.07071 6.04286 7.18893 5.62703L7.4039 4.87109H8.92095C10.1569 4.87109 10.4239 4.90824 10.3613 5.07124C10.3191 5.18124 9.50208 7.77027 8.54601 10.8245L6.80765 16.3777V24.3094H3.92791L3.92589 20.3137Z" fill="#FFDEDE"/>
<path d="M41.3819 29.9181C34.3474 29.6832 32.4426 29.1826 31.1476 27.2272C30.6243 26.4373 30.037 24.6695 29.85 23.3212C29.1934 18.5889 29.3547 8.72087 30.1439 5.31975C30.8586 2.23972 32.5394 0.730881 35.6054 0.416557C38.6173 0.107705 46.469 -0.060472 54.106 0.0201608C62.351 0.107129 66.2328 0.283513 67.6372 0.634986C70.3845 1.32224 71.7172 3.34598 72.1819 7.53485C72.2697 8.32678 72.3777 11.0916 72.4218 13.6788C72.5995 24.1229 71.8137 27.4454 68.8192 28.9125C67.6885 29.4665 66.9488 29.5938 63.753 29.7846C60.2821 29.9917 46.1175 30.0762 41.3819 29.9181ZM44.8425 24.2254C45.0852 24.0997 45.5679 23.7353 45.9152 23.4148L46.5467 22.833V24.3095H49.2825V9.91078H46.5467V20.8918L45.9178 21.5206C45.2428 22.1958 44.9698 22.28 44.6133 21.9235C44.4148 21.7251 44.3869 20.9694 44.3869 15.804V9.91063H41.6512V16.148C41.6512 23.0287 41.7077 23.5731 42.4817 24.1508C42.9717 24.5164 44.2043 24.5553 44.8425 24.2254ZM58.0101 24.1789C58.2614 24.0257 58.6095 23.5986 58.802 23.2076C59.1398 22.5216 59.1466 22.4271 59.194 17.7608C59.2458 12.6447 59.1634 11.7208 58.5624 10.6838C58.2285 10.1076 57.4323 9.62266 56.8196 9.62266C56.2296 9.62266 55.3841 10.0196 54.7394 10.5992L54.0342 11.2332V5.01507H51.4424V24.3093H54.0342V22.9801L54.6253 23.5141C54.9504 23.8077 55.4202 24.1367 55.6692 24.245C56.3377 24.5361 57.4772 24.5039 58.0101 24.1787V24.1789ZM54.574 21.8302L54.034 21.5171V12.6864L54.6731 12.3475C55.1916 12.0725 55.3884 12.0355 55.717 12.1508C56.427 12.4002 56.5034 12.9502 56.4542 17.4466L56.4098 21.4549L56.0058 21.8022C55.5112 22.2276 55.2682 22.2323 54.574 21.8302ZM66.7049 24.1534C68.0964 23.5226 68.723 22.4558 68.8326 20.531L68.9046 19.2699H66.1288V20.1246C66.1288 21.1714 65.9665 21.6287 65.4827 21.9458C64.9375 22.3029 64.2597 22.076 63.9334 21.4267C63.7363 21.0349 63.6815 20.5575 63.6815 19.2338L63.681 17.542H68.8646V15.4278C68.8646 12.7669 68.6565 11.9188 67.7593 10.921C66.9665 10.0394 66.1172 9.68832 64.8329 9.71193C63.7684 9.73137 63.0571 9.99674 62.31 10.6527C61.089 11.725 60.9038 12.6804 60.9768 17.5421C61.0243 20.701 61.0766 21.4706 61.2816 22.0139C61.6318 22.9415 62.2643 23.6477 63.133 24.0807C64.1121 24.5682 65.7176 24.6011 66.7049 24.1534ZM63.6812 14.2975C63.6812 12.5066 64.1406 11.8955 65.2969 12.1495C65.8773 12.2771 66.1291 12.9267 66.1291 14.2976V15.3821H63.6813V14.2976L63.6812 14.2975ZM38.9154 16.0302V7.75097H42.0831V5.01522H33.0119V7.75097H36.0357V24.3095H38.9154V16.0302Z" fill="#A5A5A5"/>
</g>
<defs>
<clipPath id="clip0_84_2305">
<rect width="72.1154" height="30" fill="white" transform="translate(0.347656)"/>
</clipPath>
</defs>
</svg>
